<?xml version="1.0" encoding="utf-8" standalone="no"?>
<!DOCTYPE svg PUBLIC "-//W3C//DTD SVG 1.1//EN"
  "http://www.w3.org/Graphics/SVG/1.1/DTD/svg11.dtd">
<svg xmlns:xlink="http://www.w3.org/1999/xlink" width="1008pt" height="720pt" viewBox="0 0 1008 720" xmlns="http://www.w3.org/2000/svg" version="1.1">
 <metadata>
  <rdf:RDF xmlns:dc="http://purl.org/dc/elements/1.1/" xmlns:cc="http://creativecommons.org/ns#" xmlns:rdf="http://www.w3.org/1999/02/22-rdf-syntax-ns#">
   <cc:Work>
    <dc:type rdf:resource="http://purl.org/dc/dcmitype/StillImage"/>
    <dc:date>2026-01-31T17:56:14.802798</dc:date>
    <dc:format>image/svg+xml</dc:format>
    <dc:creator>
     <cc:Agent>
      <dc:title>Matplotlib v3.10.8, https://matplotlib.org/</dc:title>
     </cc:Agent>
    </dc:creator>
   </cc:Work>
  </rdf:RDF>
 </metadata>
 <defs>
  <style type="text/css">*{stroke-linejoin: round; stroke-linecap: butt}</style>
 </defs>
 <g id="figure_1">
  <g id="patch_1">
   <path d="M 0 720 
L 1008 720 
L 1008 0 
L 0 0 
z
" style="fill: #ffffff"/>
  </g>
  <g id="axes_1">
   <g id="patch_2">
    <path d="M 57.44 336.744 
L 997.2 336.744 
L 997.2 37.968 
L 57.44 37.968 
z
" style="fill: #ffffff"/>
   </g>
   <g id="matplotlib.axis_1">
    <g id="xtick_1">
     <g id="line2d_1">
      <path d="M 194.458598 336.744 
L 194.458598 37.968 
" clip-path="url(#p21e19fa2c1)" style="fill: none; stroke: #b0b0b0; stroke-opacity: 0.3; stroke-width: 0.8; stroke-linecap: square"/>
     </g>
     <g id="line2d_2">
      <defs>
       <path id="ma8dab632df" d="M 0 0 
L 0 3.5 
" style="stroke: #000000; stroke-width: 0.8"/>
      </defs>
      <g>
       <use xlink:href="#ma8dab632df" x="194.458598" y="336.744" style="stroke: #000000; stroke-width: 0.8"/>
      </g>
     </g>
     <g id="text_1">
      <!-- 2022 -->
      <g transform="translate(181.733598 351.342438) scale(0.1 -0.1)">
       <defs>
        <path id="DejaVuSans-32" d="M 1228 531 
L 3431 531 
L 3431 0 
L 469 0 
L 469 531 
Q 828 903 1448 1529 
Q 2069 2156 2228 2338 
Q 2531 2678 2651 2914 
Q 2772 3150 2772 3378 
Q 2772 3750 2511 3984 
Q 2250 4219 1831 4219 
Q 1534 4219 1204 4116 
Q 875 4013 500 3803 
L 500 4441 
Q 881 4594 1212 4672 
Q 1544 4750 1819 4750 
Q 2544 4750 2975 4387 
Q 3406 4025 3406 3419 
Q 3406 3131 3298 2873 
Q 3191 2616 2906 2266 
Q 2828 2175 2409 1742 
Q 1991 1309 1228 531 
z
" transform="scale(0.015625)"/>
        <path id="DejaVuSans-30" d="M 2034 4250 
Q 1547 4250 1301 3770 
Q 1056 3291 1056 2328 
Q 1056 1369 1301 889 
Q 1547 409 2034 409 
Q 2525 409 2770 889 
Q 3016 1369 3016 2328 
Q 3016 3291 2770 3770 
Q 2525 4250 2034 4250 
z
M 2034 4750 
Q 2819 4750 3233 4129 
Q 3647 3509 3647 2328 
Q 3647 1150 3233 529 
Q 2819 -91 2034 -91 
Q 1250 -91 836 529 
Q 422 1150 422 2328 
Q 422 3509 836 4129 
Q 1250 4750 2034 4750 
z
" transform="scale(0.015625)"/>
       </defs>
       <use xlink:href="#DejaVuSans-32"/>
       <use xlink:href="#DejaVuSans-30" transform="translate(63.623047 0)"/>
       <use xlink:href="#DejaVuSans-32" transform="translate(127.246094 0)"/>
       <use xlink:href="#DejaVuSans-32" transform="translate(190.869141 0)"/>
      </g>
     </g>
    </g>
    <g id="xtick_2">
     <g id="line2d_3">
      <path d="M 380.514359 336.744 
L 380.514359 37.968 
" clip-path="url(#p21e19fa2c1)" style="fill: none; stroke: #b0b0b0; stroke-opacity: 0.3; stroke-width: 0.8; stroke-linecap: square"/>
     </g>
     <g id="line2d_4">
      <g>
       <use xlink:href="#ma8dab632df" x="380.514359" y="336.744" style="stroke: #000000; stroke-width: 0.8"/>
      </g>
     </g>
     <g id="text_2">
      <!-- 2023 -->
      <g transform="translate(367.789359 351.342438) scale(0.1 -0.1)">
       <defs>
        <path id="DejaVuSans-33" d="M 2597 2516 
Q 3050 2419 3304 2112 
Q 3559 1806 3559 1356 
Q 3559 666 3084 287 
Q 2609 -91 1734 -91 
Q 1441 -91 1130 -33 
Q 819 25 488 141 
L 488 750 
Q 750 597 1062 519 
Q 1375 441 1716 441 
Q 2309 441 2620 675 
Q 2931 909 2931 1356 
Q 2931 1769 2642 2001 
Q 2353 2234 1838 2234 
L 1294 2234 
L 1294 2753 
L 1863 2753 
Q 2328 2753 2575 2939 
Q 2822 3125 2822 3475 
Q 2822 3834 2567 4026 
Q 2313 4219 1838 4219 
Q 1578 4219 1281 4162 
Q 984 4106 628 3988 
L 628 4550 
Q 988 4650 1302 4700 
Q 1616 4750 1894 4750 
Q 2613 4750 3031 4423 
Q 3450 4097 3450 3541 
Q 3450 3153 3228 2886 
Q 3006 2619 2597 2516 
z
" transform="scale(0.015625)"/>
       </defs>
       <use xlink:href="#DejaVuSans-32"/>
       <use xlink:href="#DejaVuSans-30" transform="translate(63.623047 0)"/>
       <use xlink:href="#DejaVuSans-32" transform="translate(127.246094 0)"/>
       <use xlink:href="#DejaVuSans-33" transform="translate(190.869141 0)"/>
      </g>
     </g>
    </g>
    <g id="xtick_3">
     <g id="line2d_5">
      <path d="M 566.570119 336.744 
L 566.570119 37.968 
" clip-path="url(#p21e19fa2c1)" style="fill: none; stroke: #b0b0b0; stroke-opacity: 0.3; stroke-width: 0.8; stroke-linecap: square"/>
     </g>
     <g id="line2d_6">
      <g>
       <use xlink:href="#ma8dab632df" x="566.570119" y="336.744" style="stroke: #000000; stroke-width: 0.8"/>
      </g>
     </g>
     <g id="text_3">
      <!-- 2024 -->
      <g transform="translate(553.845119 351.342438) scale(0.1 -0.1)">
       <defs>
        <path id="DejaVuSans-34" d="M 2419 4116 
L 825 1625 
L 2419 1625 
L 2419 4116 
z
M 2253 4666 
L 3047 4666 
L 3047 1625 
L 3713 1625 
L 3713 1100 
L 3047 1100 
L 3047 0 
L 2419 0 
L 2419 1100 
L 313 1100 
L 313 1709 
L 2253 4666 
z
" transform="scale(0.015625)"/>
       </defs>
       <use xlink:href="#DejaVuSans-32"/>
       <use xlink:href="#DejaVuSans-30" transform="translate(63.623047 0)"/>
       <use xlink:href="#DejaVuSans-32" transform="translate(127.246094 0)"/>
       <use xlink:href="#DejaVuSans-34" transform="translate(190.869141 0)"/>
      </g>
     </g>
    </g>
    <g id="xtick_4">
     <g id="line2d_7">
      <path d="M 753.135622 336.744 
L 753.135622 37.968 
" clip-path="url(#p21e19fa2c1)" style="fill: none; stroke: #b0b0b0; stroke-opacity: 0.3; stroke-width: 0.8; stroke-linecap: square"/>
     </g>
     <g id="line2d_8">
      <g>
       <use xlink:href="#ma8dab632df" x="753.135622" y="336.744" style="stroke: #000000; stroke-width: 0.8"/>
      </g>
     </g>
     <g id="text_4">
      <!-- 2025 -->
      <g transform="translate(740.410622 351.342438) scale(0.1 -0.1)">
       <defs>
        <path id="DejaVuSans-35" d="M 691 4666 
L 3169 4666 
L 3169 4134 
L 1269 4134 
L 1269 2991 
Q 1406 3038 1543 3061 
Q 1681 3084 1819 3084 
Q 2600 3084 3056 2656 
Q 3513 2228 3513 1497 
Q 3513 744 3044 326 
Q 2575 -91 1722 -91 
Q 1428 -91 1123 -41 
Q 819 9 494 109 
L 494 744 
Q 775 591 1075 516 
Q 1375 441 1709 441 
Q 2250 441 2565 725 
Q 2881 1009 2881 1497 
Q 2881 1984 2565 2268 
Q 2250 2553 1709 2553 
Q 1456 2553 1204 2497 
Q 953 2441 691 2322 
L 691 4666 
z
" transform="scale(0.015625)"/>
       </defs>
       <use xlink:href="#DejaVuSans-32"/>
       <use xlink:href="#DejaVuSans-30" transform="translate(63.623047 0)"/>
       <use xlink:href="#DejaVuSans-32" transform="translate(127.246094 0)"/>
       <use xlink:href="#DejaVuSans-35" transform="translate(190.869141 0)"/>
      </g>
     </g>
    </g>
    <g id="xtick_5">
     <g id="line2d_9">
      <path d="M 939.191382 336.744 
L 939.191382 37.968 
" clip-path="url(#p21e19fa2c1)" style="fill: none; stroke: #b0b0b0; stroke-opacity: 0.3; stroke-width: 0.8; stroke-linecap: square"/>
     </g>
     <g id="line2d_10">
      <g>
       <use xlink:href="#ma8dab632df" x="939.191382" y="336.744" style="stroke: #000000; stroke-width: 0.8"/>
      </g>
     </g>
     <g id="text_5">
      <!-- 2026 -->
      <g transform="translate(926.466382 351.342438) scale(0.1 -0.1)">
       <defs>
        <path id="DejaVuSans-36" d="M 2113 2584 
Q 1688 2584 1439 2293 
Q 1191 2003 1191 1497 
Q 1191 994 1439 701 
Q 1688 409 2113 409 
Q 2538 409 2786 701 
Q 3034 994 3034 1497 
Q 3034 2003 2786 2293 
Q 2538 2584 2113 2584 
z
M 3366 4563 
L 3366 3988 
Q 3128 4100 2886 4159 
Q 2644 4219 2406 4219 
Q 1781 4219 1451 3797 
Q 1122 3375 1075 2522 
Q 1259 2794 1537 2939 
Q 1816 3084 2150 3084 
Q 2853 3084 3261 2657 
Q 3669 2231 3669 1497 
Q 3669 778 3244 343 
Q 2819 -91 2113 -91 
Q 1303 -91 875 529 
Q 447 1150 447 2328 
Q 447 3434 972 4092 
Q 1497 4750 2381 4750 
Q 2619 4750 2861 4703 
Q 3103 4656 3366 4563 
z
" transform="scale(0.015625)"/>
       </defs>
       <use xlink:href="#DejaVuSans-32"/>
       <use xlink:href="#DejaVuSans-30" transform="translate(63.623047 0)"/>
       <use xlink:href="#DejaVuSans-32" transform="translate(127.246094 0)"/>
       <use xlink:href="#DejaVuSans-36" transform="translate(190.869141 0)"/>
      </g>
     </g>
    </g>
   </g>
   <g id="matplotlib.axis_2">
    <g id="ytick_1">
     <g id="line2d_11">
      <path d="M 57.44 303.843239 
L 997.2 303.843239 
" clip-path="url(#p21e19fa2c1)" style="fill: none; stroke: #b0b0b0; stroke-opacity: 0.3; stroke-width: 0.8; stroke-linecap: square"/>
     </g>
     <g id="line2d_12">
      <defs>
       <path id="m135dc2b9a1" d="M 0 0 
L -3.5 0 
" style="stroke: #000000; stroke-width: 0.8"/>
      </defs>
      <g>
       <use xlink:href="#m135dc2b9a1" x="57.44" y="303.843239" style="stroke: #000000; stroke-width: 0.8"/>
      </g>
     </g>
     <g id="text_6">
      <!-- 2000 -->
      <g transform="translate(24.99 307.642458) scale(0.1 -0.1)">
       <use xlink:href="#DejaVuSans-32"/>
       <use xlink:href="#DejaVuSans-30" transform="translate(63.623047 0)"/>
       <use xlink:href="#DejaVuSans-30" transform="translate(127.246094 0)"/>
       <use xlink:href="#DejaVuSans-30" transform="translate(190.869141 0)"/>
      </g>
     </g>
    </g>
    <g id="ytick_2">
     <g id="line2d_13">
      <path d="M 57.44 252.225573 
L 997.2 252.225573 
" clip-path="url(#p21e19fa2c1)" style="fill: none; stroke: #b0b0b0; stroke-opacity: 0.3; stroke-width: 0.8; stroke-linecap: square"/>
     </g>
     <g id="line2d_14">
      <g>
       <use xlink:href="#m135dc2b9a1" x="57.44" y="252.225573" style="stroke: #000000; stroke-width: 0.8"/>
      </g>
     </g>
     <g id="text_7">
      <!-- 3000 -->
      <g transform="translate(24.99 256.024791) scale(0.1 -0.1)">
       <use xlink:href="#DejaVuSans-33"/>
       <use xlink:href="#DejaVuSans-30" transform="translate(63.623047 0)"/>
       <use xlink:href="#DejaVuSans-30" transform="translate(127.246094 0)"/>
       <use xlink:href="#DejaVuSans-30" transform="translate(190.869141 0)"/>
      </g>
     </g>
    </g>
    <g id="ytick_3">
     <g id="line2d_15">
      <path d="M 57.44 200.607906 
L 997.2 200.607906 
" clip-path="url(#p21e19fa2c1)" style="fill: none; stroke: #b0b0b0; stroke-opacity: 0.3; stroke-width: 0.8; stroke-linecap: square"/>
     </g>
     <g id="line2d_16">
      <g>
       <use xlink:href="#m135dc2b9a1" x="57.44" y="200.607906" style="stroke: #000000; stroke-width: 0.8"/>
      </g>
     </g>
     <g id="text_8">
      <!-- 4000 -->
      <g transform="translate(24.99 204.407125) scale(0.1 -0.1)">
       <use xlink:href="#DejaVuSans-34"/>
       <use xlink:href="#DejaVuSans-30" transform="translate(63.623047 0)"/>
       <use xlink:href="#DejaVuSans-30" transform="translate(127.246094 0)"/>
       <use xlink:href="#DejaVuSans-30" transform="translate(190.869141 0)"/>
      </g>
     </g>
    </g>
    <g id="ytick_4">
     <g id="line2d_17">
      <path d="M 57.44 148.99024 
L 997.2 148.99024 
" clip-path="url(#p21e19fa2c1)" style="fill: none; stroke: #b0b0b0; stroke-opacity: 0.3; stroke-width: 0.8; stroke-linecap: square"/>
     </g>
     <g id="line2d_18">
      <g>
       <use xlink:href="#m135dc2b9a1" x="57.44" y="148.99024" style="stroke: #000000; stroke-width: 0.8"/>
      </g>
     </g>
     <g id="text_9">
      <!-- 5000 -->
      <g transform="translate(24.99 152.789459) scale(0.1 -0.1)">
       <use xlink:href="#DejaVuSans-35"/>
       <use xlink:href="#DejaVuSans-30" transform="translate(63.623047 0)"/>
       <use xlink:href="#DejaVuSans-30" transform="translate(127.246094 0)"/>
       <use xlink:href="#DejaVuSans-30" transform="translate(190.869141 0)"/>
      </g>
     </g>
    </g>
    <g id="ytick_5">
     <g id="line2d_19">
      <path d="M 57.44 97.372574 
L 997.2 97.372574 
" clip-path="url(#p21e19fa2c1)" style="fill: none; stroke: #b0b0b0; stroke-opacity: 0.3; stroke-width: 0.8; stroke-linecap: square"/>
     </g>
     <g id="line2d_20">
      <g>
       <use xlink:href="#m135dc2b9a1" x="57.44" y="97.372574" style="stroke: #000000; stroke-width: 0.8"/>
      </g>
     </g>
     <g id="text_10">
      <!-- 6000 -->
      <g transform="translate(24.99 101.171793) scale(0.1 -0.1)">
       <use xlink:href="#DejaVuSans-36"/>
       <use xlink:href="#DejaVuSans-30" transform="translate(63.623047 0)"/>
       <use xlink:href="#DejaVuSans-30" transform="translate(127.246094 0)"/>
       <use xlink:href="#DejaVuSans-30" transform="translate(190.869141 0)"/>
      </g>
     </g>
    </g>
    <g id="ytick_6">
     <g id="line2d_21">
      <path d="M 57.44 45.754908 
L 997.2 45.754908 
" clip-path="url(#p21e19fa2c1)" style="fill: none; stroke: #b0b0b0; stroke-opacity: 0.3; stroke-width: 0.8; stroke-linecap: square"/>
     </g>
     <g id="line2d_22">
      <g>
       <use xlink:href="#m135dc2b9a1" x="57.44" y="45.754908" style="stroke: #000000; stroke-width: 0.8"/>
      </g>
     </g>
     <g id="text_11">
      <!-- 7000 -->
      <g transform="translate(24.99 49.554126) scale(0.1 -0.1)">
       <defs>
        <path id="DejaVuSans-37" d="M 525 4666 
L 3525 4666 
L 3525 4397 
L 1831 0 
L 1172 0 
L 2766 4134 
L 525 4134 
L 525 4666 
z
" transform="scale(0.015625)"/>
       </defs>
       <use xlink:href="#DejaVuSans-37"/>
       <use xlink:href="#DejaVuSans-30" transform="translate(63.623047 0)"/>
       <use xlink:href="#DejaVuSans-30" transform="translate(127.246094 0)"/>
       <use xlink:href="#DejaVuSans-30" transform="translate(190.869141 0)"/>
      </g>
     </g>
    </g>
    <g id="text_12">
     <!-- HHI Index -->
     <g transform="translate(18.910313 211.706781) rotate(-90) scale(0.1 -0.1)">
      <defs>
       <path id="DejaVuSans-48" d="M 628 4666 
L 1259 4666 
L 1259 2753 
L 3553 2753 
L 3553 4666 
L 4184 4666 
L 4184 0 
L 3553 0 
L 3553 2222 
L 1259 2222 
L 1259 0 
L 628 0 
L 628 4666 
z
" transform="scale(0.015625)"/>
       <path id="DejaVuSans-49" d="M 628 4666 
L 1259 4666 
L 1259 0 
L 628 0 
L 628 4666 
z
" transform="scale(0.015625)"/>
       <path id="DejaVuSans-20" transform="scale(0.015625)"/>
       <path id="DejaVuSans-6e" d="M 3513 2113 
L 3513 0 
L 2938 0 
L 2938 2094 
Q 2938 2591 2744 2837 
Q 2550 3084 2163 3084 
Q 1697 3084 1428 2787 
Q 1159 2491 1159 1978 
L 1159 0 
L 581 0 
L 581 3500 
L 1159 3500 
L 1159 2956 
Q 1366 3272 1645 3428 
Q 1925 3584 2291 3584 
Q 2894 3584 3203 3211 
Q 3513 2838 3513 2113 
z
" transform="scale(0.015625)"/>
       <path id="DejaVuSans-64" d="M 2906 2969 
L 2906 4863 
L 3481 4863 
L 3481 0 
L 2906 0 
L 2906 525 
Q 2725 213 2448 61 
Q 2172 -91 1784 -91 
Q 1150 -91 751 415 
Q 353 922 353 1747 
Q 353 2572 751 3078 
Q 1150 3584 1784 3584 
Q 2172 3584 2448 3432 
Q 2725 3281 2906 2969 
z
M 947 1747 
Q 947 1113 1208 752 
Q 1469 391 1925 391 
Q 2381 391 2643 752 
Q 2906 1113 2906 1747 
Q 2906 2381 2643 2742 
Q 2381 3103 1925 3103 
Q 1469 3103 1208 2742 
Q 947 2381 947 1747 
z
" transform="scale(0.015625)"/>
       <path id="DejaVuSans-65" d="M 3597 1894 
L 3597 1613 
L 953 1613 
Q 991 1019 1311 708 
Q 1631 397 2203 397 
Q 2534 397 2845 478 
Q 3156 559 3463 722 
L 3463 178 
Q 3153 47 2828 -22 
Q 2503 -91 2169 -91 
Q 1331 -91 842 396 
Q 353 884 353 1716 
Q 353 2575 817 3079 
Q 1281 3584 2069 3584 
Q 2775 3584 3186 3129 
Q 3597 2675 3597 1894 
z
M 3022 2063 
Q 3016 2534 2758 2815 
Q 2500 3097 2075 3097 
Q 1594 3097 1305 2825 
Q 1016 2553 972 2059 
L 3022 2063 
z
" transform="scale(0.015625)"/>
       <path id="DejaVuSans-78" d="M 3513 3500 
L 2247 1797 
L 3578 0 
L 2900 0 
L 1881 1375 
L 863 0 
L 184 0 
L 1544 1831 
L 300 3500 
L 978 3500 
L 1906 2253 
L 2834 3500 
L 3513 3500 
z
" transform="scale(0.015625)"/>
      </defs>
      <use xlink:href="#DejaVuSans-48"/>
      <use xlink:href="#DejaVuSans-48" transform="translate(75.195312 0)"/>
      <use xlink:href="#DejaVuSans-49" transform="translate(150.390625 0)"/>
      <use xlink:href="#DejaVuSans-20" transform="translate(179.882812 0)"/>
      <use xlink:href="#DejaVuSans-49" transform="translate(211.669922 0)"/>
      <use xlink:href="#DejaVuSans-6e" transform="translate(241.162109 0)"/>
      <use xlink:href="#DejaVuSans-64" transform="translate(304.541016 0)"/>
      <use xlink:href="#DejaVuSans-65" transform="translate(368.017578 0)"/>
      <use xlink:href="#DejaVuSans-78" transform="translate(427.791016 0)"/>
     </g>
    </g>
   </g>
   <g id="line2d_23">
    <path d="M 100.156364 281.751727 
L 147.05261 288.673966 
L 193.948857 296.258602 
L 239.825619 299.116543 
L 286.212124 279.574878 
L 333.108371 258.766062 
L 380.004617 96.384178 
L 425.88138 101.756122 
L 472.267885 286.800737 
L 519.164131 291.076919 
L 566.060378 51.548727 
L 612.446882 190.61739 
L 658.833387 255.478529 
L 705.729633 278.607935 
L 752.62588 233.263981 
L 798.502643 216.317631 
L 891.785394 311.037812 
L 927.46732 323.163273 
L 954.483636 321.570067 
" clip-path="url(#p21e19fa2c1)" style="fill: none; stroke: #8b0000; stroke-width: 2; stroke-linecap: square"/>
    <defs>
     <path id="m7cf719d180" d="M 0 3 
C 0.795609 3 1.55874 2.683901 2.12132 2.12132 
C 2.683901 1.55874 3 0.795609 3 0 
C 3 -0.795609 2.683901 -1.55874 2.12132 -2.12132 
C 1.55874 -2.683901 0.795609 -3 0 -3 
C -0.795609 -3 -1.55874 -2.683901 -2.12132 -2.12132 
C -2.683901 -1.55874 -3 -0.795609 -3 0 
C -3 0.795609 -2.683901 1.55874 -2.12132 2.12132 
C -1.55874 2.683901 -0.795609 3 0 3 
z
" style="stroke: #8b0000"/>
    </defs>
    <g clip-path="url(#p21e19fa2c1)">
     <use xlink:href="#m7cf719d180" x="100.156364" y="281.751727" style="fill: #8b0000; stroke: #8b0000"/>
     <use xlink:href="#m7cf719d180" x="147.05261" y="288.673966" style="fill: #8b0000; stroke: #8b0000"/>
     <use xlink:href="#m7cf719d180" x="193.948857" y="296.258602" style="fill: #8b0000; stroke: #8b0000"/>
     <use xlink:href="#m7cf719d180" x="239.825619" y="299.116543" style="fill: #8b0000; stroke: #8b0000"/>
     <use xlink:href="#m7cf719d180" x="286.212124" y="279.574878" style="fill: #8b0000; stroke: #8b0000"/>
     <use xlink:href="#m7cf719d180" x="333.108371" y="258.766062" style="fill: #8b0000; stroke: #8b0000"/>
     <use xlink:href="#m7cf719d180" x="380.004617" y="96.384178" style="fill: #8b0000; stroke: #8b0000"/>
     <use xlink:href="#m7cf719d180" x="425.88138" y="101.756122" style="fill: #8b0000; stroke: #8b0000"/>
     <use xlink:href="#m7cf719d180" x="472.267885" y="286.800737" style="fill: #8b0000; stroke: #8b0000"/>
     <use xlink:href="#m7cf719d180" x="519.164131" y="291.076919" style="fill: #8b0000; stroke: #8b0000"/>
     <use xlink:href="#m7cf719d180" x="566.060378" y="51.548727" style="fill: #8b0000; stroke: #8b0000"/>
     <use xlink:href="#m7cf719d180" x="612.446882" y="190.61739" style="fill: #8b0000; stroke: #8b0000"/>
     <use xlink:href="#m7cf719d180" x="658.833387" y="255.478529" style="fill: #8b0000; stroke: #8b0000"/>
     <use xlink:href="#m7cf719d180" x="705.729633" y="278.607935" style="fill: #8b0000; stroke: #8b0000"/>
     <use xlink:href="#m7cf719d180" x="752.62588" y="233.263981" style="fill: #8b0000; stroke: #8b0000"/>
     <use xlink:href="#m7cf719d180" x="798.502643" y="216.317631" style="fill: #8b0000; stroke: #8b0000"/>
     <use xlink:href="#m7cf719d180" x="891.785394" y="311.037812" style="fill: #8b0000; stroke: #8b0000"/>
     <use xlink:href="#m7cf719d180" x="927.46732" y="323.163273" style="fill: #8b0000; stroke: #8b0000"/>
     <use xlink:href="#m7cf719d180" x="954.483636" y="321.570067" style="fill: #8b0000; stroke: #8b0000"/>
    </g>
   </g>
   <g id="line2d_24">
    <path d="M 57.44 278.034406 
L 997.2 278.034406 
" clip-path="url(#p21e19fa2c1)" style="fill: none; stroke-dasharray: 5.55,2.4; stroke-dashoffset: 0; stroke: #ffa500; stroke-opacity: 0.7; stroke-width: 1.5"/>
   </g>
   <g id="line2d_25">
    <path d="M 57.44 329.652072 
L 997.2 329.652072 
" clip-path="url(#p21e19fa2c1)" style="fill: none; stroke-dasharray: 5.55,2.4; stroke-dashoffset: 0; stroke: #008000; stroke-opacity: 0.7; stroke-width: 1.5"/>
   </g>
   <g id="patch_3">
    <path d="M 57.44 336.744 
L 57.44 37.968 
" style="fill: none; stroke: #000000; stroke-width: 0.8; stroke-linejoin: miter; stroke-linecap: square"/>
   </g>
   <g id="patch_4">
    <path d="M 997.2 336.744 
L 997.2 37.968 
" style="fill: none; stroke: #000000; stroke-width: 0.8; stroke-linejoin: miter; stroke-linecap: square"/>
   </g>
   <g id="patch_5">
    <path d="M 57.44 336.744 
L 997.2 336.744 
" style="fill: none; stroke: #000000; stroke-width: 0.8; stroke-linejoin: miter; stroke-linecap: square"/>
   </g>
   <g id="patch_6">
    <path d="M 57.44 37.968 
L 997.2 37.968 
" style="fill: none; stroke: #000000; stroke-width: 0.8; stroke-linejoin: miter; stroke-linecap: square"/>
   </g>
   <g id="text_13">
    <!-- ASN Concentration (HHI) in Nakamoto-30 Set -->
    <g transform="translate(374.343438 18.530625) scale(0.12 -0.12)">
     <defs>
      <path id="DejaVuSans-Bold-41" d="M 3419 850 
L 1538 850 
L 1241 0 
L 31 0 
L 1759 4666 
L 3194 4666 
L 4922 0 
L 3713 0 
L 3419 850 
z
M 1838 1716 
L 3116 1716 
L 2478 3572 
L 1838 1716 
z
" transform="scale(0.015625)"/>
      <path id="DejaVuSans-Bold-53" d="M 3834 4519 
L 3834 3531 
Q 3450 3703 3084 3790 
Q 2719 3878 2394 3878 
Q 1963 3878 1756 3759 
Q 1550 3641 1550 3391 
Q 1550 3203 1689 3098 
Q 1828 2994 2194 2919 
L 2706 2816 
Q 3484 2659 3812 2340 
Q 4141 2022 4141 1434 
Q 4141 663 3683 286 
Q 3225 -91 2284 -91 
Q 1841 -91 1394 -6 
Q 947 78 500 244 
L 500 1259 
Q 947 1022 1364 901 
Q 1781 781 2169 781 
Q 2563 781 2772 912 
Q 2981 1044 2981 1288 
Q 2981 1506 2839 1625 
Q 2697 1744 2272 1838 
L 1806 1941 
Q 1106 2091 782 2419 
Q 459 2747 459 3303 
Q 459 4000 909 4375 
Q 1359 4750 2203 4750 
Q 2588 4750 2994 4692 
Q 3400 4634 3834 4519 
z
" transform="scale(0.015625)"/>
      <path id="DejaVuSans-Bold-4e" d="M 588 4666 
L 1931 4666 
L 3628 1466 
L 3628 4666 
L 4769 4666 
L 4769 0 
L 3425 0 
L 1728 3200 
L 1728 0 
L 588 0 
L 588 4666 
z
" transform="scale(0.015625)"/>
      <path id="DejaVuSans-Bold-20" transform="scale(0.015625)"/>
      <path id="DejaVuSans-Bold-43" d="M 4288 256 
Q 3956 84 3597 -3 
Q 3238 -91 2847 -91 
Q 1681 -91 1000 561 
Q 319 1213 319 2328 
Q 319 3447 1000 4098 
Q 1681 4750 2847 4750 
Q 3238 4750 3597 4662 
Q 3956 4575 4288 4403 
L 4288 3438 
Q 3953 3666 3628 3772 
Q 3303 3878 2944 3878 
Q 2300 3878 1931 3465 
Q 1563 3053 1563 2328 
Q 1563 1606 1931 1193 
Q 2300 781 2944 781 
Q 3303 781 3628 887 
Q 3953 994 4288 1222 
L 4288 256 
z
" transform="scale(0.015625)"/>
      <path id="DejaVuSans-Bold-6f" d="M 2203 2784 
Q 1831 2784 1636 2517 
Q 1441 2250 1441 1747 
Q 1441 1244 1636 976 
Q 1831 709 2203 709 
Q 2569 709 2762 976 
Q 2956 1244 2956 1747 
Q 2956 2250 2762 2517 
Q 2569 2784 2203 2784 
z
M 2203 3584 
Q 3106 3584 3614 3096 
Q 4122 2609 4122 1747 
Q 4122 884 3614 396 
Q 3106 -91 2203 -91 
Q 1297 -91 786 396 
Q 275 884 275 1747 
Q 275 2609 786 3096 
Q 1297 3584 2203 3584 
z
" transform="scale(0.015625)"/>
      <path id="DejaVuSans-Bold-6e" d="M 4056 2131 
L 4056 0 
L 2931 0 
L 2931 347 
L 2931 1631 
Q 2931 2084 2911 2256 
Q 2891 2428 2841 2509 
Q 2775 2619 2662 2680 
Q 2550 2741 2406 2741 
Q 2056 2741 1856 2470 
Q 1656 2200 1656 1722 
L 1656 0 
L 538 0 
L 538 3500 
L 1656 3500 
L 1656 2988 
Q 1909 3294 2193 3439 
Q 2478 3584 2822 3584 
Q 3428 3584 3742 3212 
Q 4056 2841 4056 2131 
z
" transform="scale(0.015625)"/>
      <path id="DejaVuSans-Bold-63" d="M 3366 3391 
L 3366 2478 
Q 3138 2634 2908 2709 
Q 2678 2784 2431 2784 
Q 1963 2784 1702 2511 
Q 1441 2238 1441 1747 
Q 1441 1256 1702 982 
Q 1963 709 2431 709 
Q 2694 709 2930 787 
Q 3166 866 3366 1019 
L 3366 103 
Q 3103 6 2833 -42 
Q 2563 -91 2291 -91 
Q 1344 -91 809 395 
Q 275 881 275 1747 
Q 275 2613 809 3098 
Q 1344 3584 2291 3584 
Q 2566 3584 2833 3536 
Q 3100 3488 3366 3391 
z
" transform="scale(0.015625)"/>
      <path id="DejaVuSans-Bold-65" d="M 4031 1759 
L 4031 1441 
L 1416 1441 
Q 1456 1047 1700 850 
Q 1944 653 2381 653 
Q 2734 653 3104 758 
Q 3475 863 3866 1075 
L 3866 213 
Q 3469 63 3072 -14 
Q 2675 -91 2278 -91 
Q 1328 -91 801 392 
Q 275 875 275 1747 
Q 275 2603 792 3093 
Q 1309 3584 2216 3584 
Q 3041 3584 3536 3087 
Q 4031 2591 4031 1759 
z
M 2881 2131 
Q 2881 2450 2695 2645 
Q 2509 2841 2209 2841 
Q 1884 2841 1681 2658 
Q 1478 2475 1428 2131 
L 2881 2131 
z
" transform="scale(0.015625)"/>
      <path id="DejaVuSans-Bold-74" d="M 1759 4494 
L 1759 3500 
L 2913 3500 
L 2913 2700 
L 1759 2700 
L 1759 1216 
Q 1759 972 1856 886 
Q 1953 800 2241 800 
L 2816 800 
L 2816 0 
L 1856 0 
Q 1194 0 917 276 
Q 641 553 641 1216 
L 641 2700 
L 84 2700 
L 84 3500 
L 641 3500 
L 641 4494 
L 1759 4494 
z
" transform="scale(0.015625)"/>
      <path id="DejaVuSans-Bold-72" d="M 3138 2547 
Q 2991 2616 2845 2648 
Q 2700 2681 2553 2681 
Q 2122 2681 1889 2404 
Q 1656 2128 1656 1613 
L 1656 0 
L 538 0 
L 538 3500 
L 1656 3500 
L 1656 2925 
Q 1872 3269 2151 3426 
Q 2431 3584 2822 3584 
Q 2878 3584 2943 3579 
Q 3009 3575 3134 3559 
L 3138 2547 
z
" transform="scale(0.015625)"/>
      <path id="DejaVuSans-Bold-61" d="M 2106 1575 
Q 1756 1575 1579 1456 
Q 1403 1338 1403 1106 
Q 1403 894 1545 773 
Q 1688 653 1941 653 
Q 2256 653 2472 879 
Q 2688 1106 2688 1447 
L 2688 1575 
L 2106 1575 
z
M 3816 1997 
L 3816 0 
L 2688 0 
L 2688 519 
Q 2463 200 2181 54 
Q 1900 -91 1497 -91 
Q 953 -91 614 226 
Q 275 544 275 1050 
Q 275 1666 698 1953 
Q 1122 2241 2028 2241 
L 2688 2241 
L 2688 2328 
Q 2688 2594 2478 2717 
Q 2269 2841 1825 2841 
Q 1466 2841 1156 2769 
Q 847 2697 581 2553 
L 581 3406 
Q 941 3494 1303 3539 
Q 1666 3584 2028 3584 
Q 2975 3584 3395 3211 
Q 3816 2838 3816 1997 
z
" transform="scale(0.015625)"/>
      <path id="DejaVuSans-Bold-69" d="M 538 3500 
L 1656 3500 
L 1656 0 
L 538 0 
L 538 3500 
z
M 538 4863 
L 1656 4863 
L 1656 3950 
L 538 3950 
L 538 4863 
z
" transform="scale(0.015625)"/>
      <path id="DejaVuSans-Bold-28" d="M 2413 -844 
L 1484 -844 
Q 1006 -72 778 623 
Q 550 1319 550 2003 
Q 550 2688 779 3389 
Q 1009 4091 1484 4856 
L 2413 4856 
Q 2013 4116 1813 3408 
Q 1613 2700 1613 2009 
Q 1613 1319 1811 609 
Q 2009 -100 2413 -844 
z
" transform="scale(0.015625)"/>
      <path id="DejaVuSans-Bold-48" d="M 588 4666 
L 1791 4666 
L 1791 2888 
L 3566 2888 
L 3566 4666 
L 4769 4666 
L 4769 0 
L 3566 0 
L 3566 1978 
L 1791 1978 
L 1791 0 
L 588 0 
L 588 4666 
z
" transform="scale(0.015625)"/>
      <path id="DejaVuSans-Bold-49" d="M 588 4666 
L 1791 4666 
L 1791 0 
L 588 0 
L 588 4666 
z
" transform="scale(0.015625)"/>
      <path id="DejaVuSans-Bold-29" d="M 513 -844 
Q 913 -100 1113 609 
Q 1313 1319 1313 2009 
Q 1313 2700 1113 3408 
Q 913 4116 513 4856 
L 1441 4856 
Q 1916 4091 2145 3389 
Q 2375 2688 2375 2003 
Q 2375 1319 2147 623 
Q 1919 -72 1441 -844 
L 513 -844 
z
" transform="scale(0.015625)"/>
      <path id="DejaVuSans-Bold-6b" d="M 538 4863 
L 1656 4863 
L 1656 2216 
L 2944 3500 
L 4244 3500 
L 2534 1894 
L 4378 0 
L 3022 0 
L 1656 1459 
L 1656 0 
L 538 0 
L 538 4863 
z
" transform="scale(0.015625)"/>
      <path id="DejaVuSans-Bold-6d" d="M 3781 2919 
Q 3994 3244 4286 3414 
Q 4578 3584 4928 3584 
Q 5531 3584 5847 3212 
Q 6163 2841 6163 2131 
L 6163 0 
L 5038 0 
L 5038 1825 
Q 5041 1866 5042 1909 
Q 5044 1953 5044 2034 
Q 5044 2406 4934 2573 
Q 4825 2741 4581 2741 
Q 4263 2741 4089 2478 
Q 3916 2216 3909 1719 
L 3909 0 
L 2784 0 
L 2784 1825 
Q 2784 2406 2684 2573 
Q 2584 2741 2328 2741 
Q 2006 2741 1831 2477 
Q 1656 2213 1656 1722 
L 1656 0 
L 531 0 
L 531 3500 
L 1656 3500 
L 1656 2988 
Q 1863 3284 2130 3434 
Q 2397 3584 2719 3584 
Q 3081 3584 3359 3409 
Q 3638 3234 3781 2919 
z
" transform="scale(0.015625)"/>
      <path id="DejaVuSans-Bold-2d" d="M 347 2297 
L 2309 2297 
L 2309 1388 
L 347 1388 
L 347 2297 
z
" transform="scale(0.015625)"/>
      <path id="DejaVuSans-Bold-33" d="M 2981 2516 
Q 3453 2394 3698 2092 
Q 3944 1791 3944 1325 
Q 3944 631 3412 270 
Q 2881 -91 1863 -91 
Q 1503 -91 1142 -33 
Q 781 25 428 141 
L 428 1069 
Q 766 900 1098 814 
Q 1431 728 1753 728 
Q 2231 728 2486 893 
Q 2741 1059 2741 1369 
Q 2741 1688 2480 1852 
Q 2219 2016 1709 2016 
L 1228 2016 
L 1228 2791 
L 1734 2791 
Q 2188 2791 2409 2933 
Q 2631 3075 2631 3366 
Q 2631 3634 2415 3781 
Q 2200 3928 1806 3928 
Q 1516 3928 1219 3862 
Q 922 3797 628 3669 
L 628 4550 
Q 984 4650 1334 4700 
Q 1684 4750 2022 4750 
Q 2931 4750 3382 4451 
Q 3834 4153 3834 3553 
Q 3834 3144 3618 2883 
Q 3403 2622 2981 2516 
z
" transform="scale(0.015625)"/>
      <path id="DejaVuSans-Bold-30" d="M 2944 2338 
Q 2944 3213 2780 3570 
Q 2616 3928 2228 3928 
Q 1841 3928 1675 3570 
Q 1509 3213 1509 2338 
Q 1509 1453 1675 1090 
Q 1841 728 2228 728 
Q 2613 728 2778 1090 
Q 2944 1453 2944 2338 
z
M 4147 2328 
Q 4147 1169 3647 539 
Q 3147 -91 2228 -91 
Q 1306 -91 806 539 
Q 306 1169 306 2328 
Q 306 3491 806 4120 
Q 1306 4750 2228 4750 
Q 3147 4750 3647 4120 
Q 4147 3491 4147 2328 
z
" transform="scale(0.015625)"/>
     </defs>
     <use xlink:href="#DejaVuSans-Bold-41"/>
     <use xlink:href="#DejaVuSans-Bold-53" transform="translate(77.392578 0)"/>
     <use xlink:href="#DejaVuSans-Bold-4e" transform="translate(149.414062 0)"/>
     <use xlink:href="#DejaVuSans-Bold-20" transform="translate(233.105469 0)"/>
     <use xlink:href="#DejaVuSans-Bold-43" transform="translate(267.919922 0)"/>
     <use xlink:href="#DejaVuSans-Bold-6f" transform="translate(341.308594 0)"/>
     <use xlink:href="#DejaVuSans-Bold-6e" transform="translate(410.009766 0)"/>
     <use xlink:href="#DejaVuSans-Bold-63" transform="translate(481.201172 0)"/>
     <use xlink:href="#DejaVuSans-Bold-65" transform="translate(540.478516 0)"/>
     <use xlink:href="#DejaVuSans-Bold-6e" transform="translate(608.300781 0)"/>
     <use xlink:href="#DejaVuSans-Bold-74" transform="translate(679.492188 0)"/>
     <use xlink:href="#DejaVuSans-Bold-72" transform="translate(727.294922 0)"/>
     <use xlink:href="#DejaVuSans-Bold-61" transform="translate(776.611328 0)"/>
     <use xlink:href="#DejaVuSans-Bold-74" transform="translate(844.091797 0)"/>
     <use xlink:href="#DejaVuSans-Bold-69" transform="translate(891.894531 0)"/>
     <use xlink:href="#DejaVuSans-Bold-6f" transform="translate(926.171875 0)"/>
     <use xlink:href="#DejaVuSans-Bold-6e" transform="translate(994.873047 0)"/>
     <use xlink:href="#DejaVuSans-Bold-20" transform="translate(1066.064453 0)"/>
     <use xlink:href="#DejaVuSans-Bold-28" transform="translate(1100.878906 0)"/>
     <use xlink:href="#DejaVuSans-Bold-48" transform="translate(1146.582031 0)"/>
     <use xlink:href="#DejaVuSans-Bold-48" transform="translate(1230.273438 0)"/>
     <use xlink:href="#DejaVuSans-Bold-49" transform="translate(1313.964844 0)"/>
     <use xlink:href="#DejaVuSans-Bold-29" transform="translate(1351.171875 0)"/>
     <use xlink:href="#DejaVuSans-Bold-20" transform="translate(1396.875 0)"/>
     <use xlink:href="#DejaVuSans-Bold-69" transform="translate(1431.689453 0)"/>
     <use xlink:href="#DejaVuSans-Bold-6e" transform="translate(1465.966797 0)"/>
     <use xlink:href="#DejaVuSans-Bold-20" transform="translate(1537.158203 0)"/>
     <use xlink:href="#DejaVuSans-Bold-4e" transform="translate(1571.972656 0)"/>
     <use xlink:href="#DejaVuSans-Bold-61" transform="translate(1655.664062 0)"/>
     <use xlink:href="#DejaVuSans-Bold-6b" transform="translate(1723.144531 0)"/>
     <use xlink:href="#DejaVuSans-Bold-61" transform="translate(1789.648438 0)"/>
     <use xlink:href="#DejaVuSans-Bold-6d" transform="translate(1857.128906 0)"/>
     <use xlink:href="#DejaVuSans-Bold-6f" transform="translate(1961.328125 0)"/>
     <use xlink:href="#DejaVuSans-Bold-74" transform="translate(2030.029297 0)"/>
     <use xlink:href="#DejaVuSans-Bold-6f" transform="translate(2077.832031 0)"/>
     <use xlink:href="#DejaVuSans-Bold-2d" transform="translate(2146.533203 0)"/>
     <use xlink:href="#DejaVuSans-Bold-33" transform="translate(2188.037109 0)"/>
     <use xlink:href="#DejaVuSans-Bold-30" transform="translate(2257.617188 0)"/>
     <use xlink:href="#DejaVuSans-Bold-20" transform="translate(2327.197266 0)"/>
     <use xlink:href="#DejaVuSans-Bold-53" transform="translate(2362.011719 0)"/>
     <use xlink:href="#DejaVuSans-Bold-65" transform="translate(2434.033203 0)"/>
     <use xlink:href="#DejaVuSans-Bold-74" transform="translate(2501.855469 0)"/>
    </g>
    <!-- (Higher = more concentrated) -->
    <g transform="translate(425.510313 31.968) scale(0.12 -0.12)">
     <defs>
      <path id="DejaVuSans-Bold-67" d="M 2919 594 
Q 2688 288 2409 144 
Q 2131 0 1766 0 
Q 1125 0 706 504 
Q 288 1009 288 1791 
Q 288 2575 706 3076 
Q 1125 3578 1766 3578 
Q 2131 3578 2409 3434 
Q 2688 3291 2919 2981 
L 2919 3500 
L 4044 3500 
L 4044 353 
Q 4044 -491 3511 -936 
Q 2978 -1381 1966 -1381 
Q 1638 -1381 1331 -1331 
Q 1025 -1281 716 -1178 
L 716 -306 
Q 1009 -475 1290 -558 
Q 1572 -641 1856 -641 
Q 2406 -641 2662 -400 
Q 2919 -159 2919 353 
L 2919 594 
z
M 2181 2772 
Q 1834 2772 1640 2515 
Q 1447 2259 1447 1791 
Q 1447 1309 1634 1061 
Q 1822 813 2181 813 
Q 2531 813 2725 1069 
Q 2919 1325 2919 1791 
Q 2919 2259 2725 2515 
Q 2531 2772 2181 2772 
z
" transform="scale(0.015625)"/>
      <path id="DejaVuSans-Bold-68" d="M 4056 2131 
L 4056 0 
L 2931 0 
L 2931 347 
L 2931 1625 
Q 2931 2084 2911 2256 
Q 2891 2428 2841 2509 
Q 2775 2619 2662 2680 
Q 2550 2741 2406 2741 
Q 2056 2741 1856 2470 
Q 1656 2200 1656 1722 
L 1656 0 
L 538 0 
L 538 4863 
L 1656 4863 
L 1656 2988 
Q 1909 3294 2193 3439 
Q 2478 3584 2822 3584 
Q 3428 3584 3742 3212 
Q 4056 2841 4056 2131 
z
" transform="scale(0.015625)"/>
      <path id="DejaVuSans-Bold-3d" d="M 678 3084 
L 4684 3084 
L 4684 2350 
L 678 2350 
L 678 3084 
z
M 678 1663 
L 4684 1663 
L 4684 922 
L 678 922 
L 678 1663 
z
" transform="scale(0.015625)"/>
      <path id="DejaVuSans-Bold-64" d="M 2919 2988 
L 2919 4863 
L 4044 4863 
L 4044 0 
L 2919 0 
L 2919 506 
Q 2688 197 2409 53 
Q 2131 -91 1766 -91 
Q 1119 -91 703 423 
Q 288 938 288 1747 
Q 288 2556 703 3070 
Q 1119 3584 1766 3584 
Q 2128 3584 2408 3439 
Q 2688 3294 2919 2988 
z
M 2181 722 
Q 2541 722 2730 984 
Q 2919 1247 2919 1747 
Q 2919 2247 2730 2509 
Q 2541 2772 2181 2772 
Q 1825 2772 1636 2509 
Q 1447 2247 1447 1747 
Q 1447 1247 1636 984 
Q 1825 722 2181 722 
z
" transform="scale(0.015625)"/>
     </defs>
     <use xlink:href="#DejaVuSans-Bold-28"/>
     <use xlink:href="#DejaVuSans-Bold-48" transform="translate(45.703125 0)"/>
     <use xlink:href="#DejaVuSans-Bold-69" transform="translate(129.394531 0)"/>
     <use xlink:href="#DejaVuSans-Bold-67" transform="translate(163.671875 0)"/>
     <use xlink:href="#DejaVuSans-Bold-68" transform="translate(235.253906 0)"/>
     <use xlink:href="#DejaVuSans-Bold-65" transform="translate(306.445312 0)"/>
     <use xlink:href="#DejaVuSans-Bold-72" transform="translate(374.267578 0)"/>
     <use xlink:href="#DejaVuSans-Bold-20" transform="translate(423.583984 0)"/>
     <use xlink:href="#DejaVuSans-Bold-3d" transform="translate(458.398438 0)"/>
     <use xlink:href="#DejaVuSans-Bold-20" transform="translate(542.1875 0)"/>
     <use xlink:href="#DejaVuSans-Bold-6d" transform="translate(577.001953 0)"/>
     <use xlink:href="#DejaVuSans-Bold-6f" transform="translate(681.201172 0)"/>
     <use xlink:href="#DejaVuSans-Bold-72" transform="translate(749.902344 0)"/>
     <use xlink:href="#DejaVuSans-Bold-65" transform="translate(799.21875 0)"/>
     <use xlink:href="#DejaVuSans-Bold-20" transform="translate(867.041016 0)"/>
     <use xlink:href="#DejaVuSans-Bold-63" transform="translate(901.855469 0)"/>
     <use xlink:href="#DejaVuSans-Bold-6f" transform="translate(961.132812 0)"/>
     <use xlink:href="#DejaVuSans-Bold-6e" transform="translate(1029.833984 0)"/>
     <use xlink:href="#DejaVuSans-Bold-63" transform="translate(1101.025391 0)"/>
     <use xlink:href="#DejaVuSans-Bold-65" transform="translate(1160.302734 0)"/>
     <use xlink:href="#DejaVuSans-Bold-6e" transform="translate(1228.125 0)"/>
     <use xlink:href="#DejaVuSans-Bold-74" transform="translate(1299.316406 0)"/>
     <use xlink:href="#DejaVuSans-Bold-72" transform="translate(1347.119141 0)"/>
     <use xlink:href="#DejaVuSans-Bold-61" transform="translate(1396.435547 0)"/>
     <use xlink:href="#DejaVuSans-Bold-74" transform="translate(1463.916016 0)"/>
     <use xlink:href="#DejaVuSans-Bold-65" transform="translate(1511.71875 0)"/>
     <use xlink:href="#DejaVuSans-Bold-64" transform="translate(1579.541016 0)"/>
     <use xlink:href="#DejaVuSans-Bold-29" transform="translate(1651.123047 0)"/>
    </g>
   </g>
   <g id="legend_1">
    <g id="patch_7">
     <path d="M 795.807813 75.32425 
L 990.2 75.32425 
Q 992.2 75.32425 992.2 73.32425 
L 992.2 44.968 
Q 992.2 42.968 990.2 42.968 
L 795.807813 42.968 
Q 793.807813 42.968 793.807813 44.968 
L 793.807813 73.32425 
Q 793.807813 75.32425 795.807813 75.32425 
z
" style="fill: #ffffff; opacity: 0.8; stroke: #cccccc; stroke-linejoin: miter"/>
    </g>
    <g id="line2d_26">
     <path d="M 797.807813 51.066438 
L 807.807813 51.066438 
L 817.807813 51.066438 
" style="fill: none; stroke-dasharray: 5.55,2.4; stroke-dashoffset: 0; stroke: #ffa500; stroke-opacity: 0.7; stroke-width: 1.5"/>
    </g>
    <g id="text_14">
     <!-- Moderately concentrated (2500) -->
     <g transform="translate(825.807813 54.566438) scale(0.1 -0.1)">
      <defs>
       <path id="DejaVuSans-4d" d="M 628 4666 
L 1569 4666 
L 2759 1491 
L 3956 4666 
L 4897 4666 
L 4897 0 
L 4281 0 
L 4281 4097 
L 3078 897 
L 2444 897 
L 1241 4097 
L 1241 0 
L 628 0 
L 628 4666 
z
" transform="scale(0.015625)"/>
       <path id="DejaVuSans-6f" d="M 1959 3097 
Q 1497 3097 1228 2736 
Q 959 2375 959 1747 
Q 959 1119 1226 758 
Q 1494 397 1959 397 
Q 2419 397 2687 759 
Q 2956 1122 2956 1747 
Q 2956 2369 2687 2733 
Q 2419 3097 1959 3097 
z
M 1959 3584 
Q 2709 3584 3137 3096 
Q 3566 2609 3566 1747 
Q 3566 888 3137 398 
Q 2709 -91 1959 -91 
Q 1206 -91 779 398 
Q 353 888 353 1747 
Q 353 2609 779 3096 
Q 1206 3584 1959 3584 
z
" transform="scale(0.015625)"/>
       <path id="DejaVuSans-72" d="M 2631 2963 
Q 2534 3019 2420 3045 
Q 2306 3072 2169 3072 
Q 1681 3072 1420 2755 
Q 1159 2438 1159 1844 
L 1159 0 
L 581 0 
L 581 3500 
L 1159 3500 
L 1159 2956 
Q 1341 3275 1631 3429 
Q 1922 3584 2338 3584 
Q 2397 3584 2469 3576 
Q 2541 3569 2628 3553 
L 2631 2963 
z
" transform="scale(0.015625)"/>
       <path id="DejaVuSans-61" d="M 2194 1759 
Q 1497 1759 1228 1600 
Q 959 1441 959 1056 
Q 959 750 1161 570 
Q 1363 391 1709 391 
Q 2188 391 2477 730 
Q 2766 1069 2766 1631 
L 2766 1759 
L 2194 1759 
z
M 3341 1997 
L 3341 0 
L 2766 0 
L 2766 531 
Q 2569 213 2275 61 
Q 1981 -91 1556 -91 
Q 1019 -91 701 211 
Q 384 513 384 1019 
Q 384 1609 779 1909 
Q 1175 2209 1959 2209 
L 2766 2209 
L 2766 2266 
Q 2766 2663 2505 2880 
Q 2244 3097 1772 3097 
Q 1472 3097 1187 3025 
Q 903 2953 641 2809 
L 641 3341 
Q 956 3463 1253 3523 
Q 1550 3584 1831 3584 
Q 2591 3584 2966 3190 
Q 3341 2797 3341 1997 
z
" transform="scale(0.015625)"/>
       <path id="DejaVuSans-74" d="M 1172 4494 
L 1172 3500 
L 2356 3500 
L 2356 3053 
L 1172 3053 
L 1172 1153 
Q 1172 725 1289 603 
Q 1406 481 1766 481 
L 2356 481 
L 2356 0 
L 1766 0 
Q 1100 0 847 248 
Q 594 497 594 1153 
L 594 3053 
L 172 3053 
L 172 3500 
L 594 3500 
L 594 4494 
L 1172 4494 
z
" transform="scale(0.015625)"/>
       <path id="DejaVuSans-6c" d="M 603 4863 
L 1178 4863 
L 1178 0 
L 603 0 
L 603 4863 
z
" transform="scale(0.015625)"/>
       <path id="DejaVuSans-79" d="M 2059 -325 
Q 1816 -950 1584 -1140 
Q 1353 -1331 966 -1331 
L 506 -1331 
L 506 -850 
L 844 -850 
Q 1081 -850 1212 -737 
Q 1344 -625 1503 -206 
L 1606 56 
L 191 3500 
L 800 3500 
L 1894 763 
L 2988 3500 
L 3597 3500 
L 2059 -325 
z
" transform="scale(0.015625)"/>
       <path id="DejaVuSans-63" d="M 3122 3366 
L 3122 2828 
Q 2878 2963 2633 3030 
Q 2388 3097 2138 3097 
Q 1578 3097 1268 2742 
Q 959 2388 959 1747 
Q 959 1106 1268 751 
Q 1578 397 2138 397 
Q 2388 397 2633 464 
Q 2878 531 3122 666 
L 3122 134 
Q 2881 22 2623 -34 
Q 2366 -91 2075 -91 
Q 1284 -91 818 406 
Q 353 903 353 1747 
Q 353 2603 823 3093 
Q 1294 3584 2113 3584 
Q 2378 3584 2631 3529 
Q 2884 3475 3122 3366 
z
" transform="scale(0.015625)"/>
       <path id="DejaVuSans-28" d="M 1984 4856 
Q 1566 4138 1362 3434 
Q 1159 2731 1159 2009 
Q 1159 1288 1364 580 
Q 1569 -128 1984 -844 
L 1484 -844 
Q 1016 -109 783 600 
Q 550 1309 550 2009 
Q 550 2706 781 3412 
Q 1013 4119 1484 4856 
L 1984 4856 
z
" transform="scale(0.015625)"/>
       <path id="DejaVuSans-29" d="M 513 4856 
L 1013 4856 
Q 1481 4119 1714 3412 
Q 1947 2706 1947 2009 
Q 1947 1309 1714 600 
Q 1481 -109 1013 -844 
L 513 -844 
Q 928 -128 1133 580 
Q 1338 1288 1338 2009 
Q 1338 2731 1133 3434 
Q 928 4138 513 4856 
z
" transform="scale(0.015625)"/>
      </defs>
      <use xlink:href="#DejaVuSans-4d"/>
      <use xlink:href="#DejaVuSans-6f" transform="translate(86.279297 0)"/>
      <use xlink:href="#DejaVuSans-64" transform="translate(147.460938 0)"/>
      <use xlink:href="#DejaVuSans-65" transform="translate(210.9375 0)"/>
      <use xlink:href="#DejaVuSans-72" transform="translate(272.460938 0)"/>
      <use xlink:href="#DejaVuSans-61" transform="translate(313.574219 0)"/>
      <use xlink:href="#DejaVuSans-74" transform="translate(374.853516 0)"/>
      <use xlink:href="#DejaVuSans-65" transform="translate(414.0625 0)"/>
      <use xlink:href="#DejaVuSans-6c" transform="translate(475.585938 0)"/>
      <use xlink:href="#DejaVuSans-79" transform="translate(503.369141 0)"/>
      <use xlink:href="#DejaVuSans-20" transform="translate(562.548828 0)"/>
      <use xlink:href="#DejaVuSans-63" transform="translate(594.335938 0)"/>
      <use xlink:href="#DejaVuSans-6f" transform="translate(649.316406 0)"/>
      <use xlink:href="#DejaVuSans-6e" transform="translate(710.498047 0)"/>
      <use xlink:href="#DejaVuSans-63" transform="translate(773.876953 0)"/>
      <use xlink:href="#DejaVuSans-65" transform="translate(828.857422 0)"/>
      <use xlink:href="#DejaVuSans-6e" transform="translate(890.380859 0)"/>
      <use xlink:href="#DejaVuSans-74" transform="translate(953.759766 0)"/>
      <use xlink:href="#DejaVuSans-72" transform="translate(992.96875 0)"/>
      <use xlink:href="#DejaVuSans-61" transform="translate(1034.082031 0)"/>
      <use xlink:href="#DejaVuSans-74" transform="translate(1095.361328 0)"/>
      <use xlink:href="#DejaVuSans-65" transform="translate(1134.570312 0)"/>
      <use xlink:href="#DejaVuSans-64" transform="translate(1196.09375 0)"/>
      <use xlink:href="#DejaVuSans-20" transform="translate(1259.570312 0)"/>
      <use xlink:href="#DejaVuSans-28" transform="translate(1291.357422 0)"/>
      <use xlink:href="#DejaVuSans-32" transform="translate(1330.371094 0)"/>
      <use xlink:href="#DejaVuSans-35" transform="translate(1393.994141 0)"/>
      <use xlink:href="#DejaVuSans-30" transform="translate(1457.617188 0)"/>
      <use xlink:href="#DejaVuSans-30" transform="translate(1521.240234 0)"/>
      <use xlink:href="#DejaVuSans-29" transform="translate(1584.863281 0)"/>
     </g>
    </g>
    <g id="line2d_27">
     <path d="M 797.807813 65.744563 
L 807.807813 65.744563 
L 817.807813 65.744563 
" style="fill: none; stroke-dasharray: 5.55,2.4; stroke-dashoffset: 0; stroke: #008000; stroke-opacity: 0.7; stroke-width: 1.5"/>
    </g>
    <g id="text_15">
     <!-- Unconcentrated (&lt;1500) -->
     <g transform="translate(825.807813 69.244563) scale(0.1 -0.1)">
      <defs>
       <path id="DejaVuSans-55" d="M 556 4666 
L 1191 4666 
L 1191 1831 
Q 1191 1081 1462 751 
Q 1734 422 2344 422 
Q 2950 422 3222 751 
Q 3494 1081 3494 1831 
L 3494 4666 
L 4128 4666 
L 4128 1753 
Q 4128 841 3676 375 
Q 3225 -91 2344 -91 
Q 1459 -91 1007 375 
Q 556 841 556 1753 
L 556 4666 
z
" transform="scale(0.015625)"/>
       <path id="DejaVuSans-3c" d="M 4684 3150 
L 1459 2003 
L 4684 863 
L 4684 294 
L 678 1747 
L 678 2266 
L 4684 3719 
L 4684 3150 
z
" transform="scale(0.015625)"/>
       <path id="DejaVuSans-31" d="M 794 531 
L 1825 531 
L 1825 4091 
L 703 3866 
L 703 4441 
L 1819 4666 
L 2450 4666 
L 2450 531 
L 3481 531 
L 3481 0 
L 794 0 
L 794 531 
z
" transform="scale(0.015625)"/>
      </defs>
      <use xlink:href="#DejaVuSans-55"/>
      <use xlink:href="#DejaVuSans-6e" transform="translate(73.193359 0)"/>
      <use xlink:href="#DejaVuSans-63" transform="translate(136.572266 0)"/>
      <use xlink:href="#DejaVuSans-6f" transform="translate(191.552734 0)"/>
      <use xlink:href="#DejaVuSans-6e" transform="translate(252.734375 0)"/>
      <use xlink:href="#DejaVuSans-63" transform="translate(316.113281 0)"/>
      <use xlink:href="#DejaVuSans-65" transform="translate(371.09375 0)"/>
      <use xlink:href="#DejaVuSans-6e" transform="translate(432.617188 0)"/>
      <use xlink:href="#DejaVuSans-74" transform="translate(495.996094 0)"/>
      <use xlink:href="#DejaVuSans-72" transform="translate(535.205078 0)"/>
      <use xlink:href="#DejaVuSans-61" transform="translate(576.318359 0)"/>
      <use xlink:href="#DejaVuSans-74" transform="translate(637.597656 0)"/>
      <use xlink:href="#DejaVuSans-65" transform="translate(676.806641 0)"/>
      <use xlink:href="#DejaVuSans-64" transform="translate(738.330078 0)"/>
      <use xlink:href="#DejaVuSans-20" transform="translate(801.806641 0)"/>
      <use xlink:href="#DejaVuSans-28" transform="translate(833.59375 0)"/>
      <use xlink:href="#DejaVuSans-3c" transform="translate(872.607422 0)"/>
      <use xlink:href="#DejaVuSans-31" transform="translate(956.396484 0)"/>
      <use xlink:href="#DejaVuSans-35" transform="translate(1020.019531 0)"/>
      <use xlink:href="#DejaVuSans-30" transform="translate(1083.642578 0)"/>
      <use xlink:href="#DejaVuSans-30" transform="translate(1147.265625 0)"/>
      <use xlink:href="#DejaVuSans-29" transform="translate(1210.888672 0)"/>
     </g>
    </g>
   </g>
  </g>
  <g id="axes_2">
   <g id="patch_8">
    <path d="M 57.44 678.04 
L 997.2 678.04 
L 997.2 379.264 
L 57.44 379.264 
z
" style="fill: #ffffff"/>
   </g>
   <g id="matplotlib.axis_3">
    <g id="xtick_6">
     <g id="line2d_28">
      <path d="M 194.458598 678.04 
L 194.458598 379.264 
" clip-path="url(#p848626538a)" style="fill: none; stroke: #b0b0b0; stroke-opacity: 0.3; stroke-width: 0.8; stroke-linecap: square"/>
     </g>
     <g id="line2d_29">
      <g>
       <use xlink:href="#ma8dab632df" x="194.458598" y="678.04" style="stroke: #000000; stroke-width: 0.8"/>
      </g>
     </g>
     <g id="text_16">
      <!-- 2022 -->
      <g transform="translate(181.733598 692.638438) scale(0.1 -0.1)">
       <use xlink:href="#DejaVuSans-32"/>
       <use xlink:href="#DejaVuSans-30" transform="translate(63.623047 0)"/>
       <use xlink:href="#DejaVuSans-32" transform="translate(127.246094 0)"/>
       <use xlink:href="#DejaVuSans-32" transform="translate(190.869141 0)"/>
      </g>
     </g>
    </g>
    <g id="xtick_7">
     <g id="line2d_30">
      <path d="M 380.514359 678.04 
L 380.514359 379.264 
" clip-path="url(#p848626538a)" style="fill: none; stroke: #b0b0b0; stroke-opacity: 0.3; stroke-width: 0.8; stroke-linecap: square"/>
     </g>
     <g id="line2d_31">
      <g>
       <use xlink:href="#ma8dab632df" x="380.514359" y="678.04" style="stroke: #000000; stroke-width: 0.8"/>
      </g>
     </g>
     <g id="text_17">
      <!-- 2023 -->
      <g transform="translate(367.789359 692.638438) scale(0.1 -0.1)">
       <use xlink:href="#DejaVuSans-32"/>
       <use xlink:href="#DejaVuSans-30" transform="translate(63.623047 0)"/>
       <use xlink:href="#DejaVuSans-32" transform="translate(127.246094 0)"/>
       <use xlink:href="#DejaVuSans-33" transform="translate(190.869141 0)"/>
      </g>
     </g>
    </g>
    <g id="xtick_8">
     <g id="line2d_32">
      <path d="M 566.570119 678.04 
L 566.570119 379.264 
" clip-path="url(#p848626538a)" style="fill: none; stroke: #b0b0b0; stroke-opacity: 0.3; stroke-width: 0.8; stroke-linecap: square"/>
     </g>
     <g id="line2d_33">
      <g>
       <use xlink:href="#ma8dab632df" x="566.570119" y="678.04" style="stroke: #000000; stroke-width: 0.8"/>
      </g>
     </g>
     <g id="text_18">
      <!-- 2024 -->
      <g transform="translate(553.845119 692.638438) scale(0.1 -0.1)">
       <use xlink:href="#DejaVuSans-32"/>
       <use xlink:href="#DejaVuSans-30" transform="translate(63.623047 0)"/>
       <use xlink:href="#DejaVuSans-32" transform="translate(127.246094 0)"/>
       <use xlink:href="#DejaVuSans-34" transform="translate(190.869141 0)"/>
      </g>
     </g>
    </g>
    <g id="xtick_9">
     <g id="line2d_34">
      <path d="M 753.135622 678.04 
L 753.135622 379.264 
" clip-path="url(#p848626538a)" style="fill: none; stroke: #b0b0b0; stroke-opacity: 0.3; stroke-width: 0.8; stroke-linecap: square"/>
     </g>
     <g id="line2d_35">
      <g>
       <use xlink:href="#ma8dab632df" x="753.135622" y="678.04" style="stroke: #000000; stroke-width: 0.8"/>
      </g>
     </g>
     <g id="text_19">
      <!-- 2025 -->
      <g transform="translate(740.410622 692.638438) scale(0.1 -0.1)">
       <use xlink:href="#DejaVuSans-32"/>
       <use xlink:href="#DejaVuSans-30" transform="translate(63.623047 0)"/>
       <use xlink:href="#DejaVuSans-32" transform="translate(127.246094 0)"/>
       <use xlink:href="#DejaVuSans-35" transform="translate(190.869141 0)"/>
      </g>
     </g>
    </g>
    <g id="xtick_10">
     <g id="line2d_36">
      <path d="M 939.191382 678.04 
L 939.191382 379.264 
" clip-path="url(#p848626538a)" style="fill: none; stroke: #b0b0b0; stroke-opacity: 0.3; stroke-width: 0.8; stroke-linecap: square"/>
     </g>
     <g id="line2d_37">
      <g>
       <use xlink:href="#ma8dab632df" x="939.191382" y="678.04" style="stroke: #000000; stroke-width: 0.8"/>
      </g>
     </g>
     <g id="text_20">
      <!-- 2026 -->
      <g transform="translate(926.466382 692.638438) scale(0.1 -0.1)">
       <use xlink:href="#DejaVuSans-32"/>
       <use xlink:href="#DejaVuSans-30" transform="translate(63.623047 0)"/>
       <use xlink:href="#DejaVuSans-32" transform="translate(127.246094 0)"/>
       <use xlink:href="#DejaVuSans-36" transform="translate(190.869141 0)"/>
      </g>
     </g>
    </g>
    <g id="text_21">
     <!-- Date -->
     <g transform="translate(515.369219 706.316563) scale(0.1 -0.1)">
      <defs>
       <path id="DejaVuSans-44" d="M 1259 4147 
L 1259 519 
L 2022 519 
Q 2988 519 3436 956 
Q 3884 1394 3884 2338 
Q 3884 3275 3436 3711 
Q 2988 4147 2022 4147 
L 1259 4147 
z
M 628 4666 
L 1925 4666 
Q 3281 4666 3915 4102 
Q 4550 3538 4550 2338 
Q 4550 1131 3912 565 
Q 3275 0 1925 0 
L 628 0 
L 628 4666 
z
" transform="scale(0.015625)"/>
      </defs>
      <use xlink:href="#DejaVuSans-44"/>
      <use xlink:href="#DejaVuSans-61" transform="translate(77.001953 0)"/>
      <use xlink:href="#DejaVuSans-74" transform="translate(138.28125 0)"/>
      <use xlink:href="#DejaVuSans-65" transform="translate(177.490234 0)"/>
     </g>
    </g>
   </g>
   <g id="matplotlib.axis_4">
    <g id="ytick_7">
     <g id="line2d_38">
      <path d="M 57.44 678.04 
L 997.2 678.04 
" clip-path="url(#p848626538a)" style="fill: none; stroke: #b0b0b0; stroke-opacity: 0.3; stroke-width: 0.8; stroke-linecap: square"/>
     </g>
     <g id="line2d_39">
      <g>
       <use xlink:href="#m135dc2b9a1" x="57.44" y="678.04" style="stroke: #000000; stroke-width: 0.8"/>
      </g>
     </g>
     <g id="text_22">
      <!-- 0 -->
      <g transform="translate(44.0775 681.839219) scale(0.1 -0.1)">
       <use xlink:href="#DejaVuSans-30"/>
      </g>
     </g>
    </g>
    <g id="ytick_8">
     <g id="line2d_40">
      <path d="M 57.44 618.2848 
L 997.2 618.2848 
" clip-path="url(#p848626538a)" style="fill: none; stroke: #b0b0b0; stroke-opacity: 0.3; stroke-width: 0.8; stroke-linecap: square"/>
     </g>
     <g id="line2d_41">
      <g>
       <use xlink:href="#m135dc2b9a1" x="57.44" y="618.2848" style="stroke: #000000; stroke-width: 0.8"/>
      </g>
     </g>
     <g id="text_23">
      <!-- 20 -->
      <g transform="translate(37.715 622.084019) scale(0.1 -0.1)">
       <use xlink:href="#DejaVuSans-32"/>
       <use xlink:href="#DejaVuSans-30" transform="translate(63.623047 0)"/>
      </g>
     </g>
    </g>
    <g id="ytick_9">
     <g id="line2d_42">
      <path d="M 57.44 558.5296 
L 997.2 558.5296 
" clip-path="url(#p848626538a)" style="fill: none; stroke: #b0b0b0; stroke-opacity: 0.3; stroke-width: 0.8; stroke-linecap: square"/>
     </g>
     <g id="line2d_43">
      <g>
       <use xlink:href="#m135dc2b9a1" x="57.44" y="558.5296" style="stroke: #000000; stroke-width: 0.8"/>
      </g>
     </g>
     <g id="text_24">
      <!-- 40 -->
      <g transform="translate(37.715 562.328819) scale(0.1 -0.1)">
       <use xlink:href="#DejaVuSans-34"/>
       <use xlink:href="#DejaVuSans-30" transform="translate(63.623047 0)"/>
      </g>
     </g>
    </g>
    <g id="ytick_10">
     <g id="line2d_44">
      <path d="M 57.44 498.7744 
L 997.2 498.7744 
" clip-path="url(#p848626538a)" style="fill: none; stroke: #b0b0b0; stroke-opacity: 0.3; stroke-width: 0.8; stroke-linecap: square"/>
     </g>
     <g id="line2d_45">
      <g>
       <use xlink:href="#m135dc2b9a1" x="57.44" y="498.7744" style="stroke: #000000; stroke-width: 0.8"/>
      </g>
     </g>
     <g id="text_25">
      <!-- 60 -->
      <g transform="translate(37.715 502.573619) scale(0.1 -0.1)">
       <use xlink:href="#DejaVuSans-36"/>
       <use xlink:href="#DejaVuSans-30" transform="translate(63.623047 0)"/>
      </g>
     </g>
    </g>
    <g id="ytick_11">
     <g id="line2d_46">
      <path d="M 57.44 439.0192 
L 997.2 439.0192 
" clip-path="url(#p848626538a)" style="fill: none; stroke: #b0b0b0; stroke-opacity: 0.3; stroke-width: 0.8; stroke-linecap: square"/>
     </g>
     <g id="line2d_47">
      <g>
       <use xlink:href="#m135dc2b9a1" x="57.44" y="439.0192" style="stroke: #000000; stroke-width: 0.8"/>
      </g>
     </g>
     <g id="text_26">
      <!-- 80 -->
      <g transform="translate(37.715 442.818419) scale(0.1 -0.1)">
       <defs>
        <path id="DejaVuSans-38" d="M 2034 2216 
Q 1584 2216 1326 1975 
Q 1069 1734 1069 1313 
Q 1069 891 1326 650 
Q 1584 409 2034 409 
Q 2484 409 2743 651 
Q 3003 894 3003 1313 
Q 3003 1734 2745 1975 
Q 2488 2216 2034 2216 
z
M 1403 2484 
Q 997 2584 770 2862 
Q 544 3141 544 3541 
Q 544 4100 942 4425 
Q 1341 4750 2034 4750 
Q 2731 4750 3128 4425 
Q 3525 4100 3525 3541 
Q 3525 3141 3298 2862 
Q 3072 2584 2669 2484 
Q 3125 2378 3379 2068 
Q 3634 1759 3634 1313 
Q 3634 634 3220 271 
Q 2806 -91 2034 -91 
Q 1263 -91 848 271 
Q 434 634 434 1313 
Q 434 1759 690 2068 
Q 947 2378 1403 2484 
z
M 1172 3481 
Q 1172 3119 1398 2916 
Q 1625 2713 2034 2713 
Q 2441 2713 2670 2916 
Q 2900 3119 2900 3481 
Q 2900 3844 2670 4047 
Q 2441 4250 2034 4250 
Q 1625 4250 1398 4047 
Q 1172 3844 1172 3481 
z
" transform="scale(0.015625)"/>
       </defs>
       <use xlink:href="#DejaVuSans-38"/>
       <use xlink:href="#DejaVuSans-30" transform="translate(63.623047 0)"/>
      </g>
     </g>
    </g>
    <g id="ytick_12">
     <g id="line2d_48">
      <path d="M 57.44 379.264 
L 997.2 379.264 
" clip-path="url(#p848626538a)" style="fill: none; stroke: #b0b0b0; stroke-opacity: 0.3; stroke-width: 0.8; stroke-linecap: square"/>
     </g>
     <g id="line2d_49">
      <g>
       <use xlink:href="#m135dc2b9a1" x="57.44" y="379.264" style="stroke: #000000; stroke-width: 0.8"/>
      </g>
     </g>
     <g id="text_27">
      <!-- 100 -->
      <g transform="translate(31.3525 383.063219) scale(0.1 -0.1)">
       <use xlink:href="#DejaVuSans-31"/>
       <use xlink:href="#DejaVuSans-30" transform="translate(63.623047 0)"/>
       <use xlink:href="#DejaVuSans-30" transform="translate(127.246094 0)"/>
      </g>
     </g>
    </g>
    <g id="text_28">
     <!-- Top ASN Share (%) -->
     <g transform="translate(25.272813 575.27075) rotate(-90) scale(0.1 -0.1)">
      <defs>
       <path id="DejaVuSans-54" d="M -19 4666 
L 3928 4666 
L 3928 4134 
L 2272 4134 
L 2272 0 
L 1638 0 
L 1638 4134 
L -19 4134 
L -19 4666 
z
" transform="scale(0.015625)"/>
       <path id="DejaVuSans-70" d="M 1159 525 
L 1159 -1331 
L 581 -1331 
L 581 3500 
L 1159 3500 
L 1159 2969 
Q 1341 3281 1617 3432 
Q 1894 3584 2278 3584 
Q 2916 3584 3314 3078 
Q 3713 2572 3713 1747 
Q 3713 922 3314 415 
Q 2916 -91 2278 -91 
Q 1894 -91 1617 61 
Q 1341 213 1159 525 
z
M 3116 1747 
Q 3116 2381 2855 2742 
Q 2594 3103 2138 3103 
Q 1681 3103 1420 2742 
Q 1159 2381 1159 1747 
Q 1159 1113 1420 752 
Q 1681 391 2138 391 
Q 2594 391 2855 752 
Q 3116 1113 3116 1747 
z
" transform="scale(0.015625)"/>
       <path id="DejaVuSans-41" d="M 2188 4044 
L 1331 1722 
L 3047 1722 
L 2188 4044 
z
M 1831 4666 
L 2547 4666 
L 4325 0 
L 3669 0 
L 3244 1197 
L 1141 1197 
L 716 0 
L 50 0 
L 1831 4666 
z
" transform="scale(0.015625)"/>
       <path id="DejaVuSans-53" d="M 3425 4513 
L 3425 3897 
Q 3066 4069 2747 4153 
Q 2428 4238 2131 4238 
Q 1616 4238 1336 4038 
Q 1056 3838 1056 3469 
Q 1056 3159 1242 3001 
Q 1428 2844 1947 2747 
L 2328 2669 
Q 3034 2534 3370 2195 
Q 3706 1856 3706 1288 
Q 3706 609 3251 259 
Q 2797 -91 1919 -91 
Q 1588 -91 1214 -16 
Q 841 59 441 206 
L 441 856 
Q 825 641 1194 531 
Q 1563 422 1919 422 
Q 2459 422 2753 634 
Q 3047 847 3047 1241 
Q 3047 1584 2836 1778 
Q 2625 1972 2144 2069 
L 1759 2144 
Q 1053 2284 737 2584 
Q 422 2884 422 3419 
Q 422 4038 858 4394 
Q 1294 4750 2059 4750 
Q 2388 4750 2728 4690 
Q 3069 4631 3425 4513 
z
" transform="scale(0.015625)"/>
       <path id="DejaVuSans-4e" d="M 628 4666 
L 1478 4666 
L 3547 763 
L 3547 4666 
L 4159 4666 
L 4159 0 
L 3309 0 
L 1241 3903 
L 1241 0 
L 628 0 
L 628 4666 
z
" transform="scale(0.015625)"/>
       <path id="DejaVuSans-68" d="M 3513 2113 
L 3513 0 
L 2938 0 
L 2938 2094 
Q 2938 2591 2744 2837 
Q 2550 3084 2163 3084 
Q 1697 3084 1428 2787 
Q 1159 2491 1159 1978 
L 1159 0 
L 581 0 
L 581 4863 
L 1159 4863 
L 1159 2956 
Q 1366 3272 1645 3428 
Q 1925 3584 2291 3584 
Q 2894 3584 3203 3211 
Q 3513 2838 3513 2113 
z
" transform="scale(0.015625)"/>
       <path id="DejaVuSans-25" d="M 4653 2053 
Q 4381 2053 4226 1822 
Q 4072 1591 4072 1178 
Q 4072 772 4226 539 
Q 4381 306 4653 306 
Q 4919 306 5073 539 
Q 5228 772 5228 1178 
Q 5228 1588 5073 1820 
Q 4919 2053 4653 2053 
z
M 4653 2450 
Q 5147 2450 5437 2106 
Q 5728 1763 5728 1178 
Q 5728 594 5436 251 
Q 5144 -91 4653 -91 
Q 4153 -91 3862 251 
Q 3572 594 3572 1178 
Q 3572 1766 3864 2108 
Q 4156 2450 4653 2450 
z
M 1428 4353 
Q 1159 4353 1004 4120 
Q 850 3888 850 3481 
Q 850 3069 1003 2837 
Q 1156 2606 1428 2606 
Q 1700 2606 1854 2837 
Q 2009 3069 2009 3481 
Q 2009 3884 1853 4118 
Q 1697 4353 1428 4353 
z
M 4250 4750 
L 4750 4750 
L 1831 -91 
L 1331 -91 
L 4250 4750 
z
M 1428 4750 
Q 1922 4750 2215 4408 
Q 2509 4066 2509 3481 
Q 2509 2891 2217 2550 
Q 1925 2209 1428 2209 
Q 931 2209 642 2551 
Q 353 2894 353 3481 
Q 353 4063 643 4406 
Q 934 4750 1428 4750 
z
" transform="scale(0.015625)"/>
      </defs>
      <use xlink:href="#DejaVuSans-54"/>
      <use xlink:href="#DejaVuSans-6f" transform="translate(44.083984 0)"/>
      <use xlink:href="#DejaVuSans-70" transform="translate(105.265625 0)"/>
      <use xlink:href="#DejaVuSans-20" transform="translate(168.742188 0)"/>
      <use xlink:href="#DejaVuSans-41" transform="translate(200.529297 0)"/>
      <use xlink:href="#DejaVuSans-53" transform="translate(268.9375 0)"/>
      <use xlink:href="#DejaVuSans-4e" transform="translate(332.414062 0)"/>
      <use xlink:href="#DejaVuSans-20" transform="translate(407.21875 0)"/>
      <use xlink:href="#DejaVuSans-53" transform="translate(439.005859 0)"/>
      <use xlink:href="#DejaVuSans-68" transform="translate(502.482422 0)"/>
      <use xlink:href="#DejaVuSans-61" transform="translate(565.861328 0)"/>
      <use xlink:href="#DejaVuSans-72" transform="translate(627.140625 0)"/>
      <use xlink:href="#DejaVuSans-65" transform="translate(666.003906 0)"/>
      <use xlink:href="#DejaVuSans-20" transform="translate(727.527344 0)"/>
      <use xlink:href="#DejaVuSans-28" transform="translate(759.314453 0)"/>
      <use xlink:href="#DejaVuSans-25" transform="translate(798.328125 0)"/>
      <use xlink:href="#DejaVuSans-29" transform="translate(893.347656 0)"/>
     </g>
    </g>
   </g>
   <g id="line2d_50">
    <path d="M 100.156364 578.448 
L 147.05261 575.602514 
L 193.948857 584.138971 
L 239.825619 581.660645 
L 286.212124 569.394182 
L 333.108371 539.582829 
L 380.004617 450.401143 
L 425.88138 452.733508 
L 472.267885 556.914595 
L 519.164131 575.013793 
L 566.060378 432.616857 
L 612.446882 494.919226 
L 658.833387 533.80331 
L 705.729633 548.5704 
L 752.62588 514.424571 
L 798.502643 509.166609 
L 891.785394 578.448 
L 927.46732 600.098435 
L 954.483636 594.558471 
" clip-path="url(#p848626538a)" style="fill: none; stroke: #800080; stroke-width: 2; stroke-linecap: square"/>
    <defs>
     <path id="mdd57ae588e" d="M -3 3 
L 3 3 
L 3 -3 
L -3 -3 
z
" style="stroke: #800080; stroke-linejoin: miter"/>
    </defs>
    <g clip-path="url(#p848626538a)">
     <use xlink:href="#mdd57ae588e" x="100.156364" y="578.448" style="fill: #800080; stroke: #800080; stroke-linejoin: miter"/>
     <use xlink:href="#mdd57ae588e" x="147.05261" y="575.602514" style="fill: #800080; stroke: #800080; stroke-linejoin: miter"/>
     <use xlink:href="#mdd57ae588e" x="193.948857" y="584.138971" style="fill: #800080; stroke: #800080; stroke-linejoin: miter"/>
     <use xlink:href="#mdd57ae588e" x="239.825619" y="581.660645" style="fill: #800080; stroke: #800080; stroke-linejoin: miter"/>
     <use xlink:href="#mdd57ae588e" x="286.212124" y="569.394182" style="fill: #800080; stroke: #800080; stroke-linejoin: miter"/>
     <use xlink:href="#mdd57ae588e" x="333.108371" y="539.582829" style="fill: #800080; stroke: #800080; stroke-linejoin: miter"/>
     <use xlink:href="#mdd57ae588e" x="380.004617" y="450.401143" style="fill: #800080; stroke: #800080; stroke-linejoin: miter"/>
     <use xlink:href="#mdd57ae588e" x="425.88138" y="452.733508" style="fill: #800080; stroke: #800080; stroke-linejoin: miter"/>
     <use xlink:href="#mdd57ae588e" x="472.267885" y="556.914595" style="fill: #800080; stroke: #800080; stroke-linejoin: miter"/>
     <use xlink:href="#mdd57ae588e" x="519.164131" y="575.013793" style="fill: #800080; stroke: #800080; stroke-linejoin: miter"/>
     <use xlink:href="#mdd57ae588e" x="566.060378" y="432.616857" style="fill: #800080; stroke: #800080; stroke-linejoin: miter"/>
     <use xlink:href="#mdd57ae588e" x="612.446882" y="494.919226" style="fill: #800080; stroke: #800080; stroke-linejoin: miter"/>
     <use xlink:href="#mdd57ae588e" x="658.833387" y="533.80331" style="fill: #800080; stroke: #800080; stroke-linejoin: miter"/>
     <use xlink:href="#mdd57ae588e" x="705.729633" y="548.5704" style="fill: #800080; stroke: #800080; stroke-linejoin: miter"/>
     <use xlink:href="#mdd57ae588e" x="752.62588" y="514.424571" style="fill: #800080; stroke: #800080; stroke-linejoin: miter"/>
     <use xlink:href="#mdd57ae588e" x="798.502643" y="509.166609" style="fill: #800080; stroke: #800080; stroke-linejoin: miter"/>
     <use xlink:href="#mdd57ae588e" x="891.785394" y="578.448" style="fill: #800080; stroke: #800080; stroke-linejoin: miter"/>
     <use xlink:href="#mdd57ae588e" x="927.46732" y="600.098435" style="fill: #800080; stroke: #800080; stroke-linejoin: miter"/>
     <use xlink:href="#mdd57ae588e" x="954.483636" y="594.558471" style="fill: #800080; stroke: #800080; stroke-linejoin: miter"/>
    </g>
   </g>
   <g id="patch_9">
    <path d="M 57.44 678.04 
L 57.44 379.264 
" style="fill: none; stroke: #000000; stroke-width: 0.8; stroke-linejoin: miter; stroke-linecap: square"/>
   </g>
   <g id="patch_10">
    <path d="M 997.2 678.04 
L 997.2 379.264 
" style="fill: none; stroke: #000000; stroke-width: 0.8; stroke-linejoin: miter; stroke-linecap: square"/>
   </g>
   <g id="patch_11">
    <path d="M 57.44 678.04 
L 997.2 678.04 
" style="fill: none; stroke: #000000; stroke-width: 0.8; stroke-linejoin: miter; stroke-linecap: square"/>
   </g>
   <g id="patch_12">
    <path d="M 57.44 379.264 
L 997.2 379.264 
" style="fill: none; stroke: #000000; stroke-width: 0.8; stroke-linejoin: miter; stroke-linecap: square"/>
   </g>
   <g id="text_29">
    <!-- Share of Largest Hosting Provider in Nakamoto-30 Set -->
    <g transform="translate(342.788125 373.264) scale(0.12 -0.12)">
     <defs>
      <path id="DejaVuSans-Bold-66" d="M 2841 4863 
L 2841 4128 
L 2222 4128 
Q 1984 4128 1890 4042 
Q 1797 3956 1797 3744 
L 1797 3500 
L 2753 3500 
L 2753 2700 
L 1797 2700 
L 1797 0 
L 678 0 
L 678 2700 
L 122 2700 
L 122 3500 
L 678 3500 
L 678 3744 
Q 678 4316 997 4589 
Q 1316 4863 1984 4863 
L 2841 4863 
z
" transform="scale(0.015625)"/>
      <path id="DejaVuSans-Bold-4c" d="M 588 4666 
L 1791 4666 
L 1791 909 
L 3903 909 
L 3903 0 
L 588 0 
L 588 4666 
z
" transform="scale(0.015625)"/>
      <path id="DejaVuSans-Bold-73" d="M 3272 3391 
L 3272 2541 
Q 2913 2691 2578 2766 
Q 2244 2841 1947 2841 
Q 1628 2841 1473 2761 
Q 1319 2681 1319 2516 
Q 1319 2381 1436 2309 
Q 1553 2238 1856 2203 
L 2053 2175 
Q 2913 2066 3209 1816 
Q 3506 1566 3506 1031 
Q 3506 472 3093 190 
Q 2681 -91 1863 -91 
Q 1516 -91 1145 -36 
Q 775 19 384 128 
L 384 978 
Q 719 816 1070 734 
Q 1422 653 1784 653 
Q 2113 653 2278 743 
Q 2444 834 2444 1013 
Q 2444 1163 2330 1236 
Q 2216 1309 1875 1350 
L 1678 1375 
Q 931 1469 631 1722 
Q 331 1975 331 2491 
Q 331 3047 712 3315 
Q 1094 3584 1881 3584 
Q 2191 3584 2531 3537 
Q 2872 3491 3272 3391 
z
" transform="scale(0.015625)"/>
      <path id="DejaVuSans-Bold-50" d="M 588 4666 
L 2584 4666 
Q 3475 4666 3951 4270 
Q 4428 3875 4428 3144 
Q 4428 2409 3951 2014 
Q 3475 1619 2584 1619 
L 1791 1619 
L 1791 0 
L 588 0 
L 588 4666 
z
M 1791 3794 
L 1791 2491 
L 2456 2491 
Q 2806 2491 2997 2661 
Q 3188 2831 3188 3144 
Q 3188 3456 2997 3625 
Q 2806 3794 2456 3794 
L 1791 3794 
z
" transform="scale(0.015625)"/>
      <path id="DejaVuSans-Bold-76" d="M 97 3500 
L 1216 3500 
L 2088 1081 
L 2956 3500 
L 4078 3500 
L 2700 0 
L 1472 0 
L 97 3500 
z
" transform="scale(0.015625)"/>
     </defs>
     <use xlink:href="#DejaVuSans-Bold-53"/>
     <use xlink:href="#DejaVuSans-Bold-68" transform="translate(72.021484 0)"/>
     <use xlink:href="#DejaVuSans-Bold-61" transform="translate(143.212891 0)"/>
     <use xlink:href="#DejaVuSans-Bold-72" transform="translate(210.693359 0)"/>
     <use xlink:href="#DejaVuSans-Bold-65" transform="translate(260.009766 0)"/>
     <use xlink:href="#DejaVuSans-Bold-20" transform="translate(327.832031 0)"/>
     <use xlink:href="#DejaVuSans-Bold-6f" transform="translate(362.646484 0)"/>
     <use xlink:href="#DejaVuSans-Bold-66" transform="translate(431.347656 0)"/>
     <use xlink:href="#DejaVuSans-Bold-20" transform="translate(474.853516 0)"/>
     <use xlink:href="#DejaVuSans-Bold-4c" transform="translate(509.667969 0)"/>
     <use xlink:href="#DejaVuSans-Bold-61" transform="translate(573.388672 0)"/>
     <use xlink:href="#DejaVuSans-Bold-72" transform="translate(640.869141 0)"/>
     <use xlink:href="#DejaVuSans-Bold-67" transform="translate(690.185547 0)"/>
     <use xlink:href="#DejaVuSans-Bold-65" transform="translate(761.767578 0)"/>
     <use xlink:href="#DejaVuSans-Bold-73" transform="translate(829.589844 0)"/>
     <use xlink:href="#DejaVuSans-Bold-74" transform="translate(889.111328 0)"/>
     <use xlink:href="#DejaVuSans-Bold-20" transform="translate(936.914062 0)"/>
     <use xlink:href="#DejaVuSans-Bold-48" transform="translate(971.728516 0)"/>
     <use xlink:href="#DejaVuSans-Bold-6f" transform="translate(1055.419922 0)"/>
     <use xlink:href="#DejaVuSans-Bold-73" transform="translate(1124.121094 0)"/>
     <use xlink:href="#DejaVuSans-Bold-74" transform="translate(1183.642578 0)"/>
     <use xlink:href="#DejaVuSans-Bold-69" transform="translate(1231.445312 0)"/>
     <use xlink:href="#DejaVuSans-Bold-6e" transform="translate(1265.722656 0)"/>
     <use xlink:href="#DejaVuSans-Bold-67" transform="translate(1336.914062 0)"/>
     <use xlink:href="#DejaVuSans-Bold-20" transform="translate(1408.496094 0)"/>
     <use xlink:href="#DejaVuSans-Bold-50" transform="translate(1443.310547 0)"/>
     <use xlink:href="#DejaVuSans-Bold-72" transform="translate(1516.601562 0)"/>
     <use xlink:href="#DejaVuSans-Bold-6f" transform="translate(1565.917969 0)"/>
     <use xlink:href="#DejaVuSans-Bold-76" transform="translate(1634.619141 0)"/>
     <use xlink:href="#DejaVuSans-Bold-69" transform="translate(1699.804688 0)"/>
     <use xlink:href="#DejaVuSans-Bold-64" transform="translate(1734.082031 0)"/>
     <use xlink:href="#DejaVuSans-Bold-65" transform="translate(1805.664062 0)"/>
     <use xlink:href="#DejaVuSans-Bold-72" transform="translate(1873.486328 0)"/>
     <use xlink:href="#DejaVuSans-Bold-20" transform="translate(1922.802734 0)"/>
     <use xlink:href="#DejaVuSans-Bold-69" transform="translate(1957.617188 0)"/>
     <use xlink:href="#DejaVuSans-Bold-6e" transform="translate(1991.894531 0)"/>
     <use xlink:href="#DejaVuSans-Bold-20" transform="translate(2063.085938 0)"/>
     <use xlink:href="#DejaVuSans-Bold-4e" transform="translate(2097.900391 0)"/>
     <use xlink:href="#DejaVuSans-Bold-61" transform="translate(2181.591797 0)"/>
     <use xlink:href="#DejaVuSans-Bold-6b" transform="translate(2249.072266 0)"/>
     <use xlink:href="#DejaVuSans-Bold-61" transform="translate(2315.576172 0)"/>
     <use xlink:href="#DejaVuSans-Bold-6d" transform="translate(2383.056641 0)"/>
     <use xlink:href="#DejaVuSans-Bold-6f" transform="translate(2487.255859 0)"/>
     <use xlink:href="#DejaVuSans-Bold-74" transform="translate(2555.957031 0)"/>
     <use xlink:href="#DejaVuSans-Bold-6f" transform="translate(2603.759766 0)"/>
     <use xlink:href="#DejaVuSans-Bold-2d" transform="translate(2672.460938 0)"/>
     <use xlink:href="#DejaVuSans-Bold-33" transform="translate(2713.964844 0)"/>
     <use xlink:href="#DejaVuSans-Bold-30" transform="translate(2783.544922 0)"/>
     <use xlink:href="#DejaVuSans-Bold-20" transform="translate(2853.125 0)"/>
     <use xlink:href="#DejaVuSans-Bold-53" transform="translate(2887.939453 0)"/>
     <use xlink:href="#DejaVuSans-Bold-65" transform="translate(2959.960938 0)"/>
     <use xlink:href="#DejaVuSans-Bold-74" transform="translate(3027.783203 0)"/>
    </g>
   </g>
  </g>
 </g>
 <defs>
  <clipPath id="p21e19fa2c1">
   <rect x="57.44" y="37.968" width="939.76" height="298.776"/>
  </clipPath>
  <clipPath id="p848626538a">
   <rect x="57.44" y="379.264" width="939.76" height="298.776"/>
  </clipPath>
 </defs>
</svg>
