<?xml version="1.0" encoding="utf-8" standalone="no"?>
<!DOCTYPE svg PUBLIC "-//W3C//DTD SVG 1.1//EN"
  "http://www.w3.org/Graphics/SVG/1.1/DTD/svg11.dtd">
<svg xmlns:xlink="http://www.w3.org/1999/xlink" width="1008pt" height="432pt" viewBox="0 0 1008 432" xmlns="http://www.w3.org/2000/svg" version="1.1">
 <metadata>
  <rdf:RDF xmlns:dc="http://purl.org/dc/elements/1.1/" xmlns:cc="http://creativecommons.org/ns#" xmlns:rdf="http://www.w3.org/1999/02/22-rdf-syntax-ns#">
   <cc:Work>
    <dc:type rdf:resource="http://purl.org/dc/dcmitype/StillImage"/>
    <dc:date>2026-01-31T17:27:52.525805</dc:date>
    <dc:format>image/svg+xml</dc:format>
    <dc:creator>
     <cc:Agent>
      <dc:title>Matplotlib v3.10.8, https://matplotlib.org/</dc:title>
     </cc:Agent>
    </dc:creator>
   </cc:Work>
  </rdf:RDF>
 </metadata>
 <defs>
  <style type="text/css">*{stroke-linejoin: round; stroke-linecap: butt}</style>
 </defs>
 <g id="figure_1">
  <g id="patch_1">
   <path d="M 0 432 
L 1008 432 
L 1008 0 
L 0 0 
z
" style="fill: #ffffff"/>
  </g>
  <g id="axes_1">
   <g id="patch_2">
    <path d="M 44.66 390.04 
L 997.2 390.04 
L 997.2 37.968 
L 44.66 37.968 
z
" style="fill: #ffffff"/>
   </g>
   <g id="matplotlib.axis_1">
    <g id="xtick_1">
     <g id="line2d_1">
      <path d="M 183.541944 390.04 
L 183.541944 37.968 
" clip-path="url(#pbaccff7901)" style="fill: none; stroke: #b0b0b0; stroke-opacity: 0.3; stroke-width: 0.8; stroke-linecap: square"/>
     </g>
     <g id="line2d_2">
      <defs>
       <path id="ma970d0abf2" d="M 0 0 
L 0 3.5 
" style="stroke: #000000; stroke-width: 0.8"/>
      </defs>
      <g>
       <use xlink:href="#ma970d0abf2" x="183.541944" y="390.04" style="stroke: #000000; stroke-width: 0.8"/>
      </g>
     </g>
     <g id="text_1">
      <!-- 2022 -->
      <g transform="translate(170.816944 404.638438) scale(0.1 -0.1)">
       <defs>
        <path id="DejaVuSans-32" d="M 1228 531 
L 3431 531 
L 3431 0 
L 469 0 
L 469 531 
Q 828 903 1448 1529 
Q 2069 2156 2228 2338 
Q 2531 2678 2651 2914 
Q 2772 3150 2772 3378 
Q 2772 3750 2511 3984 
Q 2250 4219 1831 4219 
Q 1534 4219 1204 4116 
Q 875 4013 500 3803 
L 500 4441 
Q 881 4594 1212 4672 
Q 1544 4750 1819 4750 
Q 2544 4750 2975 4387 
Q 3406 4025 3406 3419 
Q 3406 3131 3298 2873 
Q 3191 2616 2906 2266 
Q 2828 2175 2409 1742 
Q 1991 1309 1228 531 
z
" transform="scale(0.015625)"/>
        <path id="DejaVuSans-30" d="M 2034 4250 
Q 1547 4250 1301 3770 
Q 1056 3291 1056 2328 
Q 1056 1369 1301 889 
Q 1547 409 2034 409 
Q 2525 409 2770 889 
Q 3016 1369 3016 2328 
Q 3016 3291 2770 3770 
Q 2525 4250 2034 4250 
z
M 2034 4750 
Q 2819 4750 3233 4129 
Q 3647 3509 3647 2328 
Q 3647 1150 3233 529 
Q 2819 -91 2034 -91 
Q 1250 -91 836 529 
Q 422 1150 422 2328 
Q 422 3509 836 4129 
Q 1250 4750 2034 4750 
z
" transform="scale(0.015625)"/>
       </defs>
       <use xlink:href="#DejaVuSans-32"/>
       <use xlink:href="#DejaVuSans-30" transform="translate(63.623047 0)"/>
       <use xlink:href="#DejaVuSans-32" transform="translate(127.246094 0)"/>
       <use xlink:href="#DejaVuSans-32" transform="translate(190.869141 0)"/>
      </g>
     </g>
    </g>
    <g id="xtick_2">
     <g id="line2d_3">
      <path d="M 372.127917 390.04 
L 372.127917 37.968 
" clip-path="url(#pbaccff7901)" style="fill: none; stroke: #b0b0b0; stroke-opacity: 0.3; stroke-width: 0.8; stroke-linecap: square"/>
     </g>
     <g id="line2d_4">
      <g>
       <use xlink:href="#ma970d0abf2" x="372.127917" y="390.04" style="stroke: #000000; stroke-width: 0.8"/>
      </g>
     </g>
     <g id="text_2">
      <!-- 2023 -->
      <g transform="translate(359.402917 404.638438) scale(0.1 -0.1)">
       <defs>
        <path id="DejaVuSans-33" d="M 2597 2516 
Q 3050 2419 3304 2112 
Q 3559 1806 3559 1356 
Q 3559 666 3084 287 
Q 2609 -91 1734 -91 
Q 1441 -91 1130 -33 
Q 819 25 488 141 
L 488 750 
Q 750 597 1062 519 
Q 1375 441 1716 441 
Q 2309 441 2620 675 
Q 2931 909 2931 1356 
Q 2931 1769 2642 2001 
Q 2353 2234 1838 2234 
L 1294 2234 
L 1294 2753 
L 1863 2753 
Q 2328 2753 2575 2939 
Q 2822 3125 2822 3475 
Q 2822 3834 2567 4026 
Q 2313 4219 1838 4219 
Q 1578 4219 1281 4162 
Q 984 4106 628 3988 
L 628 4550 
Q 988 4650 1302 4700 
Q 1616 4750 1894 4750 
Q 2613 4750 3031 4423 
Q 3450 4097 3450 3541 
Q 3450 3153 3228 2886 
Q 3006 2619 2597 2516 
z
" transform="scale(0.015625)"/>
       </defs>
       <use xlink:href="#DejaVuSans-32"/>
       <use xlink:href="#DejaVuSans-30" transform="translate(63.623047 0)"/>
       <use xlink:href="#DejaVuSans-32" transform="translate(127.246094 0)"/>
       <use xlink:href="#DejaVuSans-33" transform="translate(190.869141 0)"/>
      </g>
     </g>
    </g>
    <g id="xtick_3">
     <g id="line2d_5">
      <path d="M 560.71389 390.04 
L 560.71389 37.968 
" clip-path="url(#pbaccff7901)" style="fill: none; stroke: #b0b0b0; stroke-opacity: 0.3; stroke-width: 0.8; stroke-linecap: square"/>
     </g>
     <g id="line2d_6">
      <g>
       <use xlink:href="#ma970d0abf2" x="560.71389" y="390.04" style="stroke: #000000; stroke-width: 0.8"/>
      </g>
     </g>
     <g id="text_3">
      <!-- 2024 -->
      <g transform="translate(547.98889 404.638438) scale(0.1 -0.1)">
       <defs>
        <path id="DejaVuSans-34" d="M 2419 4116 
L 825 1625 
L 2419 1625 
L 2419 4116 
z
M 2253 4666 
L 3047 4666 
L 3047 1625 
L 3713 1625 
L 3713 1100 
L 3047 1100 
L 3047 0 
L 2419 0 
L 2419 1100 
L 313 1100 
L 313 1709 
L 2253 4666 
z
" transform="scale(0.015625)"/>
       </defs>
       <use xlink:href="#DejaVuSans-32"/>
       <use xlink:href="#DejaVuSans-30" transform="translate(63.623047 0)"/>
       <use xlink:href="#DejaVuSans-32" transform="translate(127.246094 0)"/>
       <use xlink:href="#DejaVuSans-34" transform="translate(190.869141 0)"/>
      </g>
     </g>
    </g>
    <g id="xtick_4">
     <g id="line2d_7">
      <path d="M 749.816537 390.04 
L 749.816537 37.968 
" clip-path="url(#pbaccff7901)" style="fill: none; stroke: #b0b0b0; stroke-opacity: 0.3; stroke-width: 0.8; stroke-linecap: square"/>
     </g>
     <g id="line2d_8">
      <g>
       <use xlink:href="#ma970d0abf2" x="749.816537" y="390.04" style="stroke: #000000; stroke-width: 0.8"/>
      </g>
     </g>
     <g id="text_4">
      <!-- 2025 -->
      <g transform="translate(737.091537 404.638438) scale(0.1 -0.1)">
       <defs>
        <path id="DejaVuSans-35" d="M 691 4666 
L 3169 4666 
L 3169 4134 
L 1269 4134 
L 1269 2991 
Q 1406 3038 1543 3061 
Q 1681 3084 1819 3084 
Q 2600 3084 3056 2656 
Q 3513 2228 3513 1497 
Q 3513 744 3044 326 
Q 2575 -91 1722 -91 
Q 1428 -91 1123 -41 
Q 819 9 494 109 
L 494 744 
Q 775 591 1075 516 
Q 1375 441 1709 441 
Q 2250 441 2565 725 
Q 2881 1009 2881 1497 
Q 2881 1984 2565 2268 
Q 2250 2553 1709 2553 
Q 1456 2553 1204 2497 
Q 953 2441 691 2322 
L 691 4666 
z
" transform="scale(0.015625)"/>
       </defs>
       <use xlink:href="#DejaVuSans-32"/>
       <use xlink:href="#DejaVuSans-30" transform="translate(63.623047 0)"/>
       <use xlink:href="#DejaVuSans-32" transform="translate(127.246094 0)"/>
       <use xlink:href="#DejaVuSans-35" transform="translate(190.869141 0)"/>
      </g>
     </g>
    </g>
    <g id="xtick_5">
     <g id="line2d_9">
      <path d="M 938.40251 390.04 
L 938.40251 37.968 
" clip-path="url(#pbaccff7901)" style="fill: none; stroke: #b0b0b0; stroke-opacity: 0.3; stroke-width: 0.8; stroke-linecap: square"/>
     </g>
     <g id="line2d_10">
      <g>
       <use xlink:href="#ma970d0abf2" x="938.40251" y="390.04" style="stroke: #000000; stroke-width: 0.8"/>
      </g>
     </g>
     <g id="text_5">
      <!-- 2026 -->
      <g transform="translate(925.67751 404.638438) scale(0.1 -0.1)">
       <defs>
        <path id="DejaVuSans-36" d="M 2113 2584 
Q 1688 2584 1439 2293 
Q 1191 2003 1191 1497 
Q 1191 994 1439 701 
Q 1688 409 2113 409 
Q 2538 409 2786 701 
Q 3034 994 3034 1497 
Q 3034 2003 2786 2293 
Q 2538 2584 2113 2584 
z
M 3366 4563 
L 3366 3988 
Q 3128 4100 2886 4159 
Q 2644 4219 2406 4219 
Q 1781 4219 1451 3797 
Q 1122 3375 1075 2522 
Q 1259 2794 1537 2939 
Q 1816 3084 2150 3084 
Q 2853 3084 3261 2657 
Q 3669 2231 3669 1497 
Q 3669 778 3244 343 
Q 2819 -91 2113 -91 
Q 1303 -91 875 529 
Q 447 1150 447 2328 
Q 447 3434 972 4092 
Q 1497 4750 2381 4750 
Q 2619 4750 2861 4703 
Q 3103 4656 3366 4563 
z
" transform="scale(0.015625)"/>
       </defs>
       <use xlink:href="#DejaVuSans-32"/>
       <use xlink:href="#DejaVuSans-30" transform="translate(63.623047 0)"/>
       <use xlink:href="#DejaVuSans-32" transform="translate(127.246094 0)"/>
       <use xlink:href="#DejaVuSans-36" transform="translate(190.869141 0)"/>
      </g>
     </g>
    </g>
    <g id="text_6">
     <!-- Date -->
     <g transform="translate(508.979219 418.316562) scale(0.1 -0.1)">
      <defs>
       <path id="DejaVuSans-44" d="M 1259 4147 
L 1259 519 
L 2022 519 
Q 2988 519 3436 956 
Q 3884 1394 3884 2338 
Q 3884 3275 3436 3711 
Q 2988 4147 2022 4147 
L 1259 4147 
z
M 628 4666 
L 1925 4666 
Q 3281 4666 3915 4102 
Q 4550 3538 4550 2338 
Q 4550 1131 3912 565 
Q 3275 0 1925 0 
L 628 0 
L 628 4666 
z
" transform="scale(0.015625)"/>
       <path id="DejaVuSans-61" d="M 2194 1759 
Q 1497 1759 1228 1600 
Q 959 1441 959 1056 
Q 959 750 1161 570 
Q 1363 391 1709 391 
Q 2188 391 2477 730 
Q 2766 1069 2766 1631 
L 2766 1759 
L 2194 1759 
z
M 3341 1997 
L 3341 0 
L 2766 0 
L 2766 531 
Q 2569 213 2275 61 
Q 1981 -91 1556 -91 
Q 1019 -91 701 211 
Q 384 513 384 1019 
Q 384 1609 779 1909 
Q 1175 2209 1959 2209 
L 2766 2209 
L 2766 2266 
Q 2766 2663 2505 2880 
Q 2244 3097 1772 3097 
Q 1472 3097 1187 3025 
Q 903 2953 641 2809 
L 641 3341 
Q 956 3463 1253 3523 
Q 1550 3584 1831 3584 
Q 2591 3584 2966 3190 
Q 3341 2797 3341 1997 
z
" transform="scale(0.015625)"/>
       <path id="DejaVuSans-74" d="M 1172 4494 
L 1172 3500 
L 2356 3500 
L 2356 3053 
L 1172 3053 
L 1172 1153 
Q 1172 725 1289 603 
Q 1406 481 1766 481 
L 2356 481 
L 2356 0 
L 1766 0 
Q 1100 0 847 248 
Q 594 497 594 1153 
L 594 3053 
L 172 3053 
L 172 3500 
L 594 3500 
L 594 4494 
L 1172 4494 
z
" transform="scale(0.015625)"/>
       <path id="DejaVuSans-65" d="M 3597 1894 
L 3597 1613 
L 953 1613 
Q 991 1019 1311 708 
Q 1631 397 2203 397 
Q 2534 397 2845 478 
Q 3156 559 3463 722 
L 3463 178 
Q 3153 47 2828 -22 
Q 2503 -91 2169 -91 
Q 1331 -91 842 396 
Q 353 884 353 1716 
Q 353 2575 817 3079 
Q 1281 3584 2069 3584 
Q 2775 3584 3186 3129 
Q 3597 2675 3597 1894 
z
M 3022 2063 
Q 3016 2534 2758 2815 
Q 2500 3097 2075 3097 
Q 1594 3097 1305 2825 
Q 1016 2553 972 2059 
L 3022 2063 
z
" transform="scale(0.015625)"/>
      </defs>
      <use xlink:href="#DejaVuSans-44"/>
      <use xlink:href="#DejaVuSans-61" transform="translate(77.001953 0)"/>
      <use xlink:href="#DejaVuSans-74" transform="translate(138.28125 0)"/>
      <use xlink:href="#DejaVuSans-65" transform="translate(177.490234 0)"/>
     </g>
    </g>
   </g>
   <g id="matplotlib.axis_2">
    <g id="ytick_1">
     <g id="line2d_11">
      <path d="M 44.66 355.747273 
L 997.2 355.747273 
" clip-path="url(#pbaccff7901)" style="fill: none; stroke: #b0b0b0; stroke-opacity: 0.3; stroke-width: 0.8; stroke-linecap: square"/>
     </g>
     <g id="line2d_12">
      <defs>
       <path id="mb31d3dfad7" d="M 0 0 
L -3.5 0 
" style="stroke: #000000; stroke-width: 0.8"/>
      </defs>
      <g>
       <use xlink:href="#mb31d3dfad7" x="44.66" y="355.747273" style="stroke: #000000; stroke-width: 0.8"/>
      </g>
     </g>
     <g id="text_7">
      <!-- 10 -->
      <g transform="translate(24.935 359.546491) scale(0.1 -0.1)">
       <defs>
        <path id="DejaVuSans-31" d="M 794 531 
L 1825 531 
L 1825 4091 
L 703 3866 
L 703 4441 
L 1819 4666 
L 2450 4666 
L 2450 531 
L 3481 531 
L 3481 0 
L 794 0 
L 794 531 
z
" transform="scale(0.015625)"/>
       </defs>
       <use xlink:href="#DejaVuSans-31"/>
       <use xlink:href="#DejaVuSans-30" transform="translate(63.623047 0)"/>
      </g>
     </g>
    </g>
    <g id="ytick_2">
     <g id="line2d_13">
      <path d="M 44.66 310.023636 
L 997.2 310.023636 
" clip-path="url(#pbaccff7901)" style="fill: none; stroke: #b0b0b0; stroke-opacity: 0.3; stroke-width: 0.8; stroke-linecap: square"/>
     </g>
     <g id="line2d_14">
      <g>
       <use xlink:href="#mb31d3dfad7" x="44.66" y="310.023636" style="stroke: #000000; stroke-width: 0.8"/>
      </g>
     </g>
     <g id="text_8">
      <!-- 15 -->
      <g transform="translate(24.935 313.822855) scale(0.1 -0.1)">
       <use xlink:href="#DejaVuSans-31"/>
       <use xlink:href="#DejaVuSans-35" transform="translate(63.623047 0)"/>
      </g>
     </g>
    </g>
    <g id="ytick_3">
     <g id="line2d_15">
      <path d="M 44.66 264.3 
L 997.2 264.3 
" clip-path="url(#pbaccff7901)" style="fill: none; stroke: #b0b0b0; stroke-opacity: 0.3; stroke-width: 0.8; stroke-linecap: square"/>
     </g>
     <g id="line2d_16">
      <g>
       <use xlink:href="#mb31d3dfad7" x="44.66" y="264.3" style="stroke: #000000; stroke-width: 0.8"/>
      </g>
     </g>
     <g id="text_9">
      <!-- 20 -->
      <g transform="translate(24.935 268.099219) scale(0.1 -0.1)">
       <use xlink:href="#DejaVuSans-32"/>
       <use xlink:href="#DejaVuSans-30" transform="translate(63.623047 0)"/>
      </g>
     </g>
    </g>
    <g id="ytick_4">
     <g id="line2d_17">
      <path d="M 44.66 218.576364 
L 997.2 218.576364 
" clip-path="url(#pbaccff7901)" style="fill: none; stroke: #b0b0b0; stroke-opacity: 0.3; stroke-width: 0.8; stroke-linecap: square"/>
     </g>
     <g id="line2d_18">
      <g>
       <use xlink:href="#mb31d3dfad7" x="44.66" y="218.576364" style="stroke: #000000; stroke-width: 0.8"/>
      </g>
     </g>
     <g id="text_10">
      <!-- 25 -->
      <g transform="translate(24.935 222.375582) scale(0.1 -0.1)">
       <use xlink:href="#DejaVuSans-32"/>
       <use xlink:href="#DejaVuSans-35" transform="translate(63.623047 0)"/>
      </g>
     </g>
    </g>
    <g id="ytick_5">
     <g id="line2d_19">
      <path d="M 44.66 172.852727 
L 997.2 172.852727 
" clip-path="url(#pbaccff7901)" style="fill: none; stroke: #b0b0b0; stroke-opacity: 0.3; stroke-width: 0.8; stroke-linecap: square"/>
     </g>
     <g id="line2d_20">
      <g>
       <use xlink:href="#mb31d3dfad7" x="44.66" y="172.852727" style="stroke: #000000; stroke-width: 0.8"/>
      </g>
     </g>
     <g id="text_11">
      <!-- 30 -->
      <g transform="translate(24.935 176.651946) scale(0.1 -0.1)">
       <use xlink:href="#DejaVuSans-33"/>
       <use xlink:href="#DejaVuSans-30" transform="translate(63.623047 0)"/>
      </g>
     </g>
    </g>
    <g id="ytick_6">
     <g id="line2d_21">
      <path d="M 44.66 127.129091 
L 997.2 127.129091 
" clip-path="url(#pbaccff7901)" style="fill: none; stroke: #b0b0b0; stroke-opacity: 0.3; stroke-width: 0.8; stroke-linecap: square"/>
     </g>
     <g id="line2d_22">
      <g>
       <use xlink:href="#mb31d3dfad7" x="44.66" y="127.129091" style="stroke: #000000; stroke-width: 0.8"/>
      </g>
     </g>
     <g id="text_12">
      <!-- 35 -->
      <g transform="translate(24.935 130.92831) scale(0.1 -0.1)">
       <use xlink:href="#DejaVuSans-33"/>
       <use xlink:href="#DejaVuSans-35" transform="translate(63.623047 0)"/>
      </g>
     </g>
    </g>
    <g id="ytick_7">
     <g id="line2d_23">
      <path d="M 44.66 81.405455 
L 997.2 81.405455 
" clip-path="url(#pbaccff7901)" style="fill: none; stroke: #b0b0b0; stroke-opacity: 0.3; stroke-width: 0.8; stroke-linecap: square"/>
     </g>
     <g id="line2d_24">
      <g>
       <use xlink:href="#mb31d3dfad7" x="44.66" y="81.405455" style="stroke: #000000; stroke-width: 0.8"/>
      </g>
     </g>
     <g id="text_13">
      <!-- 40 -->
      <g transform="translate(24.935 85.204673) scale(0.1 -0.1)">
       <use xlink:href="#DejaVuSans-34"/>
       <use xlink:href="#DejaVuSans-30" transform="translate(63.623047 0)"/>
      </g>
     </g>
    </g>
    <g id="text_14">
     <!-- Nakamoto Coefficient (# of entities) -->
     <g transform="translate(18.855312 304.402437) rotate(-90) scale(0.1 -0.1)">
      <defs>
       <path id="DejaVuSans-4e" d="M 628 4666 
L 1478 4666 
L 3547 763 
L 3547 4666 
L 4159 4666 
L 4159 0 
L 3309 0 
L 1241 3903 
L 1241 0 
L 628 0 
L 628 4666 
z
" transform="scale(0.015625)"/>
       <path id="DejaVuSans-6b" d="M 581 4863 
L 1159 4863 
L 1159 1991 
L 2875 3500 
L 3609 3500 
L 1753 1863 
L 3688 0 
L 2938 0 
L 1159 1709 
L 1159 0 
L 581 0 
L 581 4863 
z
" transform="scale(0.015625)"/>
       <path id="DejaVuSans-6d" d="M 3328 2828 
Q 3544 3216 3844 3400 
Q 4144 3584 4550 3584 
Q 5097 3584 5394 3201 
Q 5691 2819 5691 2113 
L 5691 0 
L 5113 0 
L 5113 2094 
Q 5113 2597 4934 2840 
Q 4756 3084 4391 3084 
Q 3944 3084 3684 2787 
Q 3425 2491 3425 1978 
L 3425 0 
L 2847 0 
L 2847 2094 
Q 2847 2600 2669 2842 
Q 2491 3084 2119 3084 
Q 1678 3084 1418 2786 
Q 1159 2488 1159 1978 
L 1159 0 
L 581 0 
L 581 3500 
L 1159 3500 
L 1159 2956 
Q 1356 3278 1631 3431 
Q 1906 3584 2284 3584 
Q 2666 3584 2933 3390 
Q 3200 3197 3328 2828 
z
" transform="scale(0.015625)"/>
       <path id="DejaVuSans-6f" d="M 1959 3097 
Q 1497 3097 1228 2736 
Q 959 2375 959 1747 
Q 959 1119 1226 758 
Q 1494 397 1959 397 
Q 2419 397 2687 759 
Q 2956 1122 2956 1747 
Q 2956 2369 2687 2733 
Q 2419 3097 1959 3097 
z
M 1959 3584 
Q 2709 3584 3137 3096 
Q 3566 2609 3566 1747 
Q 3566 888 3137 398 
Q 2709 -91 1959 -91 
Q 1206 -91 779 398 
Q 353 888 353 1747 
Q 353 2609 779 3096 
Q 1206 3584 1959 3584 
z
" transform="scale(0.015625)"/>
       <path id="DejaVuSans-20" transform="scale(0.015625)"/>
       <path id="DejaVuSans-43" d="M 4122 4306 
L 4122 3641 
Q 3803 3938 3442 4084 
Q 3081 4231 2675 4231 
Q 1875 4231 1450 3742 
Q 1025 3253 1025 2328 
Q 1025 1406 1450 917 
Q 1875 428 2675 428 
Q 3081 428 3442 575 
Q 3803 722 4122 1019 
L 4122 359 
Q 3791 134 3420 21 
Q 3050 -91 2638 -91 
Q 1578 -91 968 557 
Q 359 1206 359 2328 
Q 359 3453 968 4101 
Q 1578 4750 2638 4750 
Q 3056 4750 3426 4639 
Q 3797 4528 4122 4306 
z
" transform="scale(0.015625)"/>
       <path id="DejaVuSans-66" d="M 2375 4863 
L 2375 4384 
L 1825 4384 
Q 1516 4384 1395 4259 
Q 1275 4134 1275 3809 
L 1275 3500 
L 2222 3500 
L 2222 3053 
L 1275 3053 
L 1275 0 
L 697 0 
L 697 3053 
L 147 3053 
L 147 3500 
L 697 3500 
L 697 3744 
Q 697 4328 969 4595 
Q 1241 4863 1831 4863 
L 2375 4863 
z
" transform="scale(0.015625)"/>
       <path id="DejaVuSans-69" d="M 603 3500 
L 1178 3500 
L 1178 0 
L 603 0 
L 603 3500 
z
M 603 4863 
L 1178 4863 
L 1178 4134 
L 603 4134 
L 603 4863 
z
" transform="scale(0.015625)"/>
       <path id="DejaVuSans-63" d="M 3122 3366 
L 3122 2828 
Q 2878 2963 2633 3030 
Q 2388 3097 2138 3097 
Q 1578 3097 1268 2742 
Q 959 2388 959 1747 
Q 959 1106 1268 751 
Q 1578 397 2138 397 
Q 2388 397 2633 464 
Q 2878 531 3122 666 
L 3122 134 
Q 2881 22 2623 -34 
Q 2366 -91 2075 -91 
Q 1284 -91 818 406 
Q 353 903 353 1747 
Q 353 2603 823 3093 
Q 1294 3584 2113 3584 
Q 2378 3584 2631 3529 
Q 2884 3475 3122 3366 
z
" transform="scale(0.015625)"/>
       <path id="DejaVuSans-6e" d="M 3513 2113 
L 3513 0 
L 2938 0 
L 2938 2094 
Q 2938 2591 2744 2837 
Q 2550 3084 2163 3084 
Q 1697 3084 1428 2787 
Q 1159 2491 1159 1978 
L 1159 0 
L 581 0 
L 581 3500 
L 1159 3500 
L 1159 2956 
Q 1366 3272 1645 3428 
Q 1925 3584 2291 3584 
Q 2894 3584 3203 3211 
Q 3513 2838 3513 2113 
z
" transform="scale(0.015625)"/>
       <path id="DejaVuSans-28" d="M 1984 4856 
Q 1566 4138 1362 3434 
Q 1159 2731 1159 2009 
Q 1159 1288 1364 580 
Q 1569 -128 1984 -844 
L 1484 -844 
Q 1016 -109 783 600 
Q 550 1309 550 2009 
Q 550 2706 781 3412 
Q 1013 4119 1484 4856 
L 1984 4856 
z
" transform="scale(0.015625)"/>
       <path id="DejaVuSans-23" d="M 3272 2816 
L 2363 2816 
L 2100 1772 
L 3016 1772 
L 3272 2816 
z
M 2803 4594 
L 2478 3297 
L 3391 3297 
L 3719 4594 
L 4219 4594 
L 3897 3297 
L 4872 3297 
L 4872 2816 
L 3775 2816 
L 3519 1772 
L 4513 1772 
L 4513 1294 
L 3397 1294 
L 3072 0 
L 2572 0 
L 2894 1294 
L 1978 1294 
L 1656 0 
L 1153 0 
L 1478 1294 
L 494 1294 
L 494 1772 
L 1594 1772 
L 1856 2816 
L 850 2816 
L 850 3297 
L 1978 3297 
L 2297 4594 
L 2803 4594 
z
" transform="scale(0.015625)"/>
       <path id="DejaVuSans-73" d="M 2834 3397 
L 2834 2853 
Q 2591 2978 2328 3040 
Q 2066 3103 1784 3103 
Q 1356 3103 1142 2972 
Q 928 2841 928 2578 
Q 928 2378 1081 2264 
Q 1234 2150 1697 2047 
L 1894 2003 
Q 2506 1872 2764 1633 
Q 3022 1394 3022 966 
Q 3022 478 2636 193 
Q 2250 -91 1575 -91 
Q 1294 -91 989 -36 
Q 684 19 347 128 
L 347 722 
Q 666 556 975 473 
Q 1284 391 1588 391 
Q 1994 391 2212 530 
Q 2431 669 2431 922 
Q 2431 1156 2273 1281 
Q 2116 1406 1581 1522 
L 1381 1569 
Q 847 1681 609 1914 
Q 372 2147 372 2553 
Q 372 3047 722 3315 
Q 1072 3584 1716 3584 
Q 2034 3584 2315 3537 
Q 2597 3491 2834 3397 
z
" transform="scale(0.015625)"/>
       <path id="DejaVuSans-29" d="M 513 4856 
L 1013 4856 
Q 1481 4119 1714 3412 
Q 1947 2706 1947 2009 
Q 1947 1309 1714 600 
Q 1481 -109 1013 -844 
L 513 -844 
Q 928 -128 1133 580 
Q 1338 1288 1338 2009 
Q 1338 2731 1133 3434 
Q 928 4138 513 4856 
z
" transform="scale(0.015625)"/>
      </defs>
      <use xlink:href="#DejaVuSans-4e"/>
      <use xlink:href="#DejaVuSans-61" transform="translate(74.804688 0)"/>
      <use xlink:href="#DejaVuSans-6b" transform="translate(136.083984 0)"/>
      <use xlink:href="#DejaVuSans-61" transform="translate(192.244141 0)"/>
      <use xlink:href="#DejaVuSans-6d" transform="translate(253.523438 0)"/>
      <use xlink:href="#DejaVuSans-6f" transform="translate(350.935547 0)"/>
      <use xlink:href="#DejaVuSans-74" transform="translate(412.117188 0)"/>
      <use xlink:href="#DejaVuSans-6f" transform="translate(451.326172 0)"/>
      <use xlink:href="#DejaVuSans-20" transform="translate(512.507812 0)"/>
      <use xlink:href="#DejaVuSans-43" transform="translate(544.294922 0)"/>
      <use xlink:href="#DejaVuSans-6f" transform="translate(614.119141 0)"/>
      <use xlink:href="#DejaVuSans-65" transform="translate(675.300781 0)"/>
      <use xlink:href="#DejaVuSans-66" transform="translate(736.824219 0)"/>
      <use xlink:href="#DejaVuSans-66" transform="translate(772.029297 0)"/>
      <use xlink:href="#DejaVuSans-69" transform="translate(807.234375 0)"/>
      <use xlink:href="#DejaVuSans-63" transform="translate(835.017578 0)"/>
      <use xlink:href="#DejaVuSans-69" transform="translate(889.998047 0)"/>
      <use xlink:href="#DejaVuSans-65" transform="translate(917.78125 0)"/>
      <use xlink:href="#DejaVuSans-6e" transform="translate(979.304688 0)"/>
      <use xlink:href="#DejaVuSans-74" transform="translate(1042.683594 0)"/>
      <use xlink:href="#DejaVuSans-20" transform="translate(1081.892578 0)"/>
      <use xlink:href="#DejaVuSans-28" transform="translate(1113.679688 0)"/>
      <use xlink:href="#DejaVuSans-23" transform="translate(1152.693359 0)"/>
      <use xlink:href="#DejaVuSans-20" transform="translate(1236.482422 0)"/>
      <use xlink:href="#DejaVuSans-6f" transform="translate(1268.269531 0)"/>
      <use xlink:href="#DejaVuSans-66" transform="translate(1329.451172 0)"/>
      <use xlink:href="#DejaVuSans-20" transform="translate(1364.65625 0)"/>
      <use xlink:href="#DejaVuSans-65" transform="translate(1396.443359 0)"/>
      <use xlink:href="#DejaVuSans-6e" transform="translate(1457.966797 0)"/>
      <use xlink:href="#DejaVuSans-74" transform="translate(1521.345703 0)"/>
      <use xlink:href="#DejaVuSans-69" transform="translate(1560.554688 0)"/>
      <use xlink:href="#DejaVuSans-74" transform="translate(1588.337891 0)"/>
      <use xlink:href="#DejaVuSans-69" transform="translate(1627.546875 0)"/>
      <use xlink:href="#DejaVuSans-65" transform="translate(1655.330078 0)"/>
      <use xlink:href="#DejaVuSans-73" transform="translate(1716.853516 0)"/>
      <use xlink:href="#DejaVuSans-29" transform="translate(1768.953125 0)"/>
     </g>
    </g>
   </g>
   <g id="line2d_25">
    <path d="M 87.957273 374.036727 
L 135.491271 355.747273 
L 183.02527 355.747273 
L 229.525921 310.023636 
L 276.543246 273.444727 
L 324.077245 310.023636 
L 371.611243 346.602545 
L 418.111894 346.602545 
L 465.129219 282.589455 
L 512.663218 291.734182 
L 560.197216 236.865818 
L 607.214541 264.3 
L 654.231866 255.155273 
L 701.765865 246.010545 
L 749.299863 273.444727 
L 795.800514 291.734182 
L 842.817839 291.734182 
L 890.351838 319.168364 
L 926.519011 310.023636 
L 953.902727 346.602545 
" clip-path="url(#pbaccff7901)" style="fill: none; stroke: #006400; stroke-width: 2; stroke-linecap: square"/>
    <defs>
     <path id="m600a5712c0" d="M 0 3 
C 0.795609 3 1.55874 2.683901 2.12132 2.12132 
C 2.683901 1.55874 3 0.795609 3 0 
C 3 -0.795609 2.683901 -1.55874 2.12132 -2.12132 
C 1.55874 -2.683901 0.795609 -3 0 -3 
C -0.795609 -3 -1.55874 -2.683901 -2.12132 -2.12132 
C -2.683901 -1.55874 -3 -0.795609 -3 0 
C -3 0.795609 -2.683901 1.55874 -2.12132 2.12132 
C -1.55874 2.683901 -0.795609 3 0 3 
z
" style="stroke: #006400"/>
    </defs>
    <g clip-path="url(#pbaccff7901)">
     <use xlink:href="#m600a5712c0" x="87.957273" y="374.036727" style="fill: #006400; stroke: #006400"/>
     <use xlink:href="#m600a5712c0" x="135.491271" y="355.747273" style="fill: #006400; stroke: #006400"/>
     <use xlink:href="#m600a5712c0" x="183.02527" y="355.747273" style="fill: #006400; stroke: #006400"/>
     <use xlink:href="#m600a5712c0" x="229.525921" y="310.023636" style="fill: #006400; stroke: #006400"/>
     <use xlink:href="#m600a5712c0" x="276.543246" y="273.444727" style="fill: #006400; stroke: #006400"/>
     <use xlink:href="#m600a5712c0" x="324.077245" y="310.023636" style="fill: #006400; stroke: #006400"/>
     <use xlink:href="#m600a5712c0" x="371.611243" y="346.602545" style="fill: #006400; stroke: #006400"/>
     <use xlink:href="#m600a5712c0" x="418.111894" y="346.602545" style="fill: #006400; stroke: #006400"/>
     <use xlink:href="#m600a5712c0" x="465.129219" y="282.589455" style="fill: #006400; stroke: #006400"/>
     <use xlink:href="#m600a5712c0" x="512.663218" y="291.734182" style="fill: #006400; stroke: #006400"/>
     <use xlink:href="#m600a5712c0" x="560.197216" y="236.865818" style="fill: #006400; stroke: #006400"/>
     <use xlink:href="#m600a5712c0" x="607.214541" y="264.3" style="fill: #006400; stroke: #006400"/>
     <use xlink:href="#m600a5712c0" x="654.231866" y="255.155273" style="fill: #006400; stroke: #006400"/>
     <use xlink:href="#m600a5712c0" x="701.765865" y="246.010545" style="fill: #006400; stroke: #006400"/>
     <use xlink:href="#m600a5712c0" x="749.299863" y="273.444727" style="fill: #006400; stroke: #006400"/>
     <use xlink:href="#m600a5712c0" x="795.800514" y="291.734182" style="fill: #006400; stroke: #006400"/>
     <use xlink:href="#m600a5712c0" x="842.817839" y="291.734182" style="fill: #006400; stroke: #006400"/>
     <use xlink:href="#m600a5712c0" x="890.351838" y="319.168364" style="fill: #006400; stroke: #006400"/>
     <use xlink:href="#m600a5712c0" x="926.519011" y="310.023636" style="fill: #006400; stroke: #006400"/>
     <use xlink:href="#m600a5712c0" x="953.902727" y="346.602545" style="fill: #006400; stroke: #006400"/>
    </g>
   </g>
   <g id="line2d_26">
    <path d="M 87.957273 346.602545 
L 135.491271 328.313091 
L 183.02527 337.457818 
L 229.525921 291.734182 
L 276.543246 255.155273 
L 324.077245 291.734182 
L 371.611243 328.313091 
L 418.111894 328.313091 
L 465.129219 255.155273 
L 512.663218 264.3 
L 560.197216 218.576364 
L 607.214541 246.010545 
L 654.231866 227.721091 
L 701.765865 227.721091 
L 749.299863 246.010545 
L 795.800514 264.3 
L 842.817839 273.444727 
L 890.351838 300.878909 
L 926.519011 282.589455 
L 953.902727 328.313091 
" clip-path="url(#pbaccff7901)" style="fill: none; stroke: #ff8c00; stroke-width: 2; stroke-linecap: square"/>
    <defs>
     <path id="m1e0bc65924" d="M -3 3 
L 3 3 
L 3 -3 
L -3 -3 
z
" style="stroke: #ff8c00; stroke-linejoin: miter"/>
    </defs>
    <g clip-path="url(#pbaccff7901)">
     <use xlink:href="#m1e0bc65924" x="87.957273" y="346.602545" style="fill: #ff8c00; stroke: #ff8c00; stroke-linejoin: miter"/>
     <use xlink:href="#m1e0bc65924" x="135.491271" y="328.313091" style="fill: #ff8c00; stroke: #ff8c00; stroke-linejoin: miter"/>
     <use xlink:href="#m1e0bc65924" x="183.02527" y="337.457818" style="fill: #ff8c00; stroke: #ff8c00; stroke-linejoin: miter"/>
     <use xlink:href="#m1e0bc65924" x="229.525921" y="291.734182" style="fill: #ff8c00; stroke: #ff8c00; stroke-linejoin: miter"/>
     <use xlink:href="#m1e0bc65924" x="276.543246" y="255.155273" style="fill: #ff8c00; stroke: #ff8c00; stroke-linejoin: miter"/>
     <use xlink:href="#m1e0bc65924" x="324.077245" y="291.734182" style="fill: #ff8c00; stroke: #ff8c00; stroke-linejoin: miter"/>
     <use xlink:href="#m1e0bc65924" x="371.611243" y="328.313091" style="fill: #ff8c00; stroke: #ff8c00; stroke-linejoin: miter"/>
     <use xlink:href="#m1e0bc65924" x="418.111894" y="328.313091" style="fill: #ff8c00; stroke: #ff8c00; stroke-linejoin: miter"/>
     <use xlink:href="#m1e0bc65924" x="465.129219" y="255.155273" style="fill: #ff8c00; stroke: #ff8c00; stroke-linejoin: miter"/>
     <use xlink:href="#m1e0bc65924" x="512.663218" y="264.3" style="fill: #ff8c00; stroke: #ff8c00; stroke-linejoin: miter"/>
     <use xlink:href="#m1e0bc65924" x="560.197216" y="218.576364" style="fill: #ff8c00; stroke: #ff8c00; stroke-linejoin: miter"/>
     <use xlink:href="#m1e0bc65924" x="607.214541" y="246.010545" style="fill: #ff8c00; stroke: #ff8c00; stroke-linejoin: miter"/>
     <use xlink:href="#m1e0bc65924" x="654.231866" y="227.721091" style="fill: #ff8c00; stroke: #ff8c00; stroke-linejoin: miter"/>
     <use xlink:href="#m1e0bc65924" x="701.765865" y="227.721091" style="fill: #ff8c00; stroke: #ff8c00; stroke-linejoin: miter"/>
     <use xlink:href="#m1e0bc65924" x="749.299863" y="246.010545" style="fill: #ff8c00; stroke: #ff8c00; stroke-linejoin: miter"/>
     <use xlink:href="#m1e0bc65924" x="795.800514" y="264.3" style="fill: #ff8c00; stroke: #ff8c00; stroke-linejoin: miter"/>
     <use xlink:href="#m1e0bc65924" x="842.817839" y="273.444727" style="fill: #ff8c00; stroke: #ff8c00; stroke-linejoin: miter"/>
     <use xlink:href="#m1e0bc65924" x="890.351838" y="300.878909" style="fill: #ff8c00; stroke: #ff8c00; stroke-linejoin: miter"/>
     <use xlink:href="#m1e0bc65924" x="926.519011" y="282.589455" style="fill: #ff8c00; stroke: #ff8c00; stroke-linejoin: miter"/>
     <use xlink:href="#m1e0bc65924" x="953.902727" y="328.313091" style="fill: #ff8c00; stroke: #ff8c00; stroke-linejoin: miter"/>
    </g>
   </g>
   <g id="line2d_27">
    <path d="M 87.957273 200.286909 
L 135.491271 181.997455 
L 183.02527 191.142182 
L 229.525921 127.129091 
L 276.543246 81.405455 
L 324.077245 136.273818 
L 371.611243 227.721091 
L 418.111894 227.721091 
L 465.129219 90.550182 
L 512.663218 99.694909 
L 560.197216 72.260727 
L 607.214541 90.550182 
L 654.231866 63.116 
L 701.765865 53.971273 
L 749.299863 81.405455 
L 795.800514 90.550182 
L 842.817839 90.550182 
L 890.351838 145.418545 
L 926.519011 108.839636 
L 953.902727 172.852727 
" clip-path="url(#pbaccff7901)" style="fill: none; stroke: #9400d3; stroke-width: 2; stroke-linecap: square"/>
    <defs>
     <path id="m11abcbbb76" d="M 0 -3 
L -3 3 
L 3 3 
z
" style="stroke: #9400d3; stroke-linejoin: miter"/>
    </defs>
    <g clip-path="url(#pbaccff7901)">
     <use xlink:href="#m11abcbbb76" x="87.957273" y="200.286909" style="fill: #9400d3; stroke: #9400d3; stroke-linejoin: miter"/>
     <use xlink:href="#m11abcbbb76" x="135.491271" y="181.997455" style="fill: #9400d3; stroke: #9400d3; stroke-linejoin: miter"/>
     <use xlink:href="#m11abcbbb76" x="183.02527" y="191.142182" style="fill: #9400d3; stroke: #9400d3; stroke-linejoin: miter"/>
     <use xlink:href="#m11abcbbb76" x="229.525921" y="127.129091" style="fill: #9400d3; stroke: #9400d3; stroke-linejoin: miter"/>
     <use xlink:href="#m11abcbbb76" x="276.543246" y="81.405455" style="fill: #9400d3; stroke: #9400d3; stroke-linejoin: miter"/>
     <use xlink:href="#m11abcbbb76" x="324.077245" y="136.273818" style="fill: #9400d3; stroke: #9400d3; stroke-linejoin: miter"/>
     <use xlink:href="#m11abcbbb76" x="371.611243" y="227.721091" style="fill: #9400d3; stroke: #9400d3; stroke-linejoin: miter"/>
     <use xlink:href="#m11abcbbb76" x="418.111894" y="227.721091" style="fill: #9400d3; stroke: #9400d3; stroke-linejoin: miter"/>
     <use xlink:href="#m11abcbbb76" x="465.129219" y="90.550182" style="fill: #9400d3; stroke: #9400d3; stroke-linejoin: miter"/>
     <use xlink:href="#m11abcbbb76" x="512.663218" y="99.694909" style="fill: #9400d3; stroke: #9400d3; stroke-linejoin: miter"/>
     <use xlink:href="#m11abcbbb76" x="560.197216" y="72.260727" style="fill: #9400d3; stroke: #9400d3; stroke-linejoin: miter"/>
     <use xlink:href="#m11abcbbb76" x="607.214541" y="90.550182" style="fill: #9400d3; stroke: #9400d3; stroke-linejoin: miter"/>
     <use xlink:href="#m11abcbbb76" x="654.231866" y="63.116" style="fill: #9400d3; stroke: #9400d3; stroke-linejoin: miter"/>
     <use xlink:href="#m11abcbbb76" x="701.765865" y="53.971273" style="fill: #9400d3; stroke: #9400d3; stroke-linejoin: miter"/>
     <use xlink:href="#m11abcbbb76" x="749.299863" y="81.405455" style="fill: #9400d3; stroke: #9400d3; stroke-linejoin: miter"/>
     <use xlink:href="#m11abcbbb76" x="795.800514" y="90.550182" style="fill: #9400d3; stroke: #9400d3; stroke-linejoin: miter"/>
     <use xlink:href="#m11abcbbb76" x="842.817839" y="90.550182" style="fill: #9400d3; stroke: #9400d3; stroke-linejoin: miter"/>
     <use xlink:href="#m11abcbbb76" x="890.351838" y="145.418545" style="fill: #9400d3; stroke: #9400d3; stroke-linejoin: miter"/>
     <use xlink:href="#m11abcbbb76" x="926.519011" y="108.839636" style="fill: #9400d3; stroke: #9400d3; stroke-linejoin: miter"/>
     <use xlink:href="#m11abcbbb76" x="953.902727" y="172.852727" style="fill: #9400d3; stroke: #9400d3; stroke-linejoin: miter"/>
    </g>
   </g>
   <g id="patch_3">
    <path d="M 44.66 390.04 
L 44.66 37.968 
" style="fill: none; stroke: #000000; stroke-width: 0.8; stroke-linejoin: miter; stroke-linecap: square"/>
   </g>
   <g id="patch_4">
    <path d="M 997.2 390.04 
L 997.2 37.968 
" style="fill: none; stroke: #000000; stroke-width: 0.8; stroke-linejoin: miter; stroke-linecap: square"/>
   </g>
   <g id="patch_5">
    <path d="M 44.66 390.04 
L 997.2 390.04 
" style="fill: none; stroke: #000000; stroke-width: 0.8; stroke-linejoin: miter; stroke-linecap: square"/>
   </g>
   <g id="patch_6">
    <path d="M 44.66 37.968 
L 997.2 37.968 
" style="fill: none; stroke: #000000; stroke-width: 0.8; stroke-linejoin: miter; stroke-linecap: square"/>
   </g>
   <g id="text_15">
    <!-- Avalanche Nakamoto Coefficient Over Time -->
    <g transform="translate(374.232813 18.530625) scale(0.12 -0.12)">
     <defs>
      <path id="DejaVuSans-Bold-41" d="M 3419 850 
L 1538 850 
L 1241 0 
L 31 0 
L 1759 4666 
L 3194 4666 
L 4922 0 
L 3713 0 
L 3419 850 
z
M 1838 1716 
L 3116 1716 
L 2478 3572 
L 1838 1716 
z
" transform="scale(0.015625)"/>
      <path id="DejaVuSans-Bold-76" d="M 97 3500 
L 1216 3500 
L 2088 1081 
L 2956 3500 
L 4078 3500 
L 2700 0 
L 1472 0 
L 97 3500 
z
" transform="scale(0.015625)"/>
      <path id="DejaVuSans-Bold-61" d="M 2106 1575 
Q 1756 1575 1579 1456 
Q 1403 1338 1403 1106 
Q 1403 894 1545 773 
Q 1688 653 1941 653 
Q 2256 653 2472 879 
Q 2688 1106 2688 1447 
L 2688 1575 
L 2106 1575 
z
M 3816 1997 
L 3816 0 
L 2688 0 
L 2688 519 
Q 2463 200 2181 54 
Q 1900 -91 1497 -91 
Q 953 -91 614 226 
Q 275 544 275 1050 
Q 275 1666 698 1953 
Q 1122 2241 2028 2241 
L 2688 2241 
L 2688 2328 
Q 2688 2594 2478 2717 
Q 2269 2841 1825 2841 
Q 1466 2841 1156 2769 
Q 847 2697 581 2553 
L 581 3406 
Q 941 3494 1303 3539 
Q 1666 3584 2028 3584 
Q 2975 3584 3395 3211 
Q 3816 2838 3816 1997 
z
" transform="scale(0.015625)"/>
      <path id="DejaVuSans-Bold-6c" d="M 538 4863 
L 1656 4863 
L 1656 0 
L 538 0 
L 538 4863 
z
" transform="scale(0.015625)"/>
      <path id="DejaVuSans-Bold-6e" d="M 4056 2131 
L 4056 0 
L 2931 0 
L 2931 347 
L 2931 1631 
Q 2931 2084 2911 2256 
Q 2891 2428 2841 2509 
Q 2775 2619 2662 2680 
Q 2550 2741 2406 2741 
Q 2056 2741 1856 2470 
Q 1656 2200 1656 1722 
L 1656 0 
L 538 0 
L 538 3500 
L 1656 3500 
L 1656 2988 
Q 1909 3294 2193 3439 
Q 2478 3584 2822 3584 
Q 3428 3584 3742 3212 
Q 4056 2841 4056 2131 
z
" transform="scale(0.015625)"/>
      <path id="DejaVuSans-Bold-63" d="M 3366 3391 
L 3366 2478 
Q 3138 2634 2908 2709 
Q 2678 2784 2431 2784 
Q 1963 2784 1702 2511 
Q 1441 2238 1441 1747 
Q 1441 1256 1702 982 
Q 1963 709 2431 709 
Q 2694 709 2930 787 
Q 3166 866 3366 1019 
L 3366 103 
Q 3103 6 2833 -42 
Q 2563 -91 2291 -91 
Q 1344 -91 809 395 
Q 275 881 275 1747 
Q 275 2613 809 3098 
Q 1344 3584 2291 3584 
Q 2566 3584 2833 3536 
Q 3100 3488 3366 3391 
z
" transform="scale(0.015625)"/>
      <path id="DejaVuSans-Bold-68" d="M 4056 2131 
L 4056 0 
L 2931 0 
L 2931 347 
L 2931 1625 
Q 2931 2084 2911 2256 
Q 2891 2428 2841 2509 
Q 2775 2619 2662 2680 
Q 2550 2741 2406 2741 
Q 2056 2741 1856 2470 
Q 1656 2200 1656 1722 
L 1656 0 
L 538 0 
L 538 4863 
L 1656 4863 
L 1656 2988 
Q 1909 3294 2193 3439 
Q 2478 3584 2822 3584 
Q 3428 3584 3742 3212 
Q 4056 2841 4056 2131 
z
" transform="scale(0.015625)"/>
      <path id="DejaVuSans-Bold-65" d="M 4031 1759 
L 4031 1441 
L 1416 1441 
Q 1456 1047 1700 850 
Q 1944 653 2381 653 
Q 2734 653 3104 758 
Q 3475 863 3866 1075 
L 3866 213 
Q 3469 63 3072 -14 
Q 2675 -91 2278 -91 
Q 1328 -91 801 392 
Q 275 875 275 1747 
Q 275 2603 792 3093 
Q 1309 3584 2216 3584 
Q 3041 3584 3536 3087 
Q 4031 2591 4031 1759 
z
M 2881 2131 
Q 2881 2450 2695 2645 
Q 2509 2841 2209 2841 
Q 1884 2841 1681 2658 
Q 1478 2475 1428 2131 
L 2881 2131 
z
" transform="scale(0.015625)"/>
      <path id="DejaVuSans-Bold-20" transform="scale(0.015625)"/>
      <path id="DejaVuSans-Bold-4e" d="M 588 4666 
L 1931 4666 
L 3628 1466 
L 3628 4666 
L 4769 4666 
L 4769 0 
L 3425 0 
L 1728 3200 
L 1728 0 
L 588 0 
L 588 4666 
z
" transform="scale(0.015625)"/>
      <path id="DejaVuSans-Bold-6b" d="M 538 4863 
L 1656 4863 
L 1656 2216 
L 2944 3500 
L 4244 3500 
L 2534 1894 
L 4378 0 
L 3022 0 
L 1656 1459 
L 1656 0 
L 538 0 
L 538 4863 
z
" transform="scale(0.015625)"/>
      <path id="DejaVuSans-Bold-6d" d="M 3781 2919 
Q 3994 3244 4286 3414 
Q 4578 3584 4928 3584 
Q 5531 3584 5847 3212 
Q 6163 2841 6163 2131 
L 6163 0 
L 5038 0 
L 5038 1825 
Q 5041 1866 5042 1909 
Q 5044 1953 5044 2034 
Q 5044 2406 4934 2573 
Q 4825 2741 4581 2741 
Q 4263 2741 4089 2478 
Q 3916 2216 3909 1719 
L 3909 0 
L 2784 0 
L 2784 1825 
Q 2784 2406 2684 2573 
Q 2584 2741 2328 2741 
Q 2006 2741 1831 2477 
Q 1656 2213 1656 1722 
L 1656 0 
L 531 0 
L 531 3500 
L 1656 3500 
L 1656 2988 
Q 1863 3284 2130 3434 
Q 2397 3584 2719 3584 
Q 3081 3584 3359 3409 
Q 3638 3234 3781 2919 
z
" transform="scale(0.015625)"/>
      <path id="DejaVuSans-Bold-6f" d="M 2203 2784 
Q 1831 2784 1636 2517 
Q 1441 2250 1441 1747 
Q 1441 1244 1636 976 
Q 1831 709 2203 709 
Q 2569 709 2762 976 
Q 2956 1244 2956 1747 
Q 2956 2250 2762 2517 
Q 2569 2784 2203 2784 
z
M 2203 3584 
Q 3106 3584 3614 3096 
Q 4122 2609 4122 1747 
Q 4122 884 3614 396 
Q 3106 -91 2203 -91 
Q 1297 -91 786 396 
Q 275 884 275 1747 
Q 275 2609 786 3096 
Q 1297 3584 2203 3584 
z
" transform="scale(0.015625)"/>
      <path id="DejaVuSans-Bold-74" d="M 1759 4494 
L 1759 3500 
L 2913 3500 
L 2913 2700 
L 1759 2700 
L 1759 1216 
Q 1759 972 1856 886 
Q 1953 800 2241 800 
L 2816 800 
L 2816 0 
L 1856 0 
Q 1194 0 917 276 
Q 641 553 641 1216 
L 641 2700 
L 84 2700 
L 84 3500 
L 641 3500 
L 641 4494 
L 1759 4494 
z
" transform="scale(0.015625)"/>
      <path id="DejaVuSans-Bold-43" d="M 4288 256 
Q 3956 84 3597 -3 
Q 3238 -91 2847 -91 
Q 1681 -91 1000 561 
Q 319 1213 319 2328 
Q 319 3447 1000 4098 
Q 1681 4750 2847 4750 
Q 3238 4750 3597 4662 
Q 3956 4575 4288 4403 
L 4288 3438 
Q 3953 3666 3628 3772 
Q 3303 3878 2944 3878 
Q 2300 3878 1931 3465 
Q 1563 3053 1563 2328 
Q 1563 1606 1931 1193 
Q 2300 781 2944 781 
Q 3303 781 3628 887 
Q 3953 994 4288 1222 
L 4288 256 
z
" transform="scale(0.015625)"/>
      <path id="DejaVuSans-Bold-66" d="M 2841 4863 
L 2841 4128 
L 2222 4128 
Q 1984 4128 1890 4042 
Q 1797 3956 1797 3744 
L 1797 3500 
L 2753 3500 
L 2753 2700 
L 1797 2700 
L 1797 0 
L 678 0 
L 678 2700 
L 122 2700 
L 122 3500 
L 678 3500 
L 678 3744 
Q 678 4316 997 4589 
Q 1316 4863 1984 4863 
L 2841 4863 
z
" transform="scale(0.015625)"/>
      <path id="DejaVuSans-Bold-69" d="M 538 3500 
L 1656 3500 
L 1656 0 
L 538 0 
L 538 3500 
z
M 538 4863 
L 1656 4863 
L 1656 3950 
L 538 3950 
L 538 4863 
z
" transform="scale(0.015625)"/>
      <path id="DejaVuSans-Bold-4f" d="M 2719 3878 
Q 2169 3878 1866 3472 
Q 1563 3066 1563 2328 
Q 1563 1594 1866 1187 
Q 2169 781 2719 781 
Q 3272 781 3575 1187 
Q 3878 1594 3878 2328 
Q 3878 3066 3575 3472 
Q 3272 3878 2719 3878 
z
M 2719 4750 
Q 3844 4750 4481 4106 
Q 5119 3463 5119 2328 
Q 5119 1197 4481 553 
Q 3844 -91 2719 -91 
Q 1597 -91 958 553 
Q 319 1197 319 2328 
Q 319 3463 958 4106 
Q 1597 4750 2719 4750 
z
" transform="scale(0.015625)"/>
      <path id="DejaVuSans-Bold-72" d="M 3138 2547 
Q 2991 2616 2845 2648 
Q 2700 2681 2553 2681 
Q 2122 2681 1889 2404 
Q 1656 2128 1656 1613 
L 1656 0 
L 538 0 
L 538 3500 
L 1656 3500 
L 1656 2925 
Q 1872 3269 2151 3426 
Q 2431 3584 2822 3584 
Q 2878 3584 2943 3579 
Q 3009 3575 3134 3559 
L 3138 2547 
z
" transform="scale(0.015625)"/>
      <path id="DejaVuSans-Bold-54" d="M 31 4666 
L 4331 4666 
L 4331 3756 
L 2784 3756 
L 2784 0 
L 1581 0 
L 1581 3756 
L 31 3756 
L 31 4666 
z
" transform="scale(0.015625)"/>
     </defs>
     <use xlink:href="#DejaVuSans-Bold-41"/>
     <use xlink:href="#DejaVuSans-Bold-76" transform="translate(73.767578 0)"/>
     <use xlink:href="#DejaVuSans-Bold-61" transform="translate(138.953125 0)"/>
     <use xlink:href="#DejaVuSans-Bold-6c" transform="translate(206.433594 0)"/>
     <use xlink:href="#DejaVuSans-Bold-61" transform="translate(240.710938 0)"/>
     <use xlink:href="#DejaVuSans-Bold-6e" transform="translate(308.191406 0)"/>
     <use xlink:href="#DejaVuSans-Bold-63" transform="translate(379.382812 0)"/>
     <use xlink:href="#DejaVuSans-Bold-68" transform="translate(438.660156 0)"/>
     <use xlink:href="#DejaVuSans-Bold-65" transform="translate(509.851562 0)"/>
     <use xlink:href="#DejaVuSans-Bold-20" transform="translate(577.673828 0)"/>
     <use xlink:href="#DejaVuSans-Bold-4e" transform="translate(612.488281 0)"/>
     <use xlink:href="#DejaVuSans-Bold-61" transform="translate(696.179688 0)"/>
     <use xlink:href="#DejaVuSans-Bold-6b" transform="translate(763.660156 0)"/>
     <use xlink:href="#DejaVuSans-Bold-61" transform="translate(830.164062 0)"/>
     <use xlink:href="#DejaVuSans-Bold-6d" transform="translate(897.644531 0)"/>
     <use xlink:href="#DejaVuSans-Bold-6f" transform="translate(1001.84375 0)"/>
     <use xlink:href="#DejaVuSans-Bold-74" transform="translate(1070.544922 0)"/>
     <use xlink:href="#DejaVuSans-Bold-6f" transform="translate(1118.347656 0)"/>
     <use xlink:href="#DejaVuSans-Bold-20" transform="translate(1187.048828 0)"/>
     <use xlink:href="#DejaVuSans-Bold-43" transform="translate(1221.863281 0)"/>
     <use xlink:href="#DejaVuSans-Bold-6f" transform="translate(1295.251953 0)"/>
     <use xlink:href="#DejaVuSans-Bold-65" transform="translate(1363.953125 0)"/>
     <use xlink:href="#DejaVuSans-Bold-66" transform="translate(1431.775391 0)"/>
     <use xlink:href="#DejaVuSans-Bold-66" transform="translate(1475.28125 0)"/>
     <use xlink:href="#DejaVuSans-Bold-69" transform="translate(1518.787109 0)"/>
     <use xlink:href="#DejaVuSans-Bold-63" transform="translate(1553.064453 0)"/>
     <use xlink:href="#DejaVuSans-Bold-69" transform="translate(1612.341797 0)"/>
     <use xlink:href="#DejaVuSans-Bold-65" transform="translate(1646.619141 0)"/>
     <use xlink:href="#DejaVuSans-Bold-6e" transform="translate(1714.441406 0)"/>
     <use xlink:href="#DejaVuSans-Bold-74" transform="translate(1785.632812 0)"/>
     <use xlink:href="#DejaVuSans-Bold-20" transform="translate(1833.435547 0)"/>
     <use xlink:href="#DejaVuSans-Bold-4f" transform="translate(1868.25 0)"/>
     <use xlink:href="#DejaVuSans-Bold-76" transform="translate(1953.259766 0)"/>
     <use xlink:href="#DejaVuSans-Bold-65" transform="translate(2018.445312 0)"/>
     <use xlink:href="#DejaVuSans-Bold-72" transform="translate(2086.267578 0)"/>
     <use xlink:href="#DejaVuSans-Bold-20" transform="translate(2135.583984 0)"/>
     <use xlink:href="#DejaVuSans-Bold-54" transform="translate(2170.398438 0)"/>
     <use xlink:href="#DejaVuSans-Bold-69" transform="translate(2238.611328 0)"/>
     <use xlink:href="#DejaVuSans-Bold-6d" transform="translate(2272.888672 0)"/>
     <use xlink:href="#DejaVuSans-Bold-65" transform="translate(2377.087891 0)"/>
    </g>
    <!-- (Min. entities to control X% of stake, grouped by reward address) -->
    <g transform="translate(297.969063 31.968) scale(0.12 -0.12)">
     <defs>
      <path id="DejaVuSans-Bold-28" d="M 2413 -844 
L 1484 -844 
Q 1006 -72 778 623 
Q 550 1319 550 2003 
Q 550 2688 779 3389 
Q 1009 4091 1484 4856 
L 2413 4856 
Q 2013 4116 1813 3408 
Q 1613 2700 1613 2009 
Q 1613 1319 1811 609 
Q 2009 -100 2413 -844 
z
" transform="scale(0.015625)"/>
      <path id="DejaVuSans-Bold-4d" d="M 588 4666 
L 2119 4666 
L 3181 2169 
L 4250 4666 
L 5778 4666 
L 5778 0 
L 4641 0 
L 4641 3413 
L 3566 897 
L 2803 897 
L 1728 3413 
L 1728 0 
L 588 0 
L 588 4666 
z
" transform="scale(0.015625)"/>
      <path id="DejaVuSans-Bold-2e" d="M 653 1209 
L 1778 1209 
L 1778 0 
L 653 0 
L 653 1209 
z
" transform="scale(0.015625)"/>
      <path id="DejaVuSans-Bold-73" d="M 3272 3391 
L 3272 2541 
Q 2913 2691 2578 2766 
Q 2244 2841 1947 2841 
Q 1628 2841 1473 2761 
Q 1319 2681 1319 2516 
Q 1319 2381 1436 2309 
Q 1553 2238 1856 2203 
L 2053 2175 
Q 2913 2066 3209 1816 
Q 3506 1566 3506 1031 
Q 3506 472 3093 190 
Q 2681 -91 1863 -91 
Q 1516 -91 1145 -36 
Q 775 19 384 128 
L 384 978 
Q 719 816 1070 734 
Q 1422 653 1784 653 
Q 2113 653 2278 743 
Q 2444 834 2444 1013 
Q 2444 1163 2330 1236 
Q 2216 1309 1875 1350 
L 1678 1375 
Q 931 1469 631 1722 
Q 331 1975 331 2491 
Q 331 3047 712 3315 
Q 1094 3584 1881 3584 
Q 2191 3584 2531 3537 
Q 2872 3491 3272 3391 
z
" transform="scale(0.015625)"/>
      <path id="DejaVuSans-Bold-58" d="M 3188 2381 
L 4806 0 
L 3553 0 
L 2463 1594 
L 1381 0 
L 122 0 
L 1741 2381 
L 184 4666 
L 1441 4666 
L 2463 3163 
L 3481 4666 
L 4744 4666 
L 3188 2381 
z
" transform="scale(0.015625)"/>
      <path id="DejaVuSans-Bold-25" d="M 4959 1925 
Q 4738 1925 4616 1733 
Q 4494 1541 4494 1184 
Q 4494 825 4614 633 
Q 4734 441 4959 441 
Q 5184 441 5303 633 
Q 5422 825 5422 1184 
Q 5422 1541 5301 1733 
Q 5181 1925 4959 1925 
z
M 4959 2450 
Q 5541 2450 5875 2112 
Q 6209 1775 6209 1184 
Q 6209 594 5875 251 
Q 5541 -91 4959 -91 
Q 4378 -91 4042 251 
Q 3706 594 3706 1184 
Q 3706 1772 4042 2111 
Q 4378 2450 4959 2450 
z
M 2094 -91 
L 1403 -91 
L 4319 4750 
L 5013 4750 
L 2094 -91 
z
M 1453 4750 
Q 2034 4750 2367 4411 
Q 2700 4072 2700 3481 
Q 2700 2891 2367 2550 
Q 2034 2209 1453 2209 
Q 872 2209 539 2550 
Q 206 2891 206 3481 
Q 206 4072 539 4411 
Q 872 4750 1453 4750 
z
M 1453 4225 
Q 1228 4225 1106 4031 
Q 984 3838 984 3481 
Q 984 3122 1106 2926 
Q 1228 2731 1453 2731 
Q 1678 2731 1798 2926 
Q 1919 3122 1919 3481 
Q 1919 3838 1797 4031 
Q 1675 4225 1453 4225 
z
" transform="scale(0.015625)"/>
      <path id="DejaVuSans-Bold-2c" d="M 653 1209 
L 1778 1209 
L 1778 256 
L 1006 -909 
L 341 -909 
L 653 256 
L 653 1209 
z
" transform="scale(0.015625)"/>
      <path id="DejaVuSans-Bold-67" d="M 2919 594 
Q 2688 288 2409 144 
Q 2131 0 1766 0 
Q 1125 0 706 504 
Q 288 1009 288 1791 
Q 288 2575 706 3076 
Q 1125 3578 1766 3578 
Q 2131 3578 2409 3434 
Q 2688 3291 2919 2981 
L 2919 3500 
L 4044 3500 
L 4044 353 
Q 4044 -491 3511 -936 
Q 2978 -1381 1966 -1381 
Q 1638 -1381 1331 -1331 
Q 1025 -1281 716 -1178 
L 716 -306 
Q 1009 -475 1290 -558 
Q 1572 -641 1856 -641 
Q 2406 -641 2662 -400 
Q 2919 -159 2919 353 
L 2919 594 
z
M 2181 2772 
Q 1834 2772 1640 2515 
Q 1447 2259 1447 1791 
Q 1447 1309 1634 1061 
Q 1822 813 2181 813 
Q 2531 813 2725 1069 
Q 2919 1325 2919 1791 
Q 2919 2259 2725 2515 
Q 2531 2772 2181 2772 
z
" transform="scale(0.015625)"/>
      <path id="DejaVuSans-Bold-75" d="M 500 1363 
L 500 3500 
L 1625 3500 
L 1625 3150 
Q 1625 2866 1622 2436 
Q 1619 2006 1619 1863 
Q 1619 1441 1641 1255 
Q 1663 1069 1716 984 
Q 1784 875 1895 815 
Q 2006 756 2150 756 
Q 2500 756 2700 1025 
Q 2900 1294 2900 1772 
L 2900 3500 
L 4019 3500 
L 4019 0 
L 2900 0 
L 2900 506 
Q 2647 200 2364 54 
Q 2081 -91 1741 -91 
Q 1134 -91 817 281 
Q 500 653 500 1363 
z
" transform="scale(0.015625)"/>
      <path id="DejaVuSans-Bold-70" d="M 1656 506 
L 1656 -1331 
L 538 -1331 
L 538 3500 
L 1656 3500 
L 1656 2988 
Q 1888 3294 2169 3439 
Q 2450 3584 2816 3584 
Q 3463 3584 3878 3070 
Q 4294 2556 4294 1747 
Q 4294 938 3878 423 
Q 3463 -91 2816 -91 
Q 2450 -91 2169 54 
Q 1888 200 1656 506 
z
M 2400 2772 
Q 2041 2772 1848 2508 
Q 1656 2244 1656 1747 
Q 1656 1250 1848 986 
Q 2041 722 2400 722 
Q 2759 722 2948 984 
Q 3138 1247 3138 1747 
Q 3138 2247 2948 2509 
Q 2759 2772 2400 2772 
z
" transform="scale(0.015625)"/>
      <path id="DejaVuSans-Bold-64" d="M 2919 2988 
L 2919 4863 
L 4044 4863 
L 4044 0 
L 2919 0 
L 2919 506 
Q 2688 197 2409 53 
Q 2131 -91 1766 -91 
Q 1119 -91 703 423 
Q 288 938 288 1747 
Q 288 2556 703 3070 
Q 1119 3584 1766 3584 
Q 2128 3584 2408 3439 
Q 2688 3294 2919 2988 
z
M 2181 722 
Q 2541 722 2730 984 
Q 2919 1247 2919 1747 
Q 2919 2247 2730 2509 
Q 2541 2772 2181 2772 
Q 1825 2772 1636 2509 
Q 1447 2247 1447 1747 
Q 1447 1247 1636 984 
Q 1825 722 2181 722 
z
" transform="scale(0.015625)"/>
      <path id="DejaVuSans-Bold-62" d="M 2400 722 
Q 2759 722 2948 984 
Q 3138 1247 3138 1747 
Q 3138 2247 2948 2509 
Q 2759 2772 2400 2772 
Q 2041 2772 1848 2508 
Q 1656 2244 1656 1747 
Q 1656 1250 1848 986 
Q 2041 722 2400 722 
z
M 1656 2988 
Q 1888 3294 2169 3439 
Q 2450 3584 2816 3584 
Q 3463 3584 3878 3070 
Q 4294 2556 4294 1747 
Q 4294 938 3878 423 
Q 3463 -91 2816 -91 
Q 2450 -91 2169 54 
Q 1888 200 1656 506 
L 1656 0 
L 538 0 
L 538 4863 
L 1656 4863 
L 1656 2988 
z
" transform="scale(0.015625)"/>
      <path id="DejaVuSans-Bold-79" d="M 78 3500 
L 1197 3500 
L 2138 1125 
L 2938 3500 
L 4056 3500 
L 2584 -331 
Q 2363 -916 2067 -1148 
Q 1772 -1381 1288 -1381 
L 641 -1381 
L 641 -647 
L 991 -647 
Q 1275 -647 1404 -556 
Q 1534 -466 1606 -231 
L 1638 -134 
L 78 3500 
z
" transform="scale(0.015625)"/>
      <path id="DejaVuSans-Bold-77" d="M 225 3500 
L 1313 3500 
L 1900 1088 
L 2491 3500 
L 3425 3500 
L 4013 1113 
L 4603 3500 
L 5691 3500 
L 4769 0 
L 3547 0 
L 2956 2406 
L 2369 0 
L 1147 0 
L 225 3500 
z
" transform="scale(0.015625)"/>
      <path id="DejaVuSans-Bold-29" d="M 513 -844 
Q 913 -100 1113 609 
Q 1313 1319 1313 2009 
Q 1313 2700 1113 3408 
Q 913 4116 513 4856 
L 1441 4856 
Q 1916 4091 2145 3389 
Q 2375 2688 2375 2003 
Q 2375 1319 2147 623 
Q 1919 -72 1441 -844 
L 513 -844 
z
" transform="scale(0.015625)"/>
     </defs>
     <use xlink:href="#DejaVuSans-Bold-28"/>
     <use xlink:href="#DejaVuSans-Bold-4d" transform="translate(45.703125 0)"/>
     <use xlink:href="#DejaVuSans-Bold-69" transform="translate(145.214844 0)"/>
     <use xlink:href="#DejaVuSans-Bold-6e" transform="translate(179.492188 0)"/>
     <use xlink:href="#DejaVuSans-Bold-2e" transform="translate(250.683594 0)"/>
     <use xlink:href="#DejaVuSans-Bold-20" transform="translate(288.671875 0)"/>
     <use xlink:href="#DejaVuSans-Bold-65" transform="translate(323.486328 0)"/>
     <use xlink:href="#DejaVuSans-Bold-6e" transform="translate(391.308594 0)"/>
     <use xlink:href="#DejaVuSans-Bold-74" transform="translate(462.5 0)"/>
     <use xlink:href="#DejaVuSans-Bold-69" transform="translate(510.302734 0)"/>
     <use xlink:href="#DejaVuSans-Bold-74" transform="translate(544.580078 0)"/>
     <use xlink:href="#DejaVuSans-Bold-69" transform="translate(592.382812 0)"/>
     <use xlink:href="#DejaVuSans-Bold-65" transform="translate(626.660156 0)"/>
     <use xlink:href="#DejaVuSans-Bold-73" transform="translate(694.482422 0)"/>
     <use xlink:href="#DejaVuSans-Bold-20" transform="translate(754.003906 0)"/>
     <use xlink:href="#DejaVuSans-Bold-74" transform="translate(788.818359 0)"/>
     <use xlink:href="#DejaVuSans-Bold-6f" transform="translate(836.621094 0)"/>
     <use xlink:href="#DejaVuSans-Bold-20" transform="translate(905.322266 0)"/>
     <use xlink:href="#DejaVuSans-Bold-63" transform="translate(940.136719 0)"/>
     <use xlink:href="#DejaVuSans-Bold-6f" transform="translate(999.414062 0)"/>
     <use xlink:href="#DejaVuSans-Bold-6e" transform="translate(1068.115234 0)"/>
     <use xlink:href="#DejaVuSans-Bold-74" transform="translate(1139.306641 0)"/>
     <use xlink:href="#DejaVuSans-Bold-72" transform="translate(1187.109375 0)"/>
     <use xlink:href="#DejaVuSans-Bold-6f" transform="translate(1236.425781 0)"/>
     <use xlink:href="#DejaVuSans-Bold-6c" transform="translate(1305.126953 0)"/>
     <use xlink:href="#DejaVuSans-Bold-20" transform="translate(1339.404297 0)"/>
     <use xlink:href="#DejaVuSans-Bold-58" transform="translate(1374.21875 0)"/>
     <use xlink:href="#DejaVuSans-Bold-25" transform="translate(1451.318359 0)"/>
     <use xlink:href="#DejaVuSans-Bold-20" transform="translate(1551.513672 0)"/>
     <use xlink:href="#DejaVuSans-Bold-6f" transform="translate(1586.328125 0)"/>
     <use xlink:href="#DejaVuSans-Bold-66" transform="translate(1655.029297 0)"/>
     <use xlink:href="#DejaVuSans-Bold-20" transform="translate(1698.535156 0)"/>
     <use xlink:href="#DejaVuSans-Bold-73" transform="translate(1733.349609 0)"/>
     <use xlink:href="#DejaVuSans-Bold-74" transform="translate(1792.871094 0)"/>
     <use xlink:href="#DejaVuSans-Bold-61" transform="translate(1840.673828 0)"/>
     <use xlink:href="#DejaVuSans-Bold-6b" transform="translate(1908.154297 0)"/>
     <use xlink:href="#DejaVuSans-Bold-65" transform="translate(1972.033203 0)"/>
     <use xlink:href="#DejaVuSans-Bold-2c" transform="translate(2039.855469 0)"/>
     <use xlink:href="#DejaVuSans-Bold-20" transform="translate(2077.84375 0)"/>
     <use xlink:href="#DejaVuSans-Bold-67" transform="translate(2112.658203 0)"/>
     <use xlink:href="#DejaVuSans-Bold-72" transform="translate(2184.240234 0)"/>
     <use xlink:href="#DejaVuSans-Bold-6f" transform="translate(2233.556641 0)"/>
     <use xlink:href="#DejaVuSans-Bold-75" transform="translate(2302.257812 0)"/>
     <use xlink:href="#DejaVuSans-Bold-70" transform="translate(2373.449219 0)"/>
     <use xlink:href="#DejaVuSans-Bold-65" transform="translate(2445.03125 0)"/>
     <use xlink:href="#DejaVuSans-Bold-64" transform="translate(2512.853516 0)"/>
     <use xlink:href="#DejaVuSans-Bold-20" transform="translate(2584.435547 0)"/>
     <use xlink:href="#DejaVuSans-Bold-62" transform="translate(2619.25 0)"/>
     <use xlink:href="#DejaVuSans-Bold-79" transform="translate(2690.832031 0)"/>
     <use xlink:href="#DejaVuSans-Bold-20" transform="translate(2756.017578 0)"/>
     <use xlink:href="#DejaVuSans-Bold-72" transform="translate(2790.832031 0)"/>
     <use xlink:href="#DejaVuSans-Bold-65" transform="translate(2840.148438 0)"/>
     <use xlink:href="#DejaVuSans-Bold-77" transform="translate(2907.970703 0)"/>
     <use xlink:href="#DejaVuSans-Bold-61" transform="translate(3000.353516 0)"/>
     <use xlink:href="#DejaVuSans-Bold-72" transform="translate(3067.833984 0)"/>
     <use xlink:href="#DejaVuSans-Bold-64" transform="translate(3117.150391 0)"/>
     <use xlink:href="#DejaVuSans-Bold-20" transform="translate(3188.732422 0)"/>
     <use xlink:href="#DejaVuSans-Bold-61" transform="translate(3223.546875 0)"/>
     <use xlink:href="#DejaVuSans-Bold-64" transform="translate(3291.027344 0)"/>
     <use xlink:href="#DejaVuSans-Bold-64" transform="translate(3362.609375 0)"/>
     <use xlink:href="#DejaVuSans-Bold-72" transform="translate(3434.191406 0)"/>
     <use xlink:href="#DejaVuSans-Bold-65" transform="translate(3483.507812 0)"/>
     <use xlink:href="#DejaVuSans-Bold-73" transform="translate(3551.330078 0)"/>
     <use xlink:href="#DejaVuSans-Bold-73" transform="translate(3610.851562 0)"/>
     <use xlink:href="#DejaVuSans-Bold-29" transform="translate(3670.373047 0)"/>
    </g>
   </g>
   <g id="legend_1">
    <g id="patch_7">
     <path d="M 868.365625 90.002375 
L 990.2 90.002375 
Q 992.2 90.002375 992.2 88.002375 
L 992.2 44.968 
Q 992.2 42.968 990.2 42.968 
L 868.365625 42.968 
Q 866.365625 42.968 866.365625 44.968 
L 866.365625 88.002375 
Q 866.365625 90.002375 868.365625 90.002375 
z
" style="fill: #ffffff; opacity: 0.8; stroke: #cccccc; stroke-linejoin: miter"/>
    </g>
    <g id="line2d_28">
     <path d="M 870.365625 51.066437 
L 880.365625 51.066437 
L 890.365625 51.066437 
" style="fill: none; stroke: #006400; stroke-width: 2; stroke-linecap: square"/>
     <g>
      <use xlink:href="#m600a5712c0" x="880.365625" y="51.066437" style="fill: #006400; stroke: #006400"/>
     </g>
    </g>
    <g id="text_16">
     <!-- Nakamoto @ 30% -->
     <g transform="translate(898.365625 54.566437) scale(0.1 -0.1)">
      <defs>
       <path id="DejaVuSans-40" d="M 2381 1678 
Q 2381 1231 2603 976 
Q 2825 722 3213 722 
Q 3597 722 3817 978 
Q 4038 1234 4038 1678 
Q 4038 2116 3813 2373 
Q 3588 2631 3206 2631 
Q 2828 2631 2604 2375 
Q 2381 2119 2381 1678 
z
M 4084 744 
Q 3897 503 3655 389 
Q 3413 275 3091 275 
Q 2553 275 2217 664 
Q 1881 1053 1881 1678 
Q 1881 2303 2218 2693 
Q 2556 3084 3091 3084 
Q 3413 3084 3656 2967 
Q 3900 2850 4084 2613 
L 4084 3022 
L 4531 3022 
L 4531 722 
Q 4988 791 5245 1139 
Q 5503 1488 5503 2041 
Q 5503 2375 5404 2669 
Q 5306 2963 5106 3213 
Q 4781 3622 4314 3839 
Q 3847 4056 3297 4056 
Q 2913 4056 2559 3954 
Q 2206 3853 1906 3653 
Q 1416 3334 1139 2817 
Q 863 2300 863 1697 
Q 863 1200 1042 765 
Q 1222 331 1563 0 
Q 1891 -325 2322 -495 
Q 2753 -666 3244 -666 
Q 3647 -666 4036 -530 
Q 4425 -394 4750 -141 
L 5031 -488 
Q 4641 -791 4180 -952 
Q 3719 -1113 3244 -1113 
Q 2666 -1113 2153 -908 
Q 1641 -703 1241 -313 
Q 841 78 631 592 
Q 422 1106 422 1697 
Q 422 2266 634 2781 
Q 847 3297 1241 3688 
Q 1644 4084 2172 4295 
Q 2700 4506 3291 4506 
Q 3953 4506 4520 4234 
Q 5088 3963 5472 3463 
Q 5706 3156 5829 2797 
Q 5953 2438 5953 2053 
Q 5953 1231 5456 756 
Q 4959 281 4084 263 
L 4084 744 
z
" transform="scale(0.015625)"/>
       <path id="DejaVuSans-25" d="M 4653 2053 
Q 4381 2053 4226 1822 
Q 4072 1591 4072 1178 
Q 4072 772 4226 539 
Q 4381 306 4653 306 
Q 4919 306 5073 539 
Q 5228 772 5228 1178 
Q 5228 1588 5073 1820 
Q 4919 2053 4653 2053 
z
M 4653 2450 
Q 5147 2450 5437 2106 
Q 5728 1763 5728 1178 
Q 5728 594 5436 251 
Q 5144 -91 4653 -91 
Q 4153 -91 3862 251 
Q 3572 594 3572 1178 
Q 3572 1766 3864 2108 
Q 4156 2450 4653 2450 
z
M 1428 4353 
Q 1159 4353 1004 4120 
Q 850 3888 850 3481 
Q 850 3069 1003 2837 
Q 1156 2606 1428 2606 
Q 1700 2606 1854 2837 
Q 2009 3069 2009 3481 
Q 2009 3884 1853 4118 
Q 1697 4353 1428 4353 
z
M 4250 4750 
L 4750 4750 
L 1831 -91 
L 1331 -91 
L 4250 4750 
z
M 1428 4750 
Q 1922 4750 2215 4408 
Q 2509 4066 2509 3481 
Q 2509 2891 2217 2550 
Q 1925 2209 1428 2209 
Q 931 2209 642 2551 
Q 353 2894 353 3481 
Q 353 4063 643 4406 
Q 934 4750 1428 4750 
z
" transform="scale(0.015625)"/>
      </defs>
      <use xlink:href="#DejaVuSans-4e"/>
      <use xlink:href="#DejaVuSans-61" transform="translate(74.804688 0)"/>
      <use xlink:href="#DejaVuSans-6b" transform="translate(136.083984 0)"/>
      <use xlink:href="#DejaVuSans-61" transform="translate(192.244141 0)"/>
      <use xlink:href="#DejaVuSans-6d" transform="translate(253.523438 0)"/>
      <use xlink:href="#DejaVuSans-6f" transform="translate(350.935547 0)"/>
      <use xlink:href="#DejaVuSans-74" transform="translate(412.117188 0)"/>
      <use xlink:href="#DejaVuSans-6f" transform="translate(451.326172 0)"/>
      <use xlink:href="#DejaVuSans-20" transform="translate(512.507812 0)"/>
      <use xlink:href="#DejaVuSans-40" transform="translate(544.294922 0)"/>
      <use xlink:href="#DejaVuSans-20" transform="translate(644.294922 0)"/>
      <use xlink:href="#DejaVuSans-33" transform="translate(676.082031 0)"/>
      <use xlink:href="#DejaVuSans-30" transform="translate(739.705078 0)"/>
      <use xlink:href="#DejaVuSans-25" transform="translate(803.328125 0)"/>
     </g>
    </g>
    <g id="line2d_29">
     <path d="M 870.365625 65.744562 
L 880.365625 65.744562 
L 890.365625 65.744562 
" style="fill: none; stroke: #ff8c00; stroke-width: 2; stroke-linecap: square"/>
     <g>
      <use xlink:href="#m1e0bc65924" x="880.365625" y="65.744562" style="fill: #ff8c00; stroke: #ff8c00; stroke-linejoin: miter"/>
     </g>
    </g>
    <g id="text_17">
     <!-- Nakamoto @ 33% -->
     <g transform="translate(898.365625 69.244562) scale(0.1 -0.1)">
      <use xlink:href="#DejaVuSans-4e"/>
      <use xlink:href="#DejaVuSans-61" transform="translate(74.804688 0)"/>
      <use xlink:href="#DejaVuSans-6b" transform="translate(136.083984 0)"/>
      <use xlink:href="#DejaVuSans-61" transform="translate(192.244141 0)"/>
      <use xlink:href="#DejaVuSans-6d" transform="translate(253.523438 0)"/>
      <use xlink:href="#DejaVuSans-6f" transform="translate(350.935547 0)"/>
      <use xlink:href="#DejaVuSans-74" transform="translate(412.117188 0)"/>
      <use xlink:href="#DejaVuSans-6f" transform="translate(451.326172 0)"/>
      <use xlink:href="#DejaVuSans-20" transform="translate(512.507812 0)"/>
      <use xlink:href="#DejaVuSans-40" transform="translate(544.294922 0)"/>
      <use xlink:href="#DejaVuSans-20" transform="translate(644.294922 0)"/>
      <use xlink:href="#DejaVuSans-33" transform="translate(676.082031 0)"/>
      <use xlink:href="#DejaVuSans-33" transform="translate(739.705078 0)"/>
      <use xlink:href="#DejaVuSans-25" transform="translate(803.328125 0)"/>
     </g>
    </g>
    <g id="line2d_30">
     <path d="M 870.365625 80.422687 
L 880.365625 80.422687 
L 890.365625 80.422687 
" style="fill: none; stroke: #9400d3; stroke-width: 2; stroke-linecap: square"/>
     <g>
      <use xlink:href="#m11abcbbb76" x="880.365625" y="80.422687" style="fill: #9400d3; stroke: #9400d3; stroke-linejoin: miter"/>
     </g>
    </g>
    <g id="text_18">
     <!-- Nakamoto @ 50% -->
     <g transform="translate(898.365625 83.922687) scale(0.1 -0.1)">
      <use xlink:href="#DejaVuSans-4e"/>
      <use xlink:href="#DejaVuSans-61" transform="translate(74.804688 0)"/>
      <use xlink:href="#DejaVuSans-6b" transform="translate(136.083984 0)"/>
      <use xlink:href="#DejaVuSans-61" transform="translate(192.244141 0)"/>
      <use xlink:href="#DejaVuSans-6d" transform="translate(253.523438 0)"/>
      <use xlink:href="#DejaVuSans-6f" transform="translate(350.935547 0)"/>
      <use xlink:href="#DejaVuSans-74" transform="translate(412.117188 0)"/>
      <use xlink:href="#DejaVuSans-6f" transform="translate(451.326172 0)"/>
      <use xlink:href="#DejaVuSans-20" transform="translate(512.507812 0)"/>
      <use xlink:href="#DejaVuSans-40" transform="translate(544.294922 0)"/>
      <use xlink:href="#DejaVuSans-20" transform="translate(644.294922 0)"/>
      <use xlink:href="#DejaVuSans-35" transform="translate(676.082031 0)"/>
      <use xlink:href="#DejaVuSans-30" transform="translate(739.705078 0)"/>
      <use xlink:href="#DejaVuSans-25" transform="translate(803.328125 0)"/>
     </g>
    </g>
   </g>
  </g>
 </g>
 <defs>
  <clipPath id="pbaccff7901">
   <rect x="44.66" y="37.968" width="952.54" height="352.072"/>
  </clipPath>
 </defs>
</svg>
