<?xml version="1.0" encoding="utf-8" standalone="no"?>
<!DOCTYPE svg PUBLIC "-//W3C//DTD SVG 1.1//EN"
  "http://www.w3.org/Graphics/SVG/1.1/DTD/svg11.dtd">
<svg xmlns:xlink="http://www.w3.org/1999/xlink" width="1008pt" height="504pt" viewBox="0 0 1008 504" xmlns="http://www.w3.org/2000/svg" version="1.1">
 <metadata>
  <rdf:RDF xmlns:dc="http://purl.org/dc/elements/1.1/" xmlns:cc="http://creativecommons.org/ns#" xmlns:rdf="http://www.w3.org/1999/02/22-rdf-syntax-ns#">
   <cc:Work>
    <dc:type rdf:resource="http://purl.org/dc/dcmitype/StillImage"/>
    <dc:date>2026-01-31T17:56:14.343118</dc:date>
    <dc:format>image/svg+xml</dc:format>
    <dc:creator>
     <cc:Agent>
      <dc:title>Matplotlib v3.10.8, https://matplotlib.org/</dc:title>
     </cc:Agent>
    </dc:creator>
   </cc:Work>
  </rdf:RDF>
 </metadata>
 <defs>
  <style type="text/css">*{stroke-linejoin: round; stroke-linecap: butt}</style>
 </defs>
 <g id="figure_1">
  <g id="patch_1">
   <path d="M 0 504 
L 1008 504 
L 1008 0 
L 0 0 
z
" style="fill: #ffffff"/>
  </g>
  <g id="axes_1">
   <g id="patch_2">
    <path d="M 44.66 462.04 
L 912.226 462.04 
L 912.226 25.44 
L 44.66 25.44 
z
" style="fill: #ffffff"/>
   </g>
   <g id="patch_3">
    <path d="M 84.094818 462.04 
L 111.353909 462.04 
L 111.353909 376.599687 
L 84.094818 376.599687 
z
" clip-path="url(#pc406daab7e)" style="fill: #1f77b4"/>
   </g>
   <g id="patch_4">
    <path d="M 125.892091 462.04 
L 153.151182 462.04 
L 153.151182 382.295708 
L 125.892091 382.295708 
z
" clip-path="url(#pc406daab7e)" style="fill: #1f77b4"/>
   </g>
   <g id="patch_5">
    <path d="M 167.689364 462.04 
L 194.948455 462.04 
L 194.948455 393.68775 
L 167.689364 393.68775 
z
" clip-path="url(#pc406daab7e)" style="fill: #1f77b4"/>
   </g>
   <g id="patch_6">
    <path d="M 208.578 462.04 
L 235.837091 462.04 
L 235.837091 410.775812 
L 208.578 410.775812 
z
" clip-path="url(#pc406daab7e)" style="fill: #1f77b4"/>
   </g>
   <g id="patch_7">
    <path d="M 249.920955 462.04 
L 277.180045 462.04 
L 277.180045 393.68775 
L 249.920955 393.68775 
z
" clip-path="url(#pc406daab7e)" style="fill: #1f77b4"/>
   </g>
   <g id="patch_8">
    <path d="M 291.718227 462.04 
L 318.977318 462.04 
L 318.977318 405.079791 
L 291.718227 405.079791 
z
" clip-path="url(#pc406daab7e)" style="fill: #1f77b4"/>
   </g>
   <g id="patch_9">
    <path d="M 333.5155 462.04 
L 360.774591 462.04 
L 360.774591 393.68775 
L 333.5155 393.68775 
z
" clip-path="url(#pc406daab7e)" style="fill: #1f77b4"/>
   </g>
   <g id="patch_10">
    <path d="M 374.404136 462.04 
L 401.663227 462.04 
L 401.663227 393.68775 
L 374.404136 393.68775 
z
" clip-path="url(#pc406daab7e)" style="fill: #1f77b4"/>
   </g>
   <g id="patch_11">
    <path d="M 415.747091 462.04 
L 443.006182 462.04 
L 443.006182 410.775812 
L 415.747091 410.775812 
z
" clip-path="url(#pc406daab7e)" style="fill: #1f77b4"/>
   </g>
   <g id="patch_12">
    <path d="M 457.544364 462.04 
L 484.803455 462.04 
L 484.803455 439.255917 
L 457.544364 439.255917 
z
" clip-path="url(#pc406daab7e)" style="fill: #1f77b4"/>
   </g>
   <g id="patch_13">
    <path d="M 499.341636 462.04 
L 526.600727 462.04 
L 526.600727 439.255917 
L 499.341636 439.255917 
z
" clip-path="url(#pc406daab7e)" style="fill: #1f77b4"/>
   </g>
   <g id="patch_14">
    <path d="M 540.684591 462.04 
L 567.943682 462.04 
L 567.943682 422.167854 
L 540.684591 422.167854 
z
" clip-path="url(#pc406daab7e)" style="fill: #1f77b4"/>
   </g>
   <g id="patch_15">
    <path d="M 582.027545 462.04 
L 609.286636 462.04 
L 609.286636 433.559896 
L 582.027545 433.559896 
z
" clip-path="url(#pc406daab7e)" style="fill: #1f77b4"/>
   </g>
   <g id="patch_16">
    <path d="M 623.824818 462.04 
L 651.083909 462.04 
L 651.083909 427.863875 
L 623.824818 427.863875 
z
" clip-path="url(#pc406daab7e)" style="fill: #1f77b4"/>
   </g>
   <g id="patch_17">
    <path d="M 665.622091 462.04 
L 692.881182 462.04 
L 692.881182 416.471833 
L 665.622091 416.471833 
z
" clip-path="url(#pc406daab7e)" style="fill: #1f77b4"/>
   </g>
   <g id="patch_18">
    <path d="M 706.510727 462.04 
L 733.769818 462.04 
L 733.769818 393.68775 
L 706.510727 393.68775 
z
" clip-path="url(#pc406daab7e)" style="fill: #1f77b4"/>
   </g>
   <g id="patch_19">
    <path d="M 789.650955 462.04 
L 816.910045 462.04 
L 816.910045 365.207645 
L 789.650955 365.207645 
z
" clip-path="url(#pc406daab7e)" style="fill: #1f77b4"/>
   </g>
   <g id="patch_20">
    <path d="M 821.453227 462.04 
L 848.712318 462.04 
L 848.712318 348.119583 
L 821.453227 348.119583 
z
" clip-path="url(#pc406daab7e)" style="fill: #1f77b4"/>
   </g>
   <g id="patch_21">
    <path d="M 845.532091 462.04 
L 872.791182 462.04 
L 872.791182 382.295708 
L 845.532091 382.295708 
z
" clip-path="url(#pc406daab7e)" style="fill: #1f77b4"/>
   </g>
   <g id="patch_22">
    <path d="M 84.094818 376.599687 
L 111.353909 376.599687 
L 111.353909 376.599687 
L 84.094818 376.599687 
z
" clip-path="url(#pc406daab7e)" style="fill: #ff7f0e"/>
   </g>
   <g id="patch_23">
    <path d="M 125.892091 382.295708 
L 153.151182 382.295708 
L 153.151182 382.295708 
L 125.892091 382.295708 
z
" clip-path="url(#pc406daab7e)" style="fill: #ff7f0e"/>
   </g>
   <g id="patch_24">
    <path d="M 167.689364 393.68775 
L 194.948455 393.68775 
L 194.948455 393.68775 
L 167.689364 393.68775 
z
" clip-path="url(#pc406daab7e)" style="fill: #ff7f0e"/>
   </g>
   <g id="patch_25">
    <path d="M 208.578 410.775812 
L 235.837091 410.775812 
L 235.837091 365.207645 
L 208.578 365.207645 
z
" clip-path="url(#pc406daab7e)" style="fill: #ff7f0e"/>
   </g>
   <g id="patch_26">
    <path d="M 249.920955 393.68775 
L 277.180045 393.68775 
L 277.180045 348.119583 
L 249.920955 348.119583 
z
" clip-path="url(#pc406daab7e)" style="fill: #ff7f0e"/>
   </g>
   <g id="patch_27">
    <path d="M 291.718227 405.079791 
L 318.977318 405.079791 
L 318.977318 336.727541 
L 291.718227 336.727541 
z
" clip-path="url(#pc406daab7e)" style="fill: #ff7f0e"/>
   </g>
   <g id="patch_28">
    <path d="M 333.5155 393.68775 
L 360.774591 393.68775 
L 360.774591 308.247436 
L 333.5155 308.247436 
z
" clip-path="url(#pc406daab7e)" style="fill: #ff7f0e"/>
   </g>
   <g id="patch_29">
    <path d="M 374.404136 393.68775 
L 401.663227 393.68775 
L 401.663227 313.943457 
L 374.404136 313.943457 
z
" clip-path="url(#pc406daab7e)" style="fill: #ff7f0e"/>
   </g>
   <g id="patch_30">
    <path d="M 415.747091 410.775812 
L 443.006182 410.775812 
L 443.006182 353.815603 
L 415.747091 353.815603 
z
" clip-path="url(#pc406daab7e)" style="fill: #ff7f0e"/>
   </g>
   <g id="patch_31">
    <path d="M 457.544364 439.255917 
L 484.803455 439.255917 
L 484.803455 387.991729 
L 457.544364 387.991729 
z
" clip-path="url(#pc406daab7e)" style="fill: #ff7f0e"/>
   </g>
   <g id="patch_32">
    <path d="M 499.341636 439.255917 
L 526.600727 439.255917 
L 526.600727 410.775812 
L 499.341636 410.775812 
z
" clip-path="url(#pc406daab7e)" style="fill: #ff7f0e"/>
   </g>
   <g id="patch_33">
    <path d="M 540.684591 422.167854 
L 567.943682 422.167854 
L 567.943682 399.38377 
L 540.684591 399.38377 
z
" clip-path="url(#pc406daab7e)" style="fill: #ff7f0e"/>
   </g>
   <g id="patch_34">
    <path d="M 582.027545 433.559896 
L 609.286636 433.559896 
L 609.286636 410.775812 
L 582.027545 410.775812 
z
" clip-path="url(#pc406daab7e)" style="fill: #ff7f0e"/>
   </g>
   <g id="patch_35">
    <path d="M 623.824818 427.863875 
L 651.083909 427.863875 
L 651.083909 405.079791 
L 623.824818 405.079791 
z
" clip-path="url(#pc406daab7e)" style="fill: #ff7f0e"/>
   </g>
   <g id="patch_36">
    <path d="M 665.622091 416.471833 
L 692.881182 416.471833 
L 692.881182 393.68775 
L 665.622091 393.68775 
z
" clip-path="url(#pc406daab7e)" style="fill: #ff7f0e"/>
   </g>
   <g id="patch_37">
    <path d="M 706.510727 393.68775 
L 733.769818 393.68775 
L 733.769818 370.903666 
L 706.510727 370.903666 
z
" clip-path="url(#pc406daab7e)" style="fill: #ff7f0e"/>
   </g>
   <g id="patch_38">
    <path d="M 789.650955 365.207645 
L 816.910045 365.207645 
L 816.910045 348.119583 
L 789.650955 348.119583 
z
" clip-path="url(#pc406daab7e)" style="fill: #ff7f0e"/>
   </g>
   <g id="patch_39">
    <path d="M 821.453227 348.119583 
L 848.712318 348.119583 
L 848.712318 342.423562 
L 821.453227 342.423562 
z
" clip-path="url(#pc406daab7e)" style="fill: #ff7f0e"/>
   </g>
   <g id="patch_40">
    <path d="M 845.532091 382.295708 
L 872.791182 382.295708 
L 872.791182 365.207645 
L 845.532091 365.207645 
z
" clip-path="url(#pc406daab7e)" style="fill: #ff7f0e"/>
   </g>
   <g id="patch_41">
    <path d="M 84.094818 376.599687 
L 111.353909 376.599687 
L 111.353909 370.903666 
L 84.094818 370.903666 
z
" clip-path="url(#pc406daab7e)" style="fill: #2ca02c"/>
   </g>
   <g id="patch_42">
    <path d="M 125.892091 382.295708 
L 153.151182 382.295708 
L 153.151182 382.295708 
L 125.892091 382.295708 
z
" clip-path="url(#pc406daab7e)" style="fill: #2ca02c"/>
   </g>
   <g id="patch_43">
    <path d="M 167.689364 393.68775 
L 194.948455 393.68775 
L 194.948455 376.599687 
L 167.689364 376.599687 
z
" clip-path="url(#pc406daab7e)" style="fill: #2ca02c"/>
   </g>
   <g id="patch_44">
    <path d="M 208.578 365.207645 
L 235.837091 365.207645 
L 235.837091 342.423562 
L 208.578 342.423562 
z
" clip-path="url(#pc406daab7e)" style="fill: #2ca02c"/>
   </g>
   <g id="patch_45">
    <path d="M 249.920955 348.119583 
L 277.180045 348.119583 
L 277.180045 313.943457 
L 249.920955 313.943457 
z
" clip-path="url(#pc406daab7e)" style="fill: #2ca02c"/>
   </g>
   <g id="patch_46">
    <path d="M 291.718227 336.727541 
L 318.977318 336.727541 
L 318.977318 308.247436 
L 291.718227 308.247436 
z
" clip-path="url(#pc406daab7e)" style="fill: #2ca02c"/>
   </g>
   <g id="patch_47">
    <path d="M 333.5155 308.247436 
L 360.774591 308.247436 
L 360.774591 285.463353 
L 333.5155 285.463353 
z
" clip-path="url(#pc406daab7e)" style="fill: #2ca02c"/>
   </g>
   <g id="patch_48">
    <path d="M 374.404136 313.943457 
L 401.663227 313.943457 
L 401.663227 274.071311 
L 374.404136 274.071311 
z
" clip-path="url(#pc406daab7e)" style="fill: #2ca02c"/>
   </g>
   <g id="patch_49">
    <path d="M 415.747091 353.815603 
L 443.006182 353.815603 
L 443.006182 319.639478 
L 415.747091 319.639478 
z
" clip-path="url(#pc406daab7e)" style="fill: #2ca02c"/>
   </g>
   <g id="patch_50">
    <path d="M 457.544364 387.991729 
L 484.803455 387.991729 
L 484.803455 336.727541 
L 457.544364 336.727541 
z
" clip-path="url(#pc406daab7e)" style="fill: #2ca02c"/>
   </g>
   <g id="patch_51">
    <path d="M 499.341636 410.775812 
L 526.600727 410.775812 
L 526.600727 370.903666 
L 499.341636 370.903666 
z
" clip-path="url(#pc406daab7e)" style="fill: #2ca02c"/>
   </g>
   <g id="patch_52">
    <path d="M 540.684591 399.38377 
L 567.943682 399.38377 
L 567.943682 353.815603 
L 540.684591 353.815603 
z
" clip-path="url(#pc406daab7e)" style="fill: #2ca02c"/>
   </g>
   <g id="patch_53">
    <path d="M 582.027545 410.775812 
L 609.286636 410.775812 
L 609.286636 365.207645 
L 582.027545 365.207645 
z
" clip-path="url(#pc406daab7e)" style="fill: #2ca02c"/>
   </g>
   <g id="patch_54">
    <path d="M 623.824818 405.079791 
L 651.083909 405.079791 
L 651.083909 365.207645 
L 623.824818 365.207645 
z
" clip-path="url(#pc406daab7e)" style="fill: #2ca02c"/>
   </g>
   <g id="patch_55">
    <path d="M 665.622091 393.68775 
L 692.881182 393.68775 
L 692.881182 365.207645 
L 665.622091 365.207645 
z
" clip-path="url(#pc406daab7e)" style="fill: #2ca02c"/>
   </g>
   <g id="patch_56">
    <path d="M 706.510727 370.903666 
L 733.769818 370.903666 
L 733.769818 348.119583 
L 706.510727 348.119583 
z
" clip-path="url(#pc406daab7e)" style="fill: #2ca02c"/>
   </g>
   <g id="patch_57">
    <path d="M 789.650955 348.119583 
L 816.910045 348.119583 
L 816.910045 336.727541 
L 789.650955 336.727541 
z
" clip-path="url(#pc406daab7e)" style="fill: #2ca02c"/>
   </g>
   <g id="patch_58">
    <path d="M 821.453227 342.423562 
L 848.712318 342.423562 
L 848.712318 342.423562 
L 821.453227 342.423562 
z
" clip-path="url(#pc406daab7e)" style="fill: #2ca02c"/>
   </g>
   <g id="patch_59">
    <path d="M 845.532091 365.207645 
L 872.791182 365.207645 
L 872.791182 319.639478 
L 845.532091 319.639478 
z
" clip-path="url(#pc406daab7e)" style="fill: #2ca02c"/>
   </g>
   <g id="patch_60">
    <path d="M 84.094818 370.903666 
L 111.353909 370.903666 
L 111.353909 370.903666 
L 84.094818 370.903666 
z
" clip-path="url(#pc406daab7e)" style="fill: #d62728"/>
   </g>
   <g id="patch_61">
    <path d="M 125.892091 382.295708 
L 153.151182 382.295708 
L 153.151182 382.295708 
L 125.892091 382.295708 
z
" clip-path="url(#pc406daab7e)" style="fill: #d62728"/>
   </g>
   <g id="patch_62">
    <path d="M 167.689364 376.599687 
L 194.948455 376.599687 
L 194.948455 376.599687 
L 167.689364 376.599687 
z
" clip-path="url(#pc406daab7e)" style="fill: #d62728"/>
   </g>
   <g id="patch_63">
    <path d="M 208.578 342.423562 
L 235.837091 342.423562 
L 235.837091 342.423562 
L 208.578 342.423562 
z
" clip-path="url(#pc406daab7e)" style="fill: #d62728"/>
   </g>
   <g id="patch_64">
    <path d="M 249.920955 313.943457 
L 277.180045 313.943457 
L 277.180045 313.943457 
L 249.920955 313.943457 
z
" clip-path="url(#pc406daab7e)" style="fill: #d62728"/>
   </g>
   <g id="patch_65">
    <path d="M 291.718227 308.247436 
L 318.977318 308.247436 
L 318.977318 308.247436 
L 291.718227 308.247436 
z
" clip-path="url(#pc406daab7e)" style="fill: #d62728"/>
   </g>
   <g id="patch_66">
    <path d="M 333.5155 285.463353 
L 360.774591 285.463353 
L 360.774591 268.37529 
L 333.5155 268.37529 
z
" clip-path="url(#pc406daab7e)" style="fill: #d62728"/>
   </g>
   <g id="patch_67">
    <path d="M 374.404136 274.071311 
L 401.663227 274.071311 
L 401.663227 256.983249 
L 374.404136 256.983249 
z
" clip-path="url(#pc406daab7e)" style="fill: #d62728"/>
   </g>
   <g id="patch_68">
    <path d="M 415.747091 319.639478 
L 443.006182 319.639478 
L 443.006182 319.639478 
L 415.747091 319.639478 
z
" clip-path="url(#pc406daab7e)" style="fill: #d62728"/>
   </g>
   <g id="patch_69">
    <path d="M 457.544364 336.727541 
L 484.803455 336.727541 
L 484.803455 336.727541 
L 457.544364 336.727541 
z
" clip-path="url(#pc406daab7e)" style="fill: #d62728"/>
   </g>
   <g id="patch_70">
    <path d="M 499.341636 370.903666 
L 526.600727 370.903666 
L 526.600727 370.903666 
L 499.341636 370.903666 
z
" clip-path="url(#pc406daab7e)" style="fill: #d62728"/>
   </g>
   <g id="patch_71">
    <path d="M 540.684591 353.815603 
L 567.943682 353.815603 
L 567.943682 342.423562 
L 540.684591 342.423562 
z
" clip-path="url(#pc406daab7e)" style="fill: #d62728"/>
   </g>
   <g id="patch_72">
    <path d="M 582.027545 365.207645 
L 609.286636 365.207645 
L 609.286636 359.511624 
L 582.027545 359.511624 
z
" clip-path="url(#pc406daab7e)" style="fill: #d62728"/>
   </g>
   <g id="patch_73">
    <path d="M 623.824818 365.207645 
L 651.083909 365.207645 
L 651.083909 365.207645 
L 623.824818 365.207645 
z
" clip-path="url(#pc406daab7e)" style="fill: #d62728"/>
   </g>
   <g id="patch_74">
    <path d="M 665.622091 365.207645 
L 692.881182 365.207645 
L 692.881182 279.767332 
L 665.622091 279.767332 
z
" clip-path="url(#pc406daab7e)" style="fill: #d62728"/>
   </g>
   <g id="patch_75">
    <path d="M 706.510727 348.119583 
L 733.769818 348.119583 
L 733.769818 262.679269 
L 706.510727 262.679269 
z
" clip-path="url(#pc406daab7e)" style="fill: #d62728"/>
   </g>
   <g id="patch_76">
    <path d="M 789.650955 336.727541 
L 816.910045 336.727541 
L 816.910045 245.591207 
L 789.650955 245.591207 
z
" clip-path="url(#pc406daab7e)" style="fill: #d62728"/>
   </g>
   <g id="patch_77">
    <path d="M 821.453227 342.423562 
L 848.712318 342.423562 
L 848.712318 245.591207 
L 821.453227 245.591207 
z
" clip-path="url(#pc406daab7e)" style="fill: #d62728"/>
   </g>
   <g id="patch_78">
    <path d="M 845.532091 319.639478 
L 872.791182 319.639478 
L 872.791182 228.503144 
L 845.532091 228.503144 
z
" clip-path="url(#pc406daab7e)" style="fill: #d62728"/>
   </g>
   <g id="patch_79">
    <path d="M 84.094818 370.903666 
L 111.353909 370.903666 
L 111.353909 325.335499 
L 84.094818 325.335499 
z
" clip-path="url(#pc406daab7e)" style="fill: #8c564b"/>
   </g>
   <g id="patch_80">
    <path d="M 125.892091 382.295708 
L 153.151182 382.295708 
L 153.151182 331.03152 
L 125.892091 331.03152 
z
" clip-path="url(#pc406daab7e)" style="fill: #8c564b"/>
   </g>
   <g id="patch_81">
    <path d="M 167.689364 376.599687 
L 194.948455 376.599687 
L 194.948455 319.639478 
L 167.689364 319.639478 
z
" clip-path="url(#pc406daab7e)" style="fill: #8c564b"/>
   </g>
   <g id="patch_82">
    <path d="M 208.578 342.423562 
L 235.837091 342.423562 
L 235.837091 342.423562 
L 208.578 342.423562 
z
" clip-path="url(#pc406daab7e)" style="fill: #8c564b"/>
   </g>
   <g id="patch_83">
    <path d="M 249.920955 313.943457 
L 277.180045 313.943457 
L 277.180045 308.247436 
L 249.920955 308.247436 
z
" clip-path="url(#pc406daab7e)" style="fill: #8c564b"/>
   </g>
   <g id="patch_84">
    <path d="M 291.718227 308.247436 
L 318.977318 308.247436 
L 318.977318 302.551416 
L 291.718227 302.551416 
z
" clip-path="url(#pc406daab7e)" style="fill: #8c564b"/>
   </g>
   <g id="patch_85">
    <path d="M 333.5155 268.37529 
L 360.774591 268.37529 
L 360.774591 239.895186 
L 333.5155 239.895186 
z
" clip-path="url(#pc406daab7e)" style="fill: #8c564b"/>
   </g>
   <g id="patch_86">
    <path d="M 374.404136 256.983249 
L 401.663227 256.983249 
L 401.663227 234.199165 
L 374.404136 234.199165 
z
" clip-path="url(#pc406daab7e)" style="fill: #8c564b"/>
   </g>
   <g id="patch_87">
    <path d="M 415.747091 319.639478 
L 443.006182 319.639478 
L 443.006182 313.943457 
L 415.747091 313.943457 
z
" clip-path="url(#pc406daab7e)" style="fill: #8c564b"/>
   </g>
   <g id="patch_88">
    <path d="M 457.544364 336.727541 
L 484.803455 336.727541 
L 484.803455 336.727541 
L 457.544364 336.727541 
z
" clip-path="url(#pc406daab7e)" style="fill: #8c564b"/>
   </g>
   <g id="patch_89">
    <path d="M 499.341636 370.903666 
L 526.600727 370.903666 
L 526.600727 370.903666 
L 499.341636 370.903666 
z
" clip-path="url(#pc406daab7e)" style="fill: #8c564b"/>
   </g>
   <g id="patch_90">
    <path d="M 540.684591 342.423562 
L 567.943682 342.423562 
L 567.943682 342.423562 
L 540.684591 342.423562 
z
" clip-path="url(#pc406daab7e)" style="fill: #8c564b"/>
   </g>
   <g id="patch_91">
    <path d="M 582.027545 359.511624 
L 609.286636 359.511624 
L 609.286636 359.511624 
L 582.027545 359.511624 
z
" clip-path="url(#pc406daab7e)" style="fill: #8c564b"/>
   </g>
   <g id="patch_92">
    <path d="M 623.824818 365.207645 
L 651.083909 365.207645 
L 651.083909 365.207645 
L 623.824818 365.207645 
z
" clip-path="url(#pc406daab7e)" style="fill: #8c564b"/>
   </g>
   <g id="patch_93">
    <path d="M 665.622091 279.767332 
L 692.881182 279.767332 
L 692.881182 279.767332 
L 665.622091 279.767332 
z
" clip-path="url(#pc406daab7e)" style="fill: #8c564b"/>
   </g>
   <g id="patch_94">
    <path d="M 706.510727 262.679269 
L 733.769818 262.679269 
L 733.769818 262.679269 
L 706.510727 262.679269 
z
" clip-path="url(#pc406daab7e)" style="fill: #8c564b"/>
   </g>
   <g id="patch_95">
    <path d="M 789.650955 245.591207 
L 816.910045 245.591207 
L 816.910045 245.591207 
L 789.650955 245.591207 
z
" clip-path="url(#pc406daab7e)" style="fill: #8c564b"/>
   </g>
   <g id="patch_96">
    <path d="M 821.453227 245.591207 
L 848.712318 245.591207 
L 848.712318 245.591207 
L 821.453227 245.591207 
z
" clip-path="url(#pc406daab7e)" style="fill: #8c564b"/>
   </g>
   <g id="patch_97">
    <path d="M 845.532091 228.503144 
L 872.791182 228.503144 
L 872.791182 228.503144 
L 845.532091 228.503144 
z
" clip-path="url(#pc406daab7e)" style="fill: #8c564b"/>
   </g>
   <g id="patch_98">
    <path d="M 84.094818 325.335499 
L 111.353909 325.335499 
L 111.353909 313.943457 
L 84.094818 313.943457 
z
" clip-path="url(#pc406daab7e)" style="fill: #e377c2"/>
   </g>
   <g id="patch_99">
    <path d="M 125.892091 331.03152 
L 153.151182 331.03152 
L 153.151182 319.639478 
L 125.892091 319.639478 
z
" clip-path="url(#pc406daab7e)" style="fill: #e377c2"/>
   </g>
   <g id="patch_100">
    <path d="M 167.689364 319.639478 
L 194.948455 319.639478 
L 194.948455 319.639478 
L 167.689364 319.639478 
z
" clip-path="url(#pc406daab7e)" style="fill: #e377c2"/>
   </g>
   <g id="patch_101">
    <path d="M 208.578 342.423562 
L 235.837091 342.423562 
L 235.837091 331.03152 
L 208.578 331.03152 
z
" clip-path="url(#pc406daab7e)" style="fill: #e377c2"/>
   </g>
   <g id="patch_102">
    <path d="M 249.920955 308.247436 
L 277.180045 308.247436 
L 277.180045 308.247436 
L 249.920955 308.247436 
z
" clip-path="url(#pc406daab7e)" style="fill: #e377c2"/>
   </g>
   <g id="patch_103">
    <path d="M 291.718227 302.551416 
L 318.977318 302.551416 
L 318.977318 291.159374 
L 291.718227 291.159374 
z
" clip-path="url(#pc406daab7e)" style="fill: #e377c2"/>
   </g>
   <g id="patch_104">
    <path d="M 333.5155 239.895186 
L 360.774591 239.895186 
L 360.774591 239.895186 
L 333.5155 239.895186 
z
" clip-path="url(#pc406daab7e)" style="fill: #e377c2"/>
   </g>
   <g id="patch_105">
    <path d="M 374.404136 234.199165 
L 401.663227 234.199165 
L 401.663227 234.199165 
L 374.404136 234.199165 
z
" clip-path="url(#pc406daab7e)" style="fill: #e377c2"/>
   </g>
   <g id="patch_106">
    <path d="M 415.747091 313.943457 
L 443.006182 313.943457 
L 443.006182 302.551416 
L 415.747091 302.551416 
z
" clip-path="url(#pc406daab7e)" style="fill: #e377c2"/>
   </g>
   <g id="patch_107">
    <path d="M 457.544364 336.727541 
L 484.803455 336.727541 
L 484.803455 325.335499 
L 457.544364 325.335499 
z
" clip-path="url(#pc406daab7e)" style="fill: #e377c2"/>
   </g>
   <g id="patch_108">
    <path d="M 499.341636 370.903666 
L 526.600727 370.903666 
L 526.600727 370.903666 
L 499.341636 370.903666 
z
" clip-path="url(#pc406daab7e)" style="fill: #e377c2"/>
   </g>
   <g id="patch_109">
    <path d="M 540.684591 342.423562 
L 567.943682 342.423562 
L 567.943682 342.423562 
L 540.684591 342.423562 
z
" clip-path="url(#pc406daab7e)" style="fill: #e377c2"/>
   </g>
   <g id="patch_110">
    <path d="M 582.027545 359.511624 
L 609.286636 359.511624 
L 609.286636 348.119583 
L 582.027545 348.119583 
z
" clip-path="url(#pc406daab7e)" style="fill: #e377c2"/>
   </g>
   <g id="patch_111">
    <path d="M 623.824818 365.207645 
L 651.083909 365.207645 
L 651.083909 353.815603 
L 623.824818 353.815603 
z
" clip-path="url(#pc406daab7e)" style="fill: #e377c2"/>
   </g>
   <g id="patch_112">
    <path d="M 665.622091 279.767332 
L 692.881182 279.767332 
L 692.881182 268.37529 
L 665.622091 268.37529 
z
" clip-path="url(#pc406daab7e)" style="fill: #e377c2"/>
   </g>
   <g id="patch_113">
    <path d="M 706.510727 262.679269 
L 733.769818 262.679269 
L 733.769818 251.287228 
L 706.510727 251.287228 
z
" clip-path="url(#pc406daab7e)" style="fill: #e377c2"/>
   </g>
   <g id="patch_114">
    <path d="M 789.650955 245.591207 
L 816.910045 245.591207 
L 816.910045 234.199165 
L 789.650955 234.199165 
z
" clip-path="url(#pc406daab7e)" style="fill: #e377c2"/>
   </g>
   <g id="patch_115">
    <path d="M 821.453227 245.591207 
L 848.712318 245.591207 
L 848.712318 234.199165 
L 821.453227 234.199165 
z
" clip-path="url(#pc406daab7e)" style="fill: #e377c2"/>
   </g>
   <g id="patch_116">
    <path d="M 845.532091 228.503144 
L 872.791182 228.503144 
L 872.791182 217.111102 
L 845.532091 217.111102 
z
" clip-path="url(#pc406daab7e)" style="fill: #e377c2"/>
   </g>
   <g id="patch_117">
    <path d="M 84.094818 313.943457 
L 111.353909 313.943457 
L 111.353909 313.943457 
L 84.094818 313.943457 
z
" clip-path="url(#pc406daab7e)" style="fill: #7f7f7f"/>
   </g>
   <g id="patch_118">
    <path d="M 125.892091 319.639478 
L 153.151182 319.639478 
L 153.151182 319.639478 
L 125.892091 319.639478 
z
" clip-path="url(#pc406daab7e)" style="fill: #7f7f7f"/>
   </g>
   <g id="patch_119">
    <path d="M 167.689364 319.639478 
L 194.948455 319.639478 
L 194.948455 319.639478 
L 167.689364 319.639478 
z
" clip-path="url(#pc406daab7e)" style="fill: #7f7f7f"/>
   </g>
   <g id="patch_120">
    <path d="M 208.578 331.03152 
L 235.837091 331.03152 
L 235.837091 331.03152 
L 208.578 331.03152 
z
" clip-path="url(#pc406daab7e)" style="fill: #7f7f7f"/>
   </g>
   <g id="patch_121">
    <path d="M 249.920955 308.247436 
L 277.180045 308.247436 
L 277.180045 308.247436 
L 249.920955 308.247436 
z
" clip-path="url(#pc406daab7e)" style="fill: #7f7f7f"/>
   </g>
   <g id="patch_122">
    <path d="M 291.718227 291.159374 
L 318.977318 291.159374 
L 318.977318 291.159374 
L 291.718227 291.159374 
z
" clip-path="url(#pc406daab7e)" style="fill: #7f7f7f"/>
   </g>
   <g id="patch_123">
    <path d="M 333.5155 239.895186 
L 360.774591 239.895186 
L 360.774591 239.895186 
L 333.5155 239.895186 
z
" clip-path="url(#pc406daab7e)" style="fill: #7f7f7f"/>
   </g>
   <g id="patch_124">
    <path d="M 374.404136 234.199165 
L 401.663227 234.199165 
L 401.663227 234.199165 
L 374.404136 234.199165 
z
" clip-path="url(#pc406daab7e)" style="fill: #7f7f7f"/>
   </g>
   <g id="patch_125">
    <path d="M 415.747091 302.551416 
L 443.006182 302.551416 
L 443.006182 302.551416 
L 415.747091 302.551416 
z
" clip-path="url(#pc406daab7e)" style="fill: #7f7f7f"/>
   </g>
   <g id="patch_126">
    <path d="M 457.544364 325.335499 
L 484.803455 325.335499 
L 484.803455 325.335499 
L 457.544364 325.335499 
z
" clip-path="url(#pc406daab7e)" style="fill: #7f7f7f"/>
   </g>
   <g id="patch_127">
    <path d="M 499.341636 370.903666 
L 526.600727 370.903666 
L 526.600727 365.207645 
L 499.341636 365.207645 
z
" clip-path="url(#pc406daab7e)" style="fill: #7f7f7f"/>
   </g>
   <g id="patch_128">
    <path d="M 540.684591 342.423562 
L 567.943682 342.423562 
L 567.943682 331.03152 
L 540.684591 331.03152 
z
" clip-path="url(#pc406daab7e)" style="fill: #7f7f7f"/>
   </g>
   <g id="patch_129">
    <path d="M 582.027545 348.119583 
L 609.286636 348.119583 
L 609.286636 342.423562 
L 582.027545 342.423562 
z
" clip-path="url(#pc406daab7e)" style="fill: #7f7f7f"/>
   </g>
   <g id="patch_130">
    <path d="M 623.824818 353.815603 
L 651.083909 353.815603 
L 651.083909 353.815603 
L 623.824818 353.815603 
z
" clip-path="url(#pc406daab7e)" style="fill: #7f7f7f"/>
   </g>
   <g id="patch_131">
    <path d="M 665.622091 268.37529 
L 692.881182 268.37529 
L 692.881182 268.37529 
L 665.622091 268.37529 
z
" clip-path="url(#pc406daab7e)" style="fill: #7f7f7f"/>
   </g>
   <g id="patch_132">
    <path d="M 706.510727 251.287228 
L 733.769818 251.287228 
L 733.769818 251.287228 
L 706.510727 251.287228 
z
" clip-path="url(#pc406daab7e)" style="fill: #7f7f7f"/>
   </g>
   <g id="patch_133">
    <path d="M 789.650955 234.199165 
L 816.910045 234.199165 
L 816.910045 234.199165 
L 789.650955 234.199165 
z
" clip-path="url(#pc406daab7e)" style="fill: #7f7f7f"/>
   </g>
   <g id="patch_134">
    <path d="M 821.453227 234.199165 
L 848.712318 234.199165 
L 848.712318 171.542935 
L 821.453227 171.542935 
z
" clip-path="url(#pc406daab7e)" style="fill: #7f7f7f"/>
   </g>
   <g id="patch_135">
    <path d="M 845.532091 217.111102 
L 872.791182 217.111102 
L 872.791182 160.150894 
L 845.532091 160.150894 
z
" clip-path="url(#pc406daab7e)" style="fill: #7f7f7f"/>
   </g>
   <g id="patch_136">
    <path d="M 84.094818 313.943457 
L 111.353909 313.943457 
L 111.353909 313.943457 
L 84.094818 313.943457 
z
" clip-path="url(#pc406daab7e)" style="fill: #bcbd22"/>
   </g>
   <g id="patch_137">
    <path d="M 125.892091 319.639478 
L 153.151182 319.639478 
L 153.151182 319.639478 
L 125.892091 319.639478 
z
" clip-path="url(#pc406daab7e)" style="fill: #bcbd22"/>
   </g>
   <g id="patch_138">
    <path d="M 167.689364 319.639478 
L 194.948455 319.639478 
L 194.948455 319.639478 
L 167.689364 319.639478 
z
" clip-path="url(#pc406daab7e)" style="fill: #bcbd22"/>
   </g>
   <g id="patch_139">
    <path d="M 208.578 331.03152 
L 235.837091 331.03152 
L 235.837091 313.943457 
L 208.578 313.943457 
z
" clip-path="url(#pc406daab7e)" style="fill: #bcbd22"/>
   </g>
   <g id="patch_140">
    <path d="M 249.920955 308.247436 
L 277.180045 308.247436 
L 277.180045 308.247436 
L 249.920955 308.247436 
z
" clip-path="url(#pc406daab7e)" style="fill: #bcbd22"/>
   </g>
   <g id="patch_141">
    <path d="M 291.718227 291.159374 
L 318.977318 291.159374 
L 318.977318 268.37529 
L 291.718227 268.37529 
z
" clip-path="url(#pc406daab7e)" style="fill: #bcbd22"/>
   </g>
   <g id="patch_142">
    <path d="M 333.5155 239.895186 
L 360.774591 239.895186 
L 360.774591 239.895186 
L 333.5155 239.895186 
z
" clip-path="url(#pc406daab7e)" style="fill: #bcbd22"/>
   </g>
   <g id="patch_143">
    <path d="M 374.404136 234.199165 
L 401.663227 234.199165 
L 401.663227 222.807123 
L 374.404136 222.807123 
z
" clip-path="url(#pc406daab7e)" style="fill: #bcbd22"/>
   </g>
   <g id="patch_144">
    <path d="M 415.747091 302.551416 
L 443.006182 302.551416 
L 443.006182 296.855395 
L 415.747091 296.855395 
z
" clip-path="url(#pc406daab7e)" style="fill: #bcbd22"/>
   </g>
   <g id="patch_145">
    <path d="M 457.544364 325.335499 
L 484.803455 325.335499 
L 484.803455 319.639478 
L 457.544364 319.639478 
z
" clip-path="url(#pc406daab7e)" style="fill: #bcbd22"/>
   </g>
   <g id="patch_146">
    <path d="M 499.341636 365.207645 
L 526.600727 365.207645 
L 526.600727 353.815603 
L 499.341636 353.815603 
z
" clip-path="url(#pc406daab7e)" style="fill: #bcbd22"/>
   </g>
   <g id="patch_147">
    <path d="M 540.684591 331.03152 
L 567.943682 331.03152 
L 567.943682 313.943457 
L 540.684591 313.943457 
z
" clip-path="url(#pc406daab7e)" style="fill: #bcbd22"/>
   </g>
   <g id="patch_148">
    <path d="M 582.027545 342.423562 
L 609.286636 342.423562 
L 609.286636 325.335499 
L 582.027545 325.335499 
z
" clip-path="url(#pc406daab7e)" style="fill: #bcbd22"/>
   </g>
   <g id="patch_149">
    <path d="M 623.824818 353.815603 
L 651.083909 353.815603 
L 651.083909 342.423562 
L 623.824818 342.423562 
z
" clip-path="url(#pc406daab7e)" style="fill: #bcbd22"/>
   </g>
   <g id="patch_150">
    <path d="M 665.622091 268.37529 
L 692.881182 268.37529 
L 692.881182 256.983249 
L 665.622091 256.983249 
z
" clip-path="url(#pc406daab7e)" style="fill: #bcbd22"/>
   </g>
   <g id="patch_151">
    <path d="M 706.510727 251.287228 
L 733.769818 251.287228 
L 733.769818 251.287228 
L 706.510727 251.287228 
z
" clip-path="url(#pc406daab7e)" style="fill: #bcbd22"/>
   </g>
   <g id="patch_152">
    <path d="M 789.650955 234.199165 
L 816.910045 234.199165 
L 816.910045 234.199165 
L 789.650955 234.199165 
z
" clip-path="url(#pc406daab7e)" style="fill: #bcbd22"/>
   </g>
   <g id="patch_153">
    <path d="M 821.453227 171.542935 
L 848.712318 171.542935 
L 848.712318 171.542935 
L 821.453227 171.542935 
z
" clip-path="url(#pc406daab7e)" style="fill: #bcbd22"/>
   </g>
   <g id="patch_154">
    <path d="M 845.532091 160.150894 
L 872.791182 160.150894 
L 872.791182 160.150894 
L 845.532091 160.150894 
z
" clip-path="url(#pc406daab7e)" style="fill: #bcbd22"/>
   </g>
   <g id="patch_155">
    <path d="M 84.094818 313.943457 
L 111.353909 313.943457 
L 111.353909 308.247436 
L 84.094818 308.247436 
z
" clip-path="url(#pc406daab7e)" style="fill: #17becf"/>
   </g>
   <g id="patch_156">
    <path d="M 125.892091 319.639478 
L 153.151182 319.639478 
L 153.151182 262.679269 
L 125.892091 262.679269 
z
" clip-path="url(#pc406daab7e)" style="fill: #17becf"/>
   </g>
   <g id="patch_157">
    <path d="M 167.689364 319.639478 
L 194.948455 319.639478 
L 194.948455 262.679269 
L 167.689364 262.679269 
z
" clip-path="url(#pc406daab7e)" style="fill: #17becf"/>
   </g>
   <g id="patch_158">
    <path d="M 208.578 313.943457 
L 235.837091 313.943457 
L 235.837091 285.463353 
L 208.578 285.463353 
z
" clip-path="url(#pc406daab7e)" style="fill: #17becf"/>
   </g>
   <g id="patch_159">
    <path d="M 249.920955 308.247436 
L 277.180045 308.247436 
L 277.180045 274.071311 
L 249.920955 274.071311 
z
" clip-path="url(#pc406daab7e)" style="fill: #17becf"/>
   </g>
   <g id="patch_160">
    <path d="M 291.718227 268.37529 
L 318.977318 268.37529 
L 318.977318 228.503144 
L 291.718227 228.503144 
z
" clip-path="url(#pc406daab7e)" style="fill: #17becf"/>
   </g>
   <g id="patch_161">
    <path d="M 333.5155 239.895186 
L 360.774591 239.895186 
L 360.774591 154.454873 
L 333.5155 154.454873 
z
" clip-path="url(#pc406daab7e)" style="fill: #17becf"/>
   </g>
   <g id="patch_162">
    <path d="M 374.404136 222.807123 
L 401.663227 222.807123 
L 401.663227 154.454873 
L 374.404136 154.454873 
z
" clip-path="url(#pc406daab7e)" style="fill: #17becf"/>
   </g>
   <g id="patch_163">
    <path d="M 415.747091 296.855395 
L 443.006182 296.855395 
L 443.006182 268.37529 
L 415.747091 268.37529 
z
" clip-path="url(#pc406daab7e)" style="fill: #17becf"/>
   </g>
   <g id="patch_164">
    <path d="M 457.544364 319.639478 
L 484.803455 319.639478 
L 484.803455 296.855395 
L 457.544364 296.855395 
z
" clip-path="url(#pc406daab7e)" style="fill: #17becf"/>
   </g>
   <g id="patch_165">
    <path d="M 499.341636 353.815603 
L 526.600727 353.815603 
L 526.600727 319.639478 
L 499.341636 319.639478 
z
" clip-path="url(#pc406daab7e)" style="fill: #17becf"/>
   </g>
   <g id="patch_166">
    <path d="M 540.684591 313.943457 
L 567.943682 313.943457 
L 567.943682 285.463353 
L 540.684591 285.463353 
z
" clip-path="url(#pc406daab7e)" style="fill: #17becf"/>
   </g>
   <g id="patch_167">
    <path d="M 582.027545 325.335499 
L 609.286636 325.335499 
L 609.286636 296.855395 
L 582.027545 296.855395 
z
" clip-path="url(#pc406daab7e)" style="fill: #17becf"/>
   </g>
   <g id="patch_168">
    <path d="M 623.824818 342.423562 
L 651.083909 342.423562 
L 651.083909 308.247436 
L 623.824818 308.247436 
z
" clip-path="url(#pc406daab7e)" style="fill: #17becf"/>
   </g>
   <g id="patch_169">
    <path d="M 665.622091 256.983249 
L 692.881182 256.983249 
L 692.881182 234.199165 
L 665.622091 234.199165 
z
" clip-path="url(#pc406daab7e)" style="fill: #17becf"/>
   </g>
   <g id="patch_170">
    <path d="M 706.510727 251.287228 
L 733.769818 251.287228 
L 733.769818 211.415082 
L 706.510727 211.415082 
z
" clip-path="url(#pc406daab7e)" style="fill: #17becf"/>
   </g>
   <g id="patch_171">
    <path d="M 789.650955 234.199165 
L 816.910045 234.199165 
L 816.910045 211.415082 
L 789.650955 211.415082 
z
" clip-path="url(#pc406daab7e)" style="fill: #17becf"/>
   </g>
   <g id="patch_172">
    <path d="M 821.453227 171.542935 
L 848.712318 171.542935 
L 848.712318 171.542935 
L 821.453227 171.542935 
z
" clip-path="url(#pc406daab7e)" style="fill: #17becf"/>
   </g>
   <g id="patch_173">
    <path d="M 845.532091 160.150894 
L 872.791182 160.150894 
L 872.791182 46.230476 
L 845.532091 46.230476 
z
" clip-path="url(#pc406daab7e)" style="fill: #17becf"/>
   </g>
   <g id="matplotlib.axis_1">
    <g id="xtick_1">
     <g id="line2d_1">
      <defs>
       <path id="m9034138320" d="M 0 0 
L 0 3.5 
" style="stroke: #000000; stroke-width: 0.8"/>
      </defs>
      <g>
       <use xlink:href="#m9034138320" x="181.773227" y="462.04" style="stroke: #000000; stroke-width: 0.8"/>
      </g>
     </g>
     <g id="text_1">
      <!-- 2022 -->
      <g transform="translate(169.048227 476.638438) scale(0.1 -0.1)">
       <defs>
        <path id="DejaVuSans-32" d="M 1228 531 
L 3431 531 
L 3431 0 
L 469 0 
L 469 531 
Q 828 903 1448 1529 
Q 2069 2156 2228 2338 
Q 2531 2678 2651 2914 
Q 2772 3150 2772 3378 
Q 2772 3750 2511 3984 
Q 2250 4219 1831 4219 
Q 1534 4219 1204 4116 
Q 875 4013 500 3803 
L 500 4441 
Q 881 4594 1212 4672 
Q 1544 4750 1819 4750 
Q 2544 4750 2975 4387 
Q 3406 4025 3406 3419 
Q 3406 3131 3298 2873 
Q 3191 2616 2906 2266 
Q 2828 2175 2409 1742 
Q 1991 1309 1228 531 
z
" transform="scale(0.015625)"/>
        <path id="DejaVuSans-30" d="M 2034 4250 
Q 1547 4250 1301 3770 
Q 1056 3291 1056 2328 
Q 1056 1369 1301 889 
Q 1547 409 2034 409 
Q 2525 409 2770 889 
Q 3016 1369 3016 2328 
Q 3016 3291 2770 3770 
Q 2525 4250 2034 4250 
z
M 2034 4750 
Q 2819 4750 3233 4129 
Q 3647 3509 3647 2328 
Q 3647 1150 3233 529 
Q 2819 -91 2034 -91 
Q 1250 -91 836 529 
Q 422 1150 422 2328 
Q 422 3509 836 4129 
Q 1250 4750 2034 4750 
z
" transform="scale(0.015625)"/>
       </defs>
       <use xlink:href="#DejaVuSans-32"/>
       <use xlink:href="#DejaVuSans-30" transform="translate(63.623047 0)"/>
       <use xlink:href="#DejaVuSans-32" transform="translate(127.246094 0)"/>
       <use xlink:href="#DejaVuSans-32" transform="translate(190.869141 0)"/>
      </g>
     </g>
    </g>
    <g id="xtick_2">
     <g id="line2d_2">
      <g>
       <use xlink:href="#m9034138320" x="347.599364" y="462.04" style="stroke: #000000; stroke-width: 0.8"/>
      </g>
     </g>
     <g id="text_2">
      <!-- 2023 -->
      <g transform="translate(334.874364 476.638438) scale(0.1 -0.1)">
       <defs>
        <path id="DejaVuSans-33" d="M 2597 2516 
Q 3050 2419 3304 2112 
Q 3559 1806 3559 1356 
Q 3559 666 3084 287 
Q 2609 -91 1734 -91 
Q 1441 -91 1130 -33 
Q 819 25 488 141 
L 488 750 
Q 750 597 1062 519 
Q 1375 441 1716 441 
Q 2309 441 2620 675 
Q 2931 909 2931 1356 
Q 2931 1769 2642 2001 
Q 2353 2234 1838 2234 
L 1294 2234 
L 1294 2753 
L 1863 2753 
Q 2328 2753 2575 2939 
Q 2822 3125 2822 3475 
Q 2822 3834 2567 4026 
Q 2313 4219 1838 4219 
Q 1578 4219 1281 4162 
Q 984 4106 628 3988 
L 628 4550 
Q 988 4650 1302 4700 
Q 1616 4750 1894 4750 
Q 2613 4750 3031 4423 
Q 3450 4097 3450 3541 
Q 3450 3153 3228 2886 
Q 3006 2619 2597 2516 
z
" transform="scale(0.015625)"/>
       </defs>
       <use xlink:href="#DejaVuSans-32"/>
       <use xlink:href="#DejaVuSans-30" transform="translate(63.623047 0)"/>
       <use xlink:href="#DejaVuSans-32" transform="translate(127.246094 0)"/>
       <use xlink:href="#DejaVuSans-33" transform="translate(190.869141 0)"/>
      </g>
     </g>
    </g>
    <g id="xtick_3">
     <g id="line2d_3">
      <g>
       <use xlink:href="#m9034138320" x="513.4255" y="462.04" style="stroke: #000000; stroke-width: 0.8"/>
      </g>
     </g>
     <g id="text_3">
      <!-- 2024 -->
      <g transform="translate(500.7005 476.638438) scale(0.1 -0.1)">
       <defs>
        <path id="DejaVuSans-34" d="M 2419 4116 
L 825 1625 
L 2419 1625 
L 2419 4116 
z
M 2253 4666 
L 3047 4666 
L 3047 1625 
L 3713 1625 
L 3713 1100 
L 3047 1100 
L 3047 0 
L 2419 0 
L 2419 1100 
L 313 1100 
L 313 1709 
L 2253 4666 
z
" transform="scale(0.015625)"/>
       </defs>
       <use xlink:href="#DejaVuSans-32"/>
       <use xlink:href="#DejaVuSans-30" transform="translate(63.623047 0)"/>
       <use xlink:href="#DejaVuSans-32" transform="translate(127.246094 0)"/>
       <use xlink:href="#DejaVuSans-34" transform="translate(190.869141 0)"/>
      </g>
     </g>
    </g>
    <g id="xtick_4">
     <g id="line2d_4">
      <g>
       <use xlink:href="#m9034138320" x="679.705955" y="462.04" style="stroke: #000000; stroke-width: 0.8"/>
      </g>
     </g>
     <g id="text_4">
      <!-- 2025 -->
      <g transform="translate(666.980955 476.638438) scale(0.1 -0.1)">
       <defs>
        <path id="DejaVuSans-35" d="M 691 4666 
L 3169 4666 
L 3169 4134 
L 1269 4134 
L 1269 2991 
Q 1406 3038 1543 3061 
Q 1681 3084 1819 3084 
Q 2600 3084 3056 2656 
Q 3513 2228 3513 1497 
Q 3513 744 3044 326 
Q 2575 -91 1722 -91 
Q 1428 -91 1123 -41 
Q 819 9 494 109 
L 494 744 
Q 775 591 1075 516 
Q 1375 441 1709 441 
Q 2250 441 2565 725 
Q 2881 1009 2881 1497 
Q 2881 1984 2565 2268 
Q 2250 2553 1709 2553 
Q 1456 2553 1204 2497 
Q 953 2441 691 2322 
L 691 4666 
z
" transform="scale(0.015625)"/>
       </defs>
       <use xlink:href="#DejaVuSans-32"/>
       <use xlink:href="#DejaVuSans-30" transform="translate(63.623047 0)"/>
       <use xlink:href="#DejaVuSans-32" transform="translate(127.246094 0)"/>
       <use xlink:href="#DejaVuSans-35" transform="translate(190.869141 0)"/>
      </g>
     </g>
    </g>
    <g id="xtick_5">
     <g id="line2d_5">
      <g>
       <use xlink:href="#m9034138320" x="845.532091" y="462.04" style="stroke: #000000; stroke-width: 0.8"/>
      </g>
     </g>
     <g id="text_5">
      <!-- 2026 -->
      <g transform="translate(832.807091 476.638438) scale(0.1 -0.1)">
       <defs>
        <path id="DejaVuSans-36" d="M 2113 2584 
Q 1688 2584 1439 2293 
Q 1191 2003 1191 1497 
Q 1191 994 1439 701 
Q 1688 409 2113 409 
Q 2538 409 2786 701 
Q 3034 994 3034 1497 
Q 3034 2003 2786 2293 
Q 2538 2584 2113 2584 
z
M 3366 4563 
L 3366 3988 
Q 3128 4100 2886 4159 
Q 2644 4219 2406 4219 
Q 1781 4219 1451 3797 
Q 1122 3375 1075 2522 
Q 1259 2794 1537 2939 
Q 1816 3084 2150 3084 
Q 2853 3084 3261 2657 
Q 3669 2231 3669 1497 
Q 3669 778 3244 343 
Q 2819 -91 2113 -91 
Q 1303 -91 875 529 
Q 447 1150 447 2328 
Q 447 3434 972 4092 
Q 1497 4750 2381 4750 
Q 2619 4750 2861 4703 
Q 3103 4656 3366 4563 
z
" transform="scale(0.015625)"/>
       </defs>
       <use xlink:href="#DejaVuSans-32"/>
       <use xlink:href="#DejaVuSans-30" transform="translate(63.623047 0)"/>
       <use xlink:href="#DejaVuSans-32" transform="translate(127.246094 0)"/>
       <use xlink:href="#DejaVuSans-36" transform="translate(190.869141 0)"/>
      </g>
     </g>
    </g>
    <g id="text_6">
     <!-- Date -->
     <g transform="translate(466.492219 490.316563) scale(0.1 -0.1)">
      <defs>
       <path id="DejaVuSans-44" d="M 1259 4147 
L 1259 519 
L 2022 519 
Q 2988 519 3436 956 
Q 3884 1394 3884 2338 
Q 3884 3275 3436 3711 
Q 2988 4147 2022 4147 
L 1259 4147 
z
M 628 4666 
L 1925 4666 
Q 3281 4666 3915 4102 
Q 4550 3538 4550 2338 
Q 4550 1131 3912 565 
Q 3275 0 1925 0 
L 628 0 
L 628 4666 
z
" transform="scale(0.015625)"/>
       <path id="DejaVuSans-61" d="M 2194 1759 
Q 1497 1759 1228 1600 
Q 959 1441 959 1056 
Q 959 750 1161 570 
Q 1363 391 1709 391 
Q 2188 391 2477 730 
Q 2766 1069 2766 1631 
L 2766 1759 
L 2194 1759 
z
M 3341 1997 
L 3341 0 
L 2766 0 
L 2766 531 
Q 2569 213 2275 61 
Q 1981 -91 1556 -91 
Q 1019 -91 701 211 
Q 384 513 384 1019 
Q 384 1609 779 1909 
Q 1175 2209 1959 2209 
L 2766 2209 
L 2766 2266 
Q 2766 2663 2505 2880 
Q 2244 3097 1772 3097 
Q 1472 3097 1187 3025 
Q 903 2953 641 2809 
L 641 3341 
Q 956 3463 1253 3523 
Q 1550 3584 1831 3584 
Q 2591 3584 2966 3190 
Q 3341 2797 3341 1997 
z
" transform="scale(0.015625)"/>
       <path id="DejaVuSans-74" d="M 1172 4494 
L 1172 3500 
L 2356 3500 
L 2356 3053 
L 1172 3053 
L 1172 1153 
Q 1172 725 1289 603 
Q 1406 481 1766 481 
L 2356 481 
L 2356 0 
L 1766 0 
Q 1100 0 847 248 
Q 594 497 594 1153 
L 594 3053 
L 172 3053 
L 172 3500 
L 594 3500 
L 594 4494 
L 1172 4494 
z
" transform="scale(0.015625)"/>
       <path id="DejaVuSans-65" d="M 3597 1894 
L 3597 1613 
L 953 1613 
Q 991 1019 1311 708 
Q 1631 397 2203 397 
Q 2534 397 2845 478 
Q 3156 559 3463 722 
L 3463 178 
Q 3153 47 2828 -22 
Q 2503 -91 2169 -91 
Q 1331 -91 842 396 
Q 353 884 353 1716 
Q 353 2575 817 3079 
Q 1281 3584 2069 3584 
Q 2775 3584 3186 3129 
Q 3597 2675 3597 1894 
z
M 3022 2063 
Q 3016 2534 2758 2815 
Q 2500 3097 2075 3097 
Q 1594 3097 1305 2825 
Q 1016 2553 972 2059 
L 3022 2063 
z
" transform="scale(0.015625)"/>
      </defs>
      <use xlink:href="#DejaVuSans-44"/>
      <use xlink:href="#DejaVuSans-61" transform="translate(77.001953 0)"/>
      <use xlink:href="#DejaVuSans-74" transform="translate(138.28125 0)"/>
      <use xlink:href="#DejaVuSans-65" transform="translate(177.490234 0)"/>
     </g>
    </g>
   </g>
   <g id="matplotlib.axis_2">
    <g id="ytick_1">
     <g id="line2d_6">
      <path d="M 44.66 462.04 
L 912.226 462.04 
" clip-path="url(#pc406daab7e)" style="fill: none; stroke: #b0b0b0; stroke-opacity: 0.3; stroke-width: 0.8; stroke-linecap: square"/>
     </g>
     <g id="line2d_7">
      <defs>
       <path id="me2e43b29c9" d="M 0 0 
L -3.5 0 
" style="stroke: #000000; stroke-width: 0.8"/>
      </defs>
      <g>
       <use xlink:href="#me2e43b29c9" x="44.66" y="462.04" style="stroke: #000000; stroke-width: 0.8"/>
      </g>
     </g>
     <g id="text_7">
      <!-- 0 -->
      <g transform="translate(31.2975 465.839219) scale(0.1 -0.1)">
       <use xlink:href="#DejaVuSans-30"/>
      </g>
     </g>
    </g>
    <g id="ytick_2">
     <g id="line2d_8">
      <path d="M 44.66 405.079791 
L 912.226 405.079791 
" clip-path="url(#pc406daab7e)" style="fill: none; stroke: #b0b0b0; stroke-opacity: 0.3; stroke-width: 0.8; stroke-linecap: square"/>
     </g>
     <g id="line2d_9">
      <g>
       <use xlink:href="#me2e43b29c9" x="44.66" y="405.079791" style="stroke: #000000; stroke-width: 0.8"/>
      </g>
     </g>
     <g id="text_8">
      <!-- 10 -->
      <g transform="translate(24.935 408.87901) scale(0.1 -0.1)">
       <defs>
        <path id="DejaVuSans-31" d="M 794 531 
L 1825 531 
L 1825 4091 
L 703 3866 
L 703 4441 
L 1819 4666 
L 2450 4666 
L 2450 531 
L 3481 531 
L 3481 0 
L 794 0 
L 794 531 
z
" transform="scale(0.015625)"/>
       </defs>
       <use xlink:href="#DejaVuSans-31"/>
       <use xlink:href="#DejaVuSans-30" transform="translate(63.623047 0)"/>
      </g>
     </g>
    </g>
    <g id="ytick_3">
     <g id="line2d_10">
      <path d="M 44.66 348.119583 
L 912.226 348.119583 
" clip-path="url(#pc406daab7e)" style="fill: none; stroke: #b0b0b0; stroke-opacity: 0.3; stroke-width: 0.8; stroke-linecap: square"/>
     </g>
     <g id="line2d_11">
      <g>
       <use xlink:href="#me2e43b29c9" x="44.66" y="348.119583" style="stroke: #000000; stroke-width: 0.8"/>
      </g>
     </g>
     <g id="text_9">
      <!-- 20 -->
      <g transform="translate(24.935 351.918801) scale(0.1 -0.1)">
       <use xlink:href="#DejaVuSans-32"/>
       <use xlink:href="#DejaVuSans-30" transform="translate(63.623047 0)"/>
      </g>
     </g>
    </g>
    <g id="ytick_4">
     <g id="line2d_12">
      <path d="M 44.66 291.159374 
L 912.226 291.159374 
" clip-path="url(#pc406daab7e)" style="fill: none; stroke: #b0b0b0; stroke-opacity: 0.3; stroke-width: 0.8; stroke-linecap: square"/>
     </g>
     <g id="line2d_13">
      <g>
       <use xlink:href="#me2e43b29c9" x="44.66" y="291.159374" style="stroke: #000000; stroke-width: 0.8"/>
      </g>
     </g>
     <g id="text_10">
      <!-- 30 -->
      <g transform="translate(24.935 294.958593) scale(0.1 -0.1)">
       <use xlink:href="#DejaVuSans-33"/>
       <use xlink:href="#DejaVuSans-30" transform="translate(63.623047 0)"/>
      </g>
     </g>
    </g>
    <g id="ytick_5">
     <g id="line2d_14">
      <path d="M 44.66 234.199165 
L 912.226 234.199165 
" clip-path="url(#pc406daab7e)" style="fill: none; stroke: #b0b0b0; stroke-opacity: 0.3; stroke-width: 0.8; stroke-linecap: square"/>
     </g>
     <g id="line2d_15">
      <g>
       <use xlink:href="#me2e43b29c9" x="44.66" y="234.199165" style="stroke: #000000; stroke-width: 0.8"/>
      </g>
     </g>
     <g id="text_11">
      <!-- 40 -->
      <g transform="translate(24.935 237.998384) scale(0.1 -0.1)">
       <use xlink:href="#DejaVuSans-34"/>
       <use xlink:href="#DejaVuSans-30" transform="translate(63.623047 0)"/>
      </g>
     </g>
    </g>
    <g id="ytick_6">
     <g id="line2d_16">
      <path d="M 44.66 177.238956 
L 912.226 177.238956 
" clip-path="url(#pc406daab7e)" style="fill: none; stroke: #b0b0b0; stroke-opacity: 0.3; stroke-width: 0.8; stroke-linecap: square"/>
     </g>
     <g id="line2d_17">
      <g>
       <use xlink:href="#me2e43b29c9" x="44.66" y="177.238956" style="stroke: #000000; stroke-width: 0.8"/>
      </g>
     </g>
     <g id="text_12">
      <!-- 50 -->
      <g transform="translate(24.935 181.038175) scale(0.1 -0.1)">
       <use xlink:href="#DejaVuSans-35"/>
       <use xlink:href="#DejaVuSans-30" transform="translate(63.623047 0)"/>
      </g>
     </g>
    </g>
    <g id="ytick_7">
     <g id="line2d_18">
      <path d="M 44.66 120.278748 
L 912.226 120.278748 
" clip-path="url(#pc406daab7e)" style="fill: none; stroke: #b0b0b0; stroke-opacity: 0.3; stroke-width: 0.8; stroke-linecap: square"/>
     </g>
     <g id="line2d_19">
      <g>
       <use xlink:href="#me2e43b29c9" x="44.66" y="120.278748" style="stroke: #000000; stroke-width: 0.8"/>
      </g>
     </g>
     <g id="text_13">
      <!-- 60 -->
      <g transform="translate(24.935 124.077966) scale(0.1 -0.1)">
       <use xlink:href="#DejaVuSans-36"/>
       <use xlink:href="#DejaVuSans-30" transform="translate(63.623047 0)"/>
      </g>
     </g>
    </g>
    <g id="ytick_8">
     <g id="line2d_20">
      <path d="M 44.66 63.318539 
L 912.226 63.318539 
" clip-path="url(#pc406daab7e)" style="fill: none; stroke: #b0b0b0; stroke-opacity: 0.3; stroke-width: 0.8; stroke-linecap: square"/>
     </g>
     <g id="line2d_21">
      <g>
       <use xlink:href="#me2e43b29c9" x="44.66" y="63.318539" style="stroke: #000000; stroke-width: 0.8"/>
      </g>
     </g>
     <g id="text_14">
      <!-- 70 -->
      <g transform="translate(24.935 67.117758) scale(0.1 -0.1)">
       <defs>
        <path id="DejaVuSans-37" d="M 525 4666 
L 3525 4666 
L 3525 4397 
L 1831 0 
L 1172 0 
L 2766 4134 
L 525 4134 
L 525 4666 
z
" transform="scale(0.015625)"/>
       </defs>
       <use xlink:href="#DejaVuSans-37"/>
       <use xlink:href="#DejaVuSans-30" transform="translate(63.623047 0)"/>
      </g>
     </g>
    </g>
    <g id="text_15">
     <!-- Number of Validators in N30 Set -->
     <g transform="translate(18.855312 324.255625) rotate(-90) scale(0.1 -0.1)">
      <defs>
       <path id="DejaVuSans-4e" d="M 628 4666 
L 1478 4666 
L 3547 763 
L 3547 4666 
L 4159 4666 
L 4159 0 
L 3309 0 
L 1241 3903 
L 1241 0 
L 628 0 
L 628 4666 
z
" transform="scale(0.015625)"/>
       <path id="DejaVuSans-75" d="M 544 1381 
L 544 3500 
L 1119 3500 
L 1119 1403 
Q 1119 906 1312 657 
Q 1506 409 1894 409 
Q 2359 409 2629 706 
Q 2900 1003 2900 1516 
L 2900 3500 
L 3475 3500 
L 3475 0 
L 2900 0 
L 2900 538 
Q 2691 219 2414 64 
Q 2138 -91 1772 -91 
Q 1169 -91 856 284 
Q 544 659 544 1381 
z
M 1991 3584 
L 1991 3584 
z
" transform="scale(0.015625)"/>
       <path id="DejaVuSans-6d" d="M 3328 2828 
Q 3544 3216 3844 3400 
Q 4144 3584 4550 3584 
Q 5097 3584 5394 3201 
Q 5691 2819 5691 2113 
L 5691 0 
L 5113 0 
L 5113 2094 
Q 5113 2597 4934 2840 
Q 4756 3084 4391 3084 
Q 3944 3084 3684 2787 
Q 3425 2491 3425 1978 
L 3425 0 
L 2847 0 
L 2847 2094 
Q 2847 2600 2669 2842 
Q 2491 3084 2119 3084 
Q 1678 3084 1418 2786 
Q 1159 2488 1159 1978 
L 1159 0 
L 581 0 
L 581 3500 
L 1159 3500 
L 1159 2956 
Q 1356 3278 1631 3431 
Q 1906 3584 2284 3584 
Q 2666 3584 2933 3390 
Q 3200 3197 3328 2828 
z
" transform="scale(0.015625)"/>
       <path id="DejaVuSans-62" d="M 3116 1747 
Q 3116 2381 2855 2742 
Q 2594 3103 2138 3103 
Q 1681 3103 1420 2742 
Q 1159 2381 1159 1747 
Q 1159 1113 1420 752 
Q 1681 391 2138 391 
Q 2594 391 2855 752 
Q 3116 1113 3116 1747 
z
M 1159 2969 
Q 1341 3281 1617 3432 
Q 1894 3584 2278 3584 
Q 2916 3584 3314 3078 
Q 3713 2572 3713 1747 
Q 3713 922 3314 415 
Q 2916 -91 2278 -91 
Q 1894 -91 1617 61 
Q 1341 213 1159 525 
L 1159 0 
L 581 0 
L 581 4863 
L 1159 4863 
L 1159 2969 
z
" transform="scale(0.015625)"/>
       <path id="DejaVuSans-72" d="M 2631 2963 
Q 2534 3019 2420 3045 
Q 2306 3072 2169 3072 
Q 1681 3072 1420 2755 
Q 1159 2438 1159 1844 
L 1159 0 
L 581 0 
L 581 3500 
L 1159 3500 
L 1159 2956 
Q 1341 3275 1631 3429 
Q 1922 3584 2338 3584 
Q 2397 3584 2469 3576 
Q 2541 3569 2628 3553 
L 2631 2963 
z
" transform="scale(0.015625)"/>
       <path id="DejaVuSans-20" transform="scale(0.015625)"/>
       <path id="DejaVuSans-6f" d="M 1959 3097 
Q 1497 3097 1228 2736 
Q 959 2375 959 1747 
Q 959 1119 1226 758 
Q 1494 397 1959 397 
Q 2419 397 2687 759 
Q 2956 1122 2956 1747 
Q 2956 2369 2687 2733 
Q 2419 3097 1959 3097 
z
M 1959 3584 
Q 2709 3584 3137 3096 
Q 3566 2609 3566 1747 
Q 3566 888 3137 398 
Q 2709 -91 1959 -91 
Q 1206 -91 779 398 
Q 353 888 353 1747 
Q 353 2609 779 3096 
Q 1206 3584 1959 3584 
z
" transform="scale(0.015625)"/>
       <path id="DejaVuSans-66" d="M 2375 4863 
L 2375 4384 
L 1825 4384 
Q 1516 4384 1395 4259 
Q 1275 4134 1275 3809 
L 1275 3500 
L 2222 3500 
L 2222 3053 
L 1275 3053 
L 1275 0 
L 697 0 
L 697 3053 
L 147 3053 
L 147 3500 
L 697 3500 
L 697 3744 
Q 697 4328 969 4595 
Q 1241 4863 1831 4863 
L 2375 4863 
z
" transform="scale(0.015625)"/>
       <path id="DejaVuSans-56" d="M 1831 0 
L 50 4666 
L 709 4666 
L 2188 738 
L 3669 4666 
L 4325 4666 
L 2547 0 
L 1831 0 
z
" transform="scale(0.015625)"/>
       <path id="DejaVuSans-6c" d="M 603 4863 
L 1178 4863 
L 1178 0 
L 603 0 
L 603 4863 
z
" transform="scale(0.015625)"/>
       <path id="DejaVuSans-69" d="M 603 3500 
L 1178 3500 
L 1178 0 
L 603 0 
L 603 3500 
z
M 603 4863 
L 1178 4863 
L 1178 4134 
L 603 4134 
L 603 4863 
z
" transform="scale(0.015625)"/>
       <path id="DejaVuSans-64" d="M 2906 2969 
L 2906 4863 
L 3481 4863 
L 3481 0 
L 2906 0 
L 2906 525 
Q 2725 213 2448 61 
Q 2172 -91 1784 -91 
Q 1150 -91 751 415 
Q 353 922 353 1747 
Q 353 2572 751 3078 
Q 1150 3584 1784 3584 
Q 2172 3584 2448 3432 
Q 2725 3281 2906 2969 
z
M 947 1747 
Q 947 1113 1208 752 
Q 1469 391 1925 391 
Q 2381 391 2643 752 
Q 2906 1113 2906 1747 
Q 2906 2381 2643 2742 
Q 2381 3103 1925 3103 
Q 1469 3103 1208 2742 
Q 947 2381 947 1747 
z
" transform="scale(0.015625)"/>
       <path id="DejaVuSans-73" d="M 2834 3397 
L 2834 2853 
Q 2591 2978 2328 3040 
Q 2066 3103 1784 3103 
Q 1356 3103 1142 2972 
Q 928 2841 928 2578 
Q 928 2378 1081 2264 
Q 1234 2150 1697 2047 
L 1894 2003 
Q 2506 1872 2764 1633 
Q 3022 1394 3022 966 
Q 3022 478 2636 193 
Q 2250 -91 1575 -91 
Q 1294 -91 989 -36 
Q 684 19 347 128 
L 347 722 
Q 666 556 975 473 
Q 1284 391 1588 391 
Q 1994 391 2212 530 
Q 2431 669 2431 922 
Q 2431 1156 2273 1281 
Q 2116 1406 1581 1522 
L 1381 1569 
Q 847 1681 609 1914 
Q 372 2147 372 2553 
Q 372 3047 722 3315 
Q 1072 3584 1716 3584 
Q 2034 3584 2315 3537 
Q 2597 3491 2834 3397 
z
" transform="scale(0.015625)"/>
       <path id="DejaVuSans-6e" d="M 3513 2113 
L 3513 0 
L 2938 0 
L 2938 2094 
Q 2938 2591 2744 2837 
Q 2550 3084 2163 3084 
Q 1697 3084 1428 2787 
Q 1159 2491 1159 1978 
L 1159 0 
L 581 0 
L 581 3500 
L 1159 3500 
L 1159 2956 
Q 1366 3272 1645 3428 
Q 1925 3584 2291 3584 
Q 2894 3584 3203 3211 
Q 3513 2838 3513 2113 
z
" transform="scale(0.015625)"/>
       <path id="DejaVuSans-53" d="M 3425 4513 
L 3425 3897 
Q 3066 4069 2747 4153 
Q 2428 4238 2131 4238 
Q 1616 4238 1336 4038 
Q 1056 3838 1056 3469 
Q 1056 3159 1242 3001 
Q 1428 2844 1947 2747 
L 2328 2669 
Q 3034 2534 3370 2195 
Q 3706 1856 3706 1288 
Q 3706 609 3251 259 
Q 2797 -91 1919 -91 
Q 1588 -91 1214 -16 
Q 841 59 441 206 
L 441 856 
Q 825 641 1194 531 
Q 1563 422 1919 422 
Q 2459 422 2753 634 
Q 3047 847 3047 1241 
Q 3047 1584 2836 1778 
Q 2625 1972 2144 2069 
L 1759 2144 
Q 1053 2284 737 2584 
Q 422 2884 422 3419 
Q 422 4038 858 4394 
Q 1294 4750 2059 4750 
Q 2388 4750 2728 4690 
Q 3069 4631 3425 4513 
z
" transform="scale(0.015625)"/>
      </defs>
      <use xlink:href="#DejaVuSans-4e"/>
      <use xlink:href="#DejaVuSans-75" transform="translate(74.804688 0)"/>
      <use xlink:href="#DejaVuSans-6d" transform="translate(138.183594 0)"/>
      <use xlink:href="#DejaVuSans-62" transform="translate(235.595703 0)"/>
      <use xlink:href="#DejaVuSans-65" transform="translate(299.072266 0)"/>
      <use xlink:href="#DejaVuSans-72" transform="translate(360.595703 0)"/>
      <use xlink:href="#DejaVuSans-20" transform="translate(401.708984 0)"/>
      <use xlink:href="#DejaVuSans-6f" transform="translate(433.496094 0)"/>
      <use xlink:href="#DejaVuSans-66" transform="translate(494.677734 0)"/>
      <use xlink:href="#DejaVuSans-20" transform="translate(529.882812 0)"/>
      <use xlink:href="#DejaVuSans-56" transform="translate(561.669922 0)"/>
      <use xlink:href="#DejaVuSans-61" transform="translate(622.328125 0)"/>
      <use xlink:href="#DejaVuSans-6c" transform="translate(683.607422 0)"/>
      <use xlink:href="#DejaVuSans-69" transform="translate(711.390625 0)"/>
      <use xlink:href="#DejaVuSans-64" transform="translate(739.173828 0)"/>
      <use xlink:href="#DejaVuSans-61" transform="translate(802.650391 0)"/>
      <use xlink:href="#DejaVuSans-74" transform="translate(863.929688 0)"/>
      <use xlink:href="#DejaVuSans-6f" transform="translate(903.138672 0)"/>
      <use xlink:href="#DejaVuSans-72" transform="translate(964.320312 0)"/>
      <use xlink:href="#DejaVuSans-73" transform="translate(1005.433594 0)"/>
      <use xlink:href="#DejaVuSans-20" transform="translate(1057.533203 0)"/>
      <use xlink:href="#DejaVuSans-69" transform="translate(1089.320312 0)"/>
      <use xlink:href="#DejaVuSans-6e" transform="translate(1117.103516 0)"/>
      <use xlink:href="#DejaVuSans-20" transform="translate(1180.482422 0)"/>
      <use xlink:href="#DejaVuSans-4e" transform="translate(1212.269531 0)"/>
      <use xlink:href="#DejaVuSans-33" transform="translate(1287.074219 0)"/>
      <use xlink:href="#DejaVuSans-30" transform="translate(1350.697266 0)"/>
      <use xlink:href="#DejaVuSans-20" transform="translate(1414.320312 0)"/>
      <use xlink:href="#DejaVuSans-53" transform="translate(1446.107422 0)"/>
      <use xlink:href="#DejaVuSans-65" transform="translate(1509.583984 0)"/>
      <use xlink:href="#DejaVuSans-74" transform="translate(1571.107422 0)"/>
     </g>
    </g>
   </g>
   <g id="patch_174">
    <path d="M 44.66 462.04 
L 44.66 25.44 
" style="fill: none; stroke: #000000; stroke-width: 0.8; stroke-linejoin: miter; stroke-linecap: square"/>
   </g>
   <g id="patch_175">
    <path d="M 912.226 462.04 
L 912.226 25.44 
" style="fill: none; stroke: #000000; stroke-width: 0.8; stroke-linejoin: miter; stroke-linecap: square"/>
   </g>
   <g id="patch_176">
    <path d="M 44.66 462.04 
L 912.226 462.04 
" style="fill: none; stroke: #000000; stroke-width: 0.8; stroke-linejoin: miter; stroke-linecap: square"/>
   </g>
   <g id="patch_177">
    <path d="M 44.66 25.44 
L 912.226 25.44 
" style="fill: none; stroke: #000000; stroke-width: 0.8; stroke-linejoin: miter; stroke-linecap: square"/>
   </g>
   <g id="text_16">
    <!-- Country Distribution of Nakamoto-30 Validators Over Time -->
    <g transform="translate(279.830813 19.44) scale(0.12 -0.12)">
     <defs>
      <path id="DejaVuSans-Bold-43" d="M 4288 256 
Q 3956 84 3597 -3 
Q 3238 -91 2847 -91 
Q 1681 -91 1000 561 
Q 319 1213 319 2328 
Q 319 3447 1000 4098 
Q 1681 4750 2847 4750 
Q 3238 4750 3597 4662 
Q 3956 4575 4288 4403 
L 4288 3438 
Q 3953 3666 3628 3772 
Q 3303 3878 2944 3878 
Q 2300 3878 1931 3465 
Q 1563 3053 1563 2328 
Q 1563 1606 1931 1193 
Q 2300 781 2944 781 
Q 3303 781 3628 887 
Q 3953 994 4288 1222 
L 4288 256 
z
" transform="scale(0.015625)"/>
      <path id="DejaVuSans-Bold-6f" d="M 2203 2784 
Q 1831 2784 1636 2517 
Q 1441 2250 1441 1747 
Q 1441 1244 1636 976 
Q 1831 709 2203 709 
Q 2569 709 2762 976 
Q 2956 1244 2956 1747 
Q 2956 2250 2762 2517 
Q 2569 2784 2203 2784 
z
M 2203 3584 
Q 3106 3584 3614 3096 
Q 4122 2609 4122 1747 
Q 4122 884 3614 396 
Q 3106 -91 2203 -91 
Q 1297 -91 786 396 
Q 275 884 275 1747 
Q 275 2609 786 3096 
Q 1297 3584 2203 3584 
z
" transform="scale(0.015625)"/>
      <path id="DejaVuSans-Bold-75" d="M 500 1363 
L 500 3500 
L 1625 3500 
L 1625 3150 
Q 1625 2866 1622 2436 
Q 1619 2006 1619 1863 
Q 1619 1441 1641 1255 
Q 1663 1069 1716 984 
Q 1784 875 1895 815 
Q 2006 756 2150 756 
Q 2500 756 2700 1025 
Q 2900 1294 2900 1772 
L 2900 3500 
L 4019 3500 
L 4019 0 
L 2900 0 
L 2900 506 
Q 2647 200 2364 54 
Q 2081 -91 1741 -91 
Q 1134 -91 817 281 
Q 500 653 500 1363 
z
" transform="scale(0.015625)"/>
      <path id="DejaVuSans-Bold-6e" d="M 4056 2131 
L 4056 0 
L 2931 0 
L 2931 347 
L 2931 1631 
Q 2931 2084 2911 2256 
Q 2891 2428 2841 2509 
Q 2775 2619 2662 2680 
Q 2550 2741 2406 2741 
Q 2056 2741 1856 2470 
Q 1656 2200 1656 1722 
L 1656 0 
L 538 0 
L 538 3500 
L 1656 3500 
L 1656 2988 
Q 1909 3294 2193 3439 
Q 2478 3584 2822 3584 
Q 3428 3584 3742 3212 
Q 4056 2841 4056 2131 
z
" transform="scale(0.015625)"/>
      <path id="DejaVuSans-Bold-74" d="M 1759 4494 
L 1759 3500 
L 2913 3500 
L 2913 2700 
L 1759 2700 
L 1759 1216 
Q 1759 972 1856 886 
Q 1953 800 2241 800 
L 2816 800 
L 2816 0 
L 1856 0 
Q 1194 0 917 276 
Q 641 553 641 1216 
L 641 2700 
L 84 2700 
L 84 3500 
L 641 3500 
L 641 4494 
L 1759 4494 
z
" transform="scale(0.015625)"/>
      <path id="DejaVuSans-Bold-72" d="M 3138 2547 
Q 2991 2616 2845 2648 
Q 2700 2681 2553 2681 
Q 2122 2681 1889 2404 
Q 1656 2128 1656 1613 
L 1656 0 
L 538 0 
L 538 3500 
L 1656 3500 
L 1656 2925 
Q 1872 3269 2151 3426 
Q 2431 3584 2822 3584 
Q 2878 3584 2943 3579 
Q 3009 3575 3134 3559 
L 3138 2547 
z
" transform="scale(0.015625)"/>
      <path id="DejaVuSans-Bold-79" d="M 78 3500 
L 1197 3500 
L 2138 1125 
L 2938 3500 
L 4056 3500 
L 2584 -331 
Q 2363 -916 2067 -1148 
Q 1772 -1381 1288 -1381 
L 641 -1381 
L 641 -647 
L 991 -647 
Q 1275 -647 1404 -556 
Q 1534 -466 1606 -231 
L 1638 -134 
L 78 3500 
z
" transform="scale(0.015625)"/>
      <path id="DejaVuSans-Bold-20" transform="scale(0.015625)"/>
      <path id="DejaVuSans-Bold-44" d="M 1791 3756 
L 1791 909 
L 2222 909 
Q 2959 909 3348 1275 
Q 3738 1641 3738 2338 
Q 3738 3031 3350 3393 
Q 2963 3756 2222 3756 
L 1791 3756 
z
M 588 4666 
L 1856 4666 
Q 2919 4666 3439 4514 
Q 3959 4363 4331 4000 
Q 4659 3684 4818 3271 
Q 4978 2859 4978 2338 
Q 4978 1809 4818 1395 
Q 4659 981 4331 666 
Q 3956 303 3431 151 
Q 2906 0 1856 0 
L 588 0 
L 588 4666 
z
" transform="scale(0.015625)"/>
      <path id="DejaVuSans-Bold-69" d="M 538 3500 
L 1656 3500 
L 1656 0 
L 538 0 
L 538 3500 
z
M 538 4863 
L 1656 4863 
L 1656 3950 
L 538 3950 
L 538 4863 
z
" transform="scale(0.015625)"/>
      <path id="DejaVuSans-Bold-73" d="M 3272 3391 
L 3272 2541 
Q 2913 2691 2578 2766 
Q 2244 2841 1947 2841 
Q 1628 2841 1473 2761 
Q 1319 2681 1319 2516 
Q 1319 2381 1436 2309 
Q 1553 2238 1856 2203 
L 2053 2175 
Q 2913 2066 3209 1816 
Q 3506 1566 3506 1031 
Q 3506 472 3093 190 
Q 2681 -91 1863 -91 
Q 1516 -91 1145 -36 
Q 775 19 384 128 
L 384 978 
Q 719 816 1070 734 
Q 1422 653 1784 653 
Q 2113 653 2278 743 
Q 2444 834 2444 1013 
Q 2444 1163 2330 1236 
Q 2216 1309 1875 1350 
L 1678 1375 
Q 931 1469 631 1722 
Q 331 1975 331 2491 
Q 331 3047 712 3315 
Q 1094 3584 1881 3584 
Q 2191 3584 2531 3537 
Q 2872 3491 3272 3391 
z
" transform="scale(0.015625)"/>
      <path id="DejaVuSans-Bold-62" d="M 2400 722 
Q 2759 722 2948 984 
Q 3138 1247 3138 1747 
Q 3138 2247 2948 2509 
Q 2759 2772 2400 2772 
Q 2041 2772 1848 2508 
Q 1656 2244 1656 1747 
Q 1656 1250 1848 986 
Q 2041 722 2400 722 
z
M 1656 2988 
Q 1888 3294 2169 3439 
Q 2450 3584 2816 3584 
Q 3463 3584 3878 3070 
Q 4294 2556 4294 1747 
Q 4294 938 3878 423 
Q 3463 -91 2816 -91 
Q 2450 -91 2169 54 
Q 1888 200 1656 506 
L 1656 0 
L 538 0 
L 538 4863 
L 1656 4863 
L 1656 2988 
z
" transform="scale(0.015625)"/>
      <path id="DejaVuSans-Bold-66" d="M 2841 4863 
L 2841 4128 
L 2222 4128 
Q 1984 4128 1890 4042 
Q 1797 3956 1797 3744 
L 1797 3500 
L 2753 3500 
L 2753 2700 
L 1797 2700 
L 1797 0 
L 678 0 
L 678 2700 
L 122 2700 
L 122 3500 
L 678 3500 
L 678 3744 
Q 678 4316 997 4589 
Q 1316 4863 1984 4863 
L 2841 4863 
z
" transform="scale(0.015625)"/>
      <path id="DejaVuSans-Bold-4e" d="M 588 4666 
L 1931 4666 
L 3628 1466 
L 3628 4666 
L 4769 4666 
L 4769 0 
L 3425 0 
L 1728 3200 
L 1728 0 
L 588 0 
L 588 4666 
z
" transform="scale(0.015625)"/>
      <path id="DejaVuSans-Bold-61" d="M 2106 1575 
Q 1756 1575 1579 1456 
Q 1403 1338 1403 1106 
Q 1403 894 1545 773 
Q 1688 653 1941 653 
Q 2256 653 2472 879 
Q 2688 1106 2688 1447 
L 2688 1575 
L 2106 1575 
z
M 3816 1997 
L 3816 0 
L 2688 0 
L 2688 519 
Q 2463 200 2181 54 
Q 1900 -91 1497 -91 
Q 953 -91 614 226 
Q 275 544 275 1050 
Q 275 1666 698 1953 
Q 1122 2241 2028 2241 
L 2688 2241 
L 2688 2328 
Q 2688 2594 2478 2717 
Q 2269 2841 1825 2841 
Q 1466 2841 1156 2769 
Q 847 2697 581 2553 
L 581 3406 
Q 941 3494 1303 3539 
Q 1666 3584 2028 3584 
Q 2975 3584 3395 3211 
Q 3816 2838 3816 1997 
z
" transform="scale(0.015625)"/>
      <path id="DejaVuSans-Bold-6b" d="M 538 4863 
L 1656 4863 
L 1656 2216 
L 2944 3500 
L 4244 3500 
L 2534 1894 
L 4378 0 
L 3022 0 
L 1656 1459 
L 1656 0 
L 538 0 
L 538 4863 
z
" transform="scale(0.015625)"/>
      <path id="DejaVuSans-Bold-6d" d="M 3781 2919 
Q 3994 3244 4286 3414 
Q 4578 3584 4928 3584 
Q 5531 3584 5847 3212 
Q 6163 2841 6163 2131 
L 6163 0 
L 5038 0 
L 5038 1825 
Q 5041 1866 5042 1909 
Q 5044 1953 5044 2034 
Q 5044 2406 4934 2573 
Q 4825 2741 4581 2741 
Q 4263 2741 4089 2478 
Q 3916 2216 3909 1719 
L 3909 0 
L 2784 0 
L 2784 1825 
Q 2784 2406 2684 2573 
Q 2584 2741 2328 2741 
Q 2006 2741 1831 2477 
Q 1656 2213 1656 1722 
L 1656 0 
L 531 0 
L 531 3500 
L 1656 3500 
L 1656 2988 
Q 1863 3284 2130 3434 
Q 2397 3584 2719 3584 
Q 3081 3584 3359 3409 
Q 3638 3234 3781 2919 
z
" transform="scale(0.015625)"/>
      <path id="DejaVuSans-Bold-2d" d="M 347 2297 
L 2309 2297 
L 2309 1388 
L 347 1388 
L 347 2297 
z
" transform="scale(0.015625)"/>
      <path id="DejaVuSans-Bold-33" d="M 2981 2516 
Q 3453 2394 3698 2092 
Q 3944 1791 3944 1325 
Q 3944 631 3412 270 
Q 2881 -91 1863 -91 
Q 1503 -91 1142 -33 
Q 781 25 428 141 
L 428 1069 
Q 766 900 1098 814 
Q 1431 728 1753 728 
Q 2231 728 2486 893 
Q 2741 1059 2741 1369 
Q 2741 1688 2480 1852 
Q 2219 2016 1709 2016 
L 1228 2016 
L 1228 2791 
L 1734 2791 
Q 2188 2791 2409 2933 
Q 2631 3075 2631 3366 
Q 2631 3634 2415 3781 
Q 2200 3928 1806 3928 
Q 1516 3928 1219 3862 
Q 922 3797 628 3669 
L 628 4550 
Q 984 4650 1334 4700 
Q 1684 4750 2022 4750 
Q 2931 4750 3382 4451 
Q 3834 4153 3834 3553 
Q 3834 3144 3618 2883 
Q 3403 2622 2981 2516 
z
" transform="scale(0.015625)"/>
      <path id="DejaVuSans-Bold-30" d="M 2944 2338 
Q 2944 3213 2780 3570 
Q 2616 3928 2228 3928 
Q 1841 3928 1675 3570 
Q 1509 3213 1509 2338 
Q 1509 1453 1675 1090 
Q 1841 728 2228 728 
Q 2613 728 2778 1090 
Q 2944 1453 2944 2338 
z
M 4147 2328 
Q 4147 1169 3647 539 
Q 3147 -91 2228 -91 
Q 1306 -91 806 539 
Q 306 1169 306 2328 
Q 306 3491 806 4120 
Q 1306 4750 2228 4750 
Q 3147 4750 3647 4120 
Q 4147 3491 4147 2328 
z
" transform="scale(0.015625)"/>
      <path id="DejaVuSans-Bold-56" d="M 31 4666 
L 1241 4666 
L 2478 1222 
L 3713 4666 
L 4922 4666 
L 3194 0 
L 1759 0 
L 31 4666 
z
" transform="scale(0.015625)"/>
      <path id="DejaVuSans-Bold-6c" d="M 538 4863 
L 1656 4863 
L 1656 0 
L 538 0 
L 538 4863 
z
" transform="scale(0.015625)"/>
      <path id="DejaVuSans-Bold-64" d="M 2919 2988 
L 2919 4863 
L 4044 4863 
L 4044 0 
L 2919 0 
L 2919 506 
Q 2688 197 2409 53 
Q 2131 -91 1766 -91 
Q 1119 -91 703 423 
Q 288 938 288 1747 
Q 288 2556 703 3070 
Q 1119 3584 1766 3584 
Q 2128 3584 2408 3439 
Q 2688 3294 2919 2988 
z
M 2181 722 
Q 2541 722 2730 984 
Q 2919 1247 2919 1747 
Q 2919 2247 2730 2509 
Q 2541 2772 2181 2772 
Q 1825 2772 1636 2509 
Q 1447 2247 1447 1747 
Q 1447 1247 1636 984 
Q 1825 722 2181 722 
z
" transform="scale(0.015625)"/>
      <path id="DejaVuSans-Bold-4f" d="M 2719 3878 
Q 2169 3878 1866 3472 
Q 1563 3066 1563 2328 
Q 1563 1594 1866 1187 
Q 2169 781 2719 781 
Q 3272 781 3575 1187 
Q 3878 1594 3878 2328 
Q 3878 3066 3575 3472 
Q 3272 3878 2719 3878 
z
M 2719 4750 
Q 3844 4750 4481 4106 
Q 5119 3463 5119 2328 
Q 5119 1197 4481 553 
Q 3844 -91 2719 -91 
Q 1597 -91 958 553 
Q 319 1197 319 2328 
Q 319 3463 958 4106 
Q 1597 4750 2719 4750 
z
" transform="scale(0.015625)"/>
      <path id="DejaVuSans-Bold-76" d="M 97 3500 
L 1216 3500 
L 2088 1081 
L 2956 3500 
L 4078 3500 
L 2700 0 
L 1472 0 
L 97 3500 
z
" transform="scale(0.015625)"/>
      <path id="DejaVuSans-Bold-65" d="M 4031 1759 
L 4031 1441 
L 1416 1441 
Q 1456 1047 1700 850 
Q 1944 653 2381 653 
Q 2734 653 3104 758 
Q 3475 863 3866 1075 
L 3866 213 
Q 3469 63 3072 -14 
Q 2675 -91 2278 -91 
Q 1328 -91 801 392 
Q 275 875 275 1747 
Q 275 2603 792 3093 
Q 1309 3584 2216 3584 
Q 3041 3584 3536 3087 
Q 4031 2591 4031 1759 
z
M 2881 2131 
Q 2881 2450 2695 2645 
Q 2509 2841 2209 2841 
Q 1884 2841 1681 2658 
Q 1478 2475 1428 2131 
L 2881 2131 
z
" transform="scale(0.015625)"/>
      <path id="DejaVuSans-Bold-54" d="M 31 4666 
L 4331 4666 
L 4331 3756 
L 2784 3756 
L 2784 0 
L 1581 0 
L 1581 3756 
L 31 3756 
L 31 4666 
z
" transform="scale(0.015625)"/>
     </defs>
     <use xlink:href="#DejaVuSans-Bold-43"/>
     <use xlink:href="#DejaVuSans-Bold-6f" transform="translate(73.388672 0)"/>
     <use xlink:href="#DejaVuSans-Bold-75" transform="translate(142.089844 0)"/>
     <use xlink:href="#DejaVuSans-Bold-6e" transform="translate(213.28125 0)"/>
     <use xlink:href="#DejaVuSans-Bold-74" transform="translate(284.472656 0)"/>
     <use xlink:href="#DejaVuSans-Bold-72" transform="translate(332.275391 0)"/>
     <use xlink:href="#DejaVuSans-Bold-79" transform="translate(381.591797 0)"/>
     <use xlink:href="#DejaVuSans-Bold-20" transform="translate(446.777344 0)"/>
     <use xlink:href="#DejaVuSans-Bold-44" transform="translate(481.591797 0)"/>
     <use xlink:href="#DejaVuSans-Bold-69" transform="translate(564.599609 0)"/>
     <use xlink:href="#DejaVuSans-Bold-73" transform="translate(598.876953 0)"/>
     <use xlink:href="#DejaVuSans-Bold-74" transform="translate(658.398438 0)"/>
     <use xlink:href="#DejaVuSans-Bold-72" transform="translate(706.201172 0)"/>
     <use xlink:href="#DejaVuSans-Bold-69" transform="translate(755.517578 0)"/>
     <use xlink:href="#DejaVuSans-Bold-62" transform="translate(789.794922 0)"/>
     <use xlink:href="#DejaVuSans-Bold-75" transform="translate(861.376953 0)"/>
     <use xlink:href="#DejaVuSans-Bold-74" transform="translate(932.568359 0)"/>
     <use xlink:href="#DejaVuSans-Bold-69" transform="translate(980.371094 0)"/>
     <use xlink:href="#DejaVuSans-Bold-6f" transform="translate(1014.648438 0)"/>
     <use xlink:href="#DejaVuSans-Bold-6e" transform="translate(1083.349609 0)"/>
     <use xlink:href="#DejaVuSans-Bold-20" transform="translate(1154.541016 0)"/>
     <use xlink:href="#DejaVuSans-Bold-6f" transform="translate(1189.355469 0)"/>
     <use xlink:href="#DejaVuSans-Bold-66" transform="translate(1258.056641 0)"/>
     <use xlink:href="#DejaVuSans-Bold-20" transform="translate(1301.5625 0)"/>
     <use xlink:href="#DejaVuSans-Bold-4e" transform="translate(1336.376953 0)"/>
     <use xlink:href="#DejaVuSans-Bold-61" transform="translate(1420.068359 0)"/>
     <use xlink:href="#DejaVuSans-Bold-6b" transform="translate(1487.548828 0)"/>
     <use xlink:href="#DejaVuSans-Bold-61" transform="translate(1554.052734 0)"/>
     <use xlink:href="#DejaVuSans-Bold-6d" transform="translate(1621.533203 0)"/>
     <use xlink:href="#DejaVuSans-Bold-6f" transform="translate(1725.732422 0)"/>
     <use xlink:href="#DejaVuSans-Bold-74" transform="translate(1794.433594 0)"/>
     <use xlink:href="#DejaVuSans-Bold-6f" transform="translate(1842.236328 0)"/>
     <use xlink:href="#DejaVuSans-Bold-2d" transform="translate(1910.9375 0)"/>
     <use xlink:href="#DejaVuSans-Bold-33" transform="translate(1952.441406 0)"/>
     <use xlink:href="#DejaVuSans-Bold-30" transform="translate(2022.021484 0)"/>
     <use xlink:href="#DejaVuSans-Bold-20" transform="translate(2091.601562 0)"/>
     <use xlink:href="#DejaVuSans-Bold-56" transform="translate(2126.416016 0)"/>
     <use xlink:href="#DejaVuSans-Bold-61" transform="translate(2198.308594 0)"/>
     <use xlink:href="#DejaVuSans-Bold-6c" transform="translate(2265.789062 0)"/>
     <use xlink:href="#DejaVuSans-Bold-69" transform="translate(2300.066406 0)"/>
     <use xlink:href="#DejaVuSans-Bold-64" transform="translate(2334.34375 0)"/>
     <use xlink:href="#DejaVuSans-Bold-61" transform="translate(2405.925781 0)"/>
     <use xlink:href="#DejaVuSans-Bold-74" transform="translate(2473.40625 0)"/>
     <use xlink:href="#DejaVuSans-Bold-6f" transform="translate(2521.208984 0)"/>
     <use xlink:href="#DejaVuSans-Bold-72" transform="translate(2589.910156 0)"/>
     <use xlink:href="#DejaVuSans-Bold-73" transform="translate(2639.226562 0)"/>
     <use xlink:href="#DejaVuSans-Bold-20" transform="translate(2698.748047 0)"/>
     <use xlink:href="#DejaVuSans-Bold-4f" transform="translate(2733.5625 0)"/>
     <use xlink:href="#DejaVuSans-Bold-76" transform="translate(2818.572266 0)"/>
     <use xlink:href="#DejaVuSans-Bold-65" transform="translate(2883.757812 0)"/>
     <use xlink:href="#DejaVuSans-Bold-72" transform="translate(2951.580078 0)"/>
     <use xlink:href="#DejaVuSans-Bold-20" transform="translate(3000.896484 0)"/>
     <use xlink:href="#DejaVuSans-Bold-54" transform="translate(3035.710938 0)"/>
     <use xlink:href="#DejaVuSans-Bold-69" transform="translate(3103.923828 0)"/>
     <use xlink:href="#DejaVuSans-Bold-6d" transform="translate(3138.201172 0)"/>
     <use xlink:href="#DejaVuSans-Bold-65" transform="translate(3242.400391 0)"/>
    </g>
   </g>
   <g id="legend_1">
    <g id="patch_178">
     <path d="M 936.57732 165.543125 
L 996.97107 165.543125 
Q 998.97107 165.543125 998.97107 163.543125 
L 998.97107 32.44 
Q 998.97107 30.44 996.97107 30.44 
L 936.57732 30.44 
Q 934.57732 30.44 934.57732 32.44 
L 934.57732 163.543125 
Q 934.57732 165.543125 936.57732 165.543125 
z
" style="fill: #ffffff; opacity: 0.8; stroke: #cccccc; stroke-linejoin: miter"/>
    </g>
    <g id="patch_179">
     <path d="M 938.57732 42.038437 
L 958.57732 42.038437 
L 958.57732 35.038437 
L 938.57732 35.038437 
z
" style="fill: #1f77b4"/>
    </g>
    <g id="text_17">
     <!-- US -->
     <g transform="translate(966.57732 42.038437) scale(0.1 -0.1)">
      <defs>
       <path id="DejaVuSans-55" d="M 556 4666 
L 1191 4666 
L 1191 1831 
Q 1191 1081 1462 751 
Q 1734 422 2344 422 
Q 2950 422 3222 751 
Q 3494 1081 3494 1831 
L 3494 4666 
L 4128 4666 
L 4128 1753 
Q 4128 841 3676 375 
Q 3225 -91 2344 -91 
Q 1459 -91 1007 375 
Q 556 841 556 1753 
L 556 4666 
z
" transform="scale(0.015625)"/>
      </defs>
      <use xlink:href="#DejaVuSans-55"/>
      <use xlink:href="#DejaVuSans-53" transform="translate(73.193359 0)"/>
     </g>
    </g>
    <g id="patch_180">
     <path d="M 938.57732 56.716563 
L 958.57732 56.716563 
L 958.57732 49.716563 
L 938.57732 49.716563 
z
" style="fill: #ff7f0e"/>
    </g>
    <g id="text_18">
     <!-- JP -->
     <g transform="translate(966.57732 56.716563) scale(0.1 -0.1)">
      <defs>
       <path id="DejaVuSans-4a" d="M 628 4666 
L 1259 4666 
L 1259 325 
Q 1259 -519 939 -900 
Q 619 -1281 -91 -1281 
L -331 -1281 
L -331 -750 
L -134 -750 
Q 284 -750 456 -515 
Q 628 -281 628 325 
L 628 4666 
z
" transform="scale(0.015625)"/>
       <path id="DejaVuSans-50" d="M 1259 4147 
L 1259 2394 
L 2053 2394 
Q 2494 2394 2734 2622 
Q 2975 2850 2975 3272 
Q 2975 3691 2734 3919 
Q 2494 4147 2053 4147 
L 1259 4147 
z
M 628 4666 
L 2053 4666 
Q 2838 4666 3239 4311 
Q 3641 3956 3641 3272 
Q 3641 2581 3239 2228 
Q 2838 1875 2053 1875 
L 1259 1875 
L 1259 0 
L 628 0 
L 628 4666 
z
" transform="scale(0.015625)"/>
      </defs>
      <use xlink:href="#DejaVuSans-4a"/>
      <use xlink:href="#DejaVuSans-50" transform="translate(29.492188 0)"/>
     </g>
    </g>
    <g id="patch_181">
     <path d="M 938.57732 71.394687 
L 958.57732 71.394687 
L 958.57732 64.394687 
L 938.57732 64.394687 
z
" style="fill: #2ca02c"/>
    </g>
    <g id="text_19">
     <!-- DE -->
     <g transform="translate(966.57732 71.394687) scale(0.1 -0.1)">
      <defs>
       <path id="DejaVuSans-45" d="M 628 4666 
L 3578 4666 
L 3578 4134 
L 1259 4134 
L 1259 2753 
L 3481 2753 
L 3481 2222 
L 1259 2222 
L 1259 531 
L 3634 531 
L 3634 0 
L 628 0 
L 628 4666 
z
" transform="scale(0.015625)"/>
      </defs>
      <use xlink:href="#DejaVuSans-44"/>
      <use xlink:href="#DejaVuSans-45" transform="translate(77.001953 0)"/>
     </g>
    </g>
    <g id="patch_182">
     <path d="M 938.57732 86.072812 
L 958.57732 86.072812 
L 958.57732 79.072812 
L 938.57732 79.072812 
z
" style="fill: #d62728"/>
    </g>
    <g id="text_20">
     <!-- IE -->
     <g transform="translate(966.57732 86.072812) scale(0.1 -0.1)">
      <defs>
       <path id="DejaVuSans-49" d="M 628 4666 
L 1259 4666 
L 1259 0 
L 628 0 
L 628 4666 
z
" transform="scale(0.015625)"/>
      </defs>
      <use xlink:href="#DejaVuSans-49"/>
      <use xlink:href="#DejaVuSans-45" transform="translate(29.492188 0)"/>
     </g>
    </g>
    <g id="patch_183">
     <path d="M 938.57732 100.750937 
L 958.57732 100.750937 
L 958.57732 93.750937 
L 938.57732 93.750937 
z
" style="fill: #8c564b"/>
    </g>
    <g id="text_21">
     <!-- SG -->
     <g transform="translate(966.57732 100.750937) scale(0.1 -0.1)">
      <defs>
       <path id="DejaVuSans-47" d="M 3809 666 
L 3809 1919 
L 2778 1919 
L 2778 2438 
L 4434 2438 
L 4434 434 
Q 4069 175 3628 42 
Q 3188 -91 2688 -91 
Q 1594 -91 976 548 
Q 359 1188 359 2328 
Q 359 3472 976 4111 
Q 1594 4750 2688 4750 
Q 3144 4750 3555 4637 
Q 3966 4525 4313 4306 
L 4313 3634 
Q 3963 3931 3569 4081 
Q 3175 4231 2741 4231 
Q 1884 4231 1454 3753 
Q 1025 3275 1025 2328 
Q 1025 1384 1454 906 
Q 1884 428 2741 428 
Q 3075 428 3337 486 
Q 3600 544 3809 666 
z
" transform="scale(0.015625)"/>
      </defs>
      <use xlink:href="#DejaVuSans-53"/>
      <use xlink:href="#DejaVuSans-47" transform="translate(63.476562 0)"/>
     </g>
    </g>
    <g id="patch_184">
     <path d="M 938.57732 115.429062 
L 958.57732 115.429062 
L 958.57732 108.429062 
L 938.57732 108.429062 
z
" style="fill: #e377c2"/>
    </g>
    <g id="text_22">
     <!-- TR -->
     <g transform="translate(966.57732 115.429062) scale(0.1 -0.1)">
      <defs>
       <path id="DejaVuSans-54" d="M -19 4666 
L 3928 4666 
L 3928 4134 
L 2272 4134 
L 2272 0 
L 1638 0 
L 1638 4134 
L -19 4134 
L -19 4666 
z
" transform="scale(0.015625)"/>
       <path id="DejaVuSans-52" d="M 2841 2188 
Q 3044 2119 3236 1894 
Q 3428 1669 3622 1275 
L 4263 0 
L 3584 0 
L 2988 1197 
Q 2756 1666 2539 1819 
Q 2322 1972 1947 1972 
L 1259 1972 
L 1259 0 
L 628 0 
L 628 4666 
L 2053 4666 
Q 2853 4666 3247 4331 
Q 3641 3997 3641 3322 
Q 3641 2881 3436 2590 
Q 3231 2300 2841 2188 
z
M 1259 4147 
L 1259 2491 
L 2053 2491 
Q 2509 2491 2742 2702 
Q 2975 2913 2975 3322 
Q 2975 3731 2742 3939 
Q 2509 4147 2053 4147 
L 1259 4147 
z
" transform="scale(0.015625)"/>
      </defs>
      <use xlink:href="#DejaVuSans-54"/>
      <use xlink:href="#DejaVuSans-52" transform="translate(61.083984 0)"/>
     </g>
    </g>
    <g id="patch_185">
     <path d="M 938.57732 130.107188 
L 958.57732 130.107188 
L 958.57732 123.107188 
L 938.57732 123.107188 
z
" style="fill: #7f7f7f"/>
    </g>
    <g id="text_23">
     <!-- CA -->
     <g transform="translate(966.57732 130.107188) scale(0.1 -0.1)">
      <defs>
       <path id="DejaVuSans-43" d="M 4122 4306 
L 4122 3641 
Q 3803 3938 3442 4084 
Q 3081 4231 2675 4231 
Q 1875 4231 1450 3742 
Q 1025 3253 1025 2328 
Q 1025 1406 1450 917 
Q 1875 428 2675 428 
Q 3081 428 3442 575 
Q 3803 722 4122 1019 
L 4122 359 
Q 3791 134 3420 21 
Q 3050 -91 2638 -91 
Q 1578 -91 968 557 
Q 359 1206 359 2328 
Q 359 3453 968 4101 
Q 1578 4750 2638 4750 
Q 3056 4750 3426 4639 
Q 3797 4528 4122 4306 
z
" transform="scale(0.015625)"/>
       <path id="DejaVuSans-41" d="M 2188 4044 
L 1331 1722 
L 3047 1722 
L 2188 4044 
z
M 1831 4666 
L 2547 4666 
L 4325 0 
L 3669 0 
L 3244 1197 
L 1141 1197 
L 716 0 
L 50 0 
L 1831 4666 
z
" transform="scale(0.015625)"/>
      </defs>
      <use xlink:href="#DejaVuSans-43"/>
      <use xlink:href="#DejaVuSans-41" transform="translate(69.824219 0)"/>
     </g>
    </g>
    <g id="patch_186">
     <path d="M 938.57732 144.785312 
L 958.57732 144.785312 
L 958.57732 137.785312 
L 938.57732 137.785312 
z
" style="fill: #bcbd22"/>
    </g>
    <g id="text_24">
     <!-- BH -->
     <g transform="translate(966.57732 144.785312) scale(0.1 -0.1)">
      <defs>
       <path id="DejaVuSans-42" d="M 1259 2228 
L 1259 519 
L 2272 519 
Q 2781 519 3026 730 
Q 3272 941 3272 1375 
Q 3272 1813 3026 2020 
Q 2781 2228 2272 2228 
L 1259 2228 
z
M 1259 4147 
L 1259 2741 
L 2194 2741 
Q 2656 2741 2882 2914 
Q 3109 3088 3109 3444 
Q 3109 3797 2882 3972 
Q 2656 4147 2194 4147 
L 1259 4147 
z
M 628 4666 
L 2241 4666 
Q 2963 4666 3353 4366 
Q 3744 4066 3744 3513 
Q 3744 3084 3544 2831 
Q 3344 2578 2956 2516 
Q 3422 2416 3680 2098 
Q 3938 1781 3938 1306 
Q 3938 681 3513 340 
Q 3088 0 2303 0 
L 628 0 
L 628 4666 
z
" transform="scale(0.015625)"/>
       <path id="DejaVuSans-48" d="M 628 4666 
L 1259 4666 
L 1259 2753 
L 3553 2753 
L 3553 4666 
L 4184 4666 
L 4184 0 
L 3553 0 
L 3553 2222 
L 1259 2222 
L 1259 0 
L 628 0 
L 628 4666 
z
" transform="scale(0.015625)"/>
      </defs>
      <use xlink:href="#DejaVuSans-42"/>
      <use xlink:href="#DejaVuSans-48" transform="translate(68.603516 0)"/>
     </g>
    </g>
    <g id="patch_187">
     <path d="M 938.57732 159.463437 
L 958.57732 159.463437 
L 958.57732 152.463437 
L 938.57732 152.463437 
z
" style="fill: #17becf"/>
    </g>
    <g id="text_25">
     <!-- Other -->
     <g transform="translate(966.57732 159.463437) scale(0.1 -0.1)">
      <defs>
       <path id="DejaVuSans-4f" d="M 2522 4238 
Q 1834 4238 1429 3725 
Q 1025 3213 1025 2328 
Q 1025 1447 1429 934 
Q 1834 422 2522 422 
Q 3209 422 3611 934 
Q 4013 1447 4013 2328 
Q 4013 3213 3611 3725 
Q 3209 4238 2522 4238 
z
M 2522 4750 
Q 3503 4750 4090 4092 
Q 4678 3434 4678 2328 
Q 4678 1225 4090 567 
Q 3503 -91 2522 -91 
Q 1538 -91 948 565 
Q 359 1222 359 2328 
Q 359 3434 948 4092 
Q 1538 4750 2522 4750 
z
" transform="scale(0.015625)"/>
       <path id="DejaVuSans-68" d="M 3513 2113 
L 3513 0 
L 2938 0 
L 2938 2094 
Q 2938 2591 2744 2837 
Q 2550 3084 2163 3084 
Q 1697 3084 1428 2787 
Q 1159 2491 1159 1978 
L 1159 0 
L 581 0 
L 581 4863 
L 1159 4863 
L 1159 2956 
Q 1366 3272 1645 3428 
Q 1925 3584 2291 3584 
Q 2894 3584 3203 3211 
Q 3513 2838 3513 2113 
z
" transform="scale(0.015625)"/>
      </defs>
      <use xlink:href="#DejaVuSans-4f"/>
      <use xlink:href="#DejaVuSans-74" transform="translate(78.710938 0)"/>
      <use xlink:href="#DejaVuSans-68" transform="translate(117.919922 0)"/>
      <use xlink:href="#DejaVuSans-65" transform="translate(181.298828 0)"/>
      <use xlink:href="#DejaVuSans-72" transform="translate(242.822266 0)"/>
     </g>
    </g>
   </g>
  </g>
 </g>
 <defs>
  <clipPath id="pc406daab7e">
   <rect x="44.66" y="25.44" width="867.566" height="436.6"/>
  </clipPath>
 </defs>
</svg>
